<?xml version="1.0" encoding="UTF-8"?>
<!DOCTYPE svg PUBLIC "-//W3C//DTD SVG 1.1//EN" "http://www.w3.org/Graphics/SVG/1.1/DTD/svg11.dtd">
<!-- Creator: CorelDRAW 2021 (64-Bit) -->
<svg xmlns="http://www.w3.org/2000/svg" xml:space="preserve" width="274px" height="335px" version="1.1" shape-rendering="geometricPrecision" text-rendering="geometricPrecision" image-rendering="optimizeQuality" fill-rule="evenodd" clip-rule="evenodd"
viewBox="0 0 274 334.573"
 xmlns:xlink="http://www.w3.org/1999/xlink"
 xmlns:xodm="http://www.corel.com/coreldraw/odm/2003">
 <g id="Capa_x0020_1">
  <metadata id="CorelCorpID_0Corel-Layer"/>
  <g id="_1191507713296">
   <ellipse fill="#FEFEFE" cx="136.048" cy="137.558" rx="136.871" ry="136.544"/>
   <path fill="black" d="M185.388 200.066l0 9.313 -0.036 13.375c-0.573,2.472 -0.076,0.527 -0.973,1.336 -0.102,0.092 -0.493,0.397 -0.573,0.466 -1.815,1.572 0.173,-1.079 -0.546,0.569l0.035 23.526c0.027,2.177 0.446,2.743 -1.245,3.034l-82.958 -0.024c-1.192,0 -8.732,0.126 -9.236,-0.038 -1.31,-0.428 -0.908,-1.532 -0.875,-3.456l0.022 -23.042c-0.322,-1.536 -1.987,-0.081 -2.161,-3.227l0.18 -76.475 98.352 0.004 0.014 54.639zm-41.426 -81.323l39.192 0.17 0.832 4.238c0.123,0.071 0.568,0.295 0.681,0.387 1.515,1.24 0.687,7.008 0.737,9.275l-5.39 -0.46c-0.23,0.004 -0.821,0.109 -0.917,0.144 -0.647,1.516 0.025,1.492 -0.768,2.965 -3.987,0.318 -31.996,0.49 -34.481,-0.189l0.114 -16.53zm-54.817 0.008l39.36 0.1 0.043 16.693 -34.613 -0.084c-0.78,-1.461 -0.132,-1.466 -0.765,-2.963 -1.54,-0.511 -2.942,0.088 -6.311,0.315 0.048,-2.133 0.016,-4.206 -0.004,-6.333 -0.033,-3.377 0.571,-2.801 1.06,-3.136 0.639,-0.439 0.201,1.108 0.752,-0.382 0.07,-0.19 0.288,-0.103 0.393,-0.193l0.085 -4.017zm-43.81 -1.429c0.514,1.353 0.637,1.511 1.572,2.258 1.705,-0.54 -1.142,-0.811 5.766,-0.836 2.395,-0.009 4.779,0.017 7.168,0.035 14.094,-0.298 12.021,-0.74 11.986,3.99l2.275 0.938 0.039 9.062 -6.685 -0.471 0.002 3.26 -21.877 0.067 -0.067 9.788 28.603 0.1 -0.039 39.527 0.041 2.001 -0.103 36.676c-2.051,0.891 -1.359,-0.705 -2.063,1.408 0.016,4.832 0.604,23.159 -0.259,26.522l-12.83 0.015 -26.819 -0.023c-4.002,0.054 -5.132,-0.613 -7.58,1.546 -0.621,4.299 1.435,5.463 5.206,5.456 3.55,-0.006 7.248,0.079 10.814,0.127 -1.371,4.122 -0.504,6.336 4.208,7.716 3.217,0.942 7.893,1.969 11.455,2.072l-0.72 1.039c-1.237,1.892 -0.982,2.011 -0.877,4.146 4.376,3.386 3.079,0.781 6.888,2.094 -0.61,1.567 0.348,1.027 -5.95,0.994 -16.637,-0.089 -34.027,-0.204 -50.637,0.285 -1.212,1.986 -2.959,3.289 -0.43,5.751l6.5 1.077c1.425,0.012 7.723,-0.367 8.446,0.42 0.622,1.218 -3.17,5.407 5.458,7.652 10.818,2.816 29.883,3.783 41.036,4.191l-4.082 1.821c-0.729,4.942 3.585,3.718 6.246,4.266 3.596,0.741 6.85,0.816 10.905,0.915 7.528,0.182 14.739,0.613 22.325,1.037 -4.511,0.177 -32.54,2.598 -33.9,6.336 0.177,4.158 4.103,4.277 8.222,4.804l24.467 1.917c4.104,0.317 7.946,1.133 12.392,1.356l-0.644 0.437c-1.935,0.911 -5.829,0.748 -7.993,0.786l-19.712 0.173c-3.164,0.009 -6.639,-0.633 -7.573,2.375 -1.254,4.039 2.003,4.463 5.124,4.825 10.411,1.207 16.2,2.009 27.687,1.496 -0.591,4.746 0.154,6.803 7.544,5.878 4.191,-0.525 8.35,-2.004 11.76,-2.536 3.129,4.28 5.981,2.98 12.658,2 11.329,-1.661 7.144,-4.261 12.638,-4.486 3.944,-0.161 27.964,-0.03 27.898,-5.409 -0.045,-3.623 -12.585,-5.898 -14.839,-6.573l2.812 -0.794c3.813,-0.427 10.764,-0.972 13.962,-2.177 2.297,-0.866 2.359,-1.711 4.177,-2.381 3.727,-1.374 17.732,-2.249 12.486,-11.896 7.007,-1.156 25.801,-0.836 29.934,-2.544 1.943,-0.803 2.977,-2.905 1.605,-5.316 -1.153,-2.026 -0.937,-0.33 -0.689,-1.25 4.759,-2.176 23.18,1.687 30.669,-3.044l0.041 -2.691c-3.914,-3.005 -10.143,-2.091 -16.138,-2.091 -6.124,0.001 -12.25,-0.015 -18.374,-0.024l-0.016 -6.744c13.715,-0.823 16.446,-1.229 30.957,-0.997 0.546,-2.111 0.586,-5.058 -0.022,-7.146l-4.989 -0.072 -0.83 -2.415c3.512,-0.832 12.195,0.651 14.686,-0.71 1.964,-1.074 2.26,-3.696 1.011,-5.36 -1.329,-1.771 -4.24,-1.29 -6.48,-1.286 -10.555,0.015 -21.11,-0.01 -31.665,0.013 0.083,-0.119 0.228,-0.421 0.277,-0.336 0.053,0.092 2.591,-2.396 1.253,-5.065 -2.017,-2.429 -4.105,-1.656 -7.844,-1.652 -3.526,0.004 -7.061,-0.07 -10.584,0.061l-12.711 0.022c-0.001,-0.617 -0.073,-2.173 0.015,-2.733 0.364,-2.307 -0.207,-0.948 0.832,-1.769 -0.176,-1.124 -0.199,0.042 -0.657,-1.205 -0.848,-2.315 0.053,-1.751 -1.28,-3.525 -0.804,-1.07 -2.953,-2.723 -3.03,-3.971 1.906,0.075 1.253,1.724 4.018,2.657 -0.239,-2.638 -0.765,-2.094 -1.926,-3.849 1.092,-0.684 1.593,-0.127 2.02,0.27l0.027 -13.253c-0.447,-0.254 -0.811,-0.34 -1.166,-0.518l-1.058 -0.584 0.007 -19.513c-0.401,-3.603 -0.267,-9.823 0.22,-13.256 -0.844,-1.929 -0.547,-39.73 -0.253,-45.037l28.46 -0.101 -0.142 -9.778 -21.661 0.024 -0.071 -3.41 -6.664 0.37 0.098 -8.839 2.13 -0.939c-0.031,-5.025 -1.84,-4.028 10.716,-4.028 4.58,0 10.618,0.332 15.004,-0.119 1.101,-1.619 1.36,-4.298 1.827,-6.276 1.029,-4.358 1.663,-1.579 4.444,-2.984 1.766,-0.891 3.822,-8.281 4.241,-11.232 -4.01,0.715 -7.369,1.711 -11.709,2.449 -26.528,4.515 -61.977,3.314 -88.823,3.314 -21.063,0 -57.528,0.801 -77.928,-1.781l-22.491 -3.876c0.429,2.974 2.136,9.265 3.587,10.71 1.43,1.425 1.058,0.409 3.023,0.752 1.958,0.342 1.122,-0.402 1.806,1.499 0.392,1.088 1.049,4.859 1.206,6.125z"/>
   <path fill="#F883C9" d="M71.29 54.639c-0.241,2.012 -1.572,1.306 -1.08,3.639 0.853,4.045 7.487,0.961 3.906,-2.505 -0.832,-0.805 -0.091,0.041 -0.833,-0.638l-0.509 -0.481c-1.107,-1.371 -1.833,-6.133 -2.076,-8.212 2.034,-0.41 0.526,-0.427 2.207,0.402 -0.089,-1.391 0.101,-1.86 0.625,-2.721 1.133,0.109 1.231,0.396 2.48,1.725 4.857,5.169 10.281,11.885 13.32,18.143 4.345,8.95 6.016,20.578 -1.49,26.863 -1.917,-1.016 -3.362,-3.164 -4.954,-4.916l-4.697 -4.852c-0.048,-0.169 -0.202,-0.159 -0.356,-0.257l-3.867 13.013c-5.029,0.119 -8.423,-4.908 -10.327,-7.898 -5.859,-9.201 -2.476,-28.227 1.054,-38.092 0.403,-1.127 1.138,-1.777 1.856,-1.451 1.381,0.993 0.571,-0.704 0.813,1.713 0.086,0.869 -0.482,4.099 -1.185,5.057 -0.681,0.927 -2.119,1.017 -1.19,2.681 0.787,1.41 1.551,0.963 2.888,0.455 0.723,-3.256 -1.832,-1.799 0.007,-7.833 0.52,-1.707 0.695,-1.372 1.203,-1.684 0.906,0.799 2.366,6.498 2.205,7.849zm-25.955 62.683c-0.157,-1.266 -0.814,-5.037 -1.206,-6.125 -0.684,-1.901 0.152,-1.157 -1.806,-1.499 -1.965,-0.343 -1.593,0.673 -3.023,-0.752 -1.451,-1.445 -3.158,-7.736 -3.587,-10.71l22.491 3.876c20.4,2.582 56.865,1.781 77.928,1.781 26.846,0 62.295,1.201 88.823,-3.314 4.34,-0.738 7.699,-1.734 11.709,-2.449 -0.419,2.951 -2.475,10.341 -4.241,11.232 -2.781,1.405 -3.415,-1.374 -4.444,2.984 -0.467,1.978 -0.726,4.657 -1.827,6.276 -4.386,0.451 -10.424,0.119 -15.004,0.119 -12.556,0 -10.747,-0.997 -10.716,4.028l-2.13 0.939 -0.098 8.839 6.664 -0.37 0.071 3.41 21.661 -0.024 0.142 9.778 -28.46 0.101c-0.294,5.307 -0.591,43.108 0.253,45.037l-0.09 -1.976c1.64,-0.963 2.184,-1.483 3.221,-2.934 0.767,0.45 1.374,0.861 2.449,1.277l0.063 -0.592c0.015,-1.371 0.059,1.65 -0.004,-0.547l-0.059 -0.898c3.579,1.594 4.55,4.707 6.351,2.285 -0.626,-1.306 -0.176,-0.192 -1.733,-1.409 0.315,-4.542 -0.061,-0.302 -0.859,-3.855l4.105 0.14c-0.801,-1.328 -1.444,-1.121 -0.831,-2.161 1.065,0.992 2.075,2.015 3.15,1.65 0.482,-1.224 0.19,-0.077 -0.086,-0.809 -0.539,-1.434 -0.103,1.216 -0.457,-0.829l2.518 -0.949 0.216 -2.318 1.854 1.183c0.361,-5.366 -1.274,-3.549 5.453,-3.806 -0.613,-1.326 -0.748,-1.716 -1.584,-2.801l1.517 -1.009c0.697,1.775 -0.008,0.512 0.055,1.059 0.168,1.476 -0.593,0.399 0.492,0.983l0.938 -2.684c1.186,0.266 0.421,0.097 1.415,1.553 0.074,0.109 0.152,0.295 0.258,0.42 1.092,-1.691 1.844,-1.534 4.25,-1.554l-0.486 -2.503c2.05,0.111 2.801,0.382 4.278,-1.084 2.378,-2.362 1.168,-2.587 2.006,-3.9l1.819 1.218c0.107,-0.148 0.14,-0.374 0.153,-0.314l0.339 -0.638c0.904,-1.097 2.895,-1.854 4.722,-2.043l2.06 -2.473c1.594,-1.404 0.921,-2.918 1.262,-5.083 3.321,1.069 3.38,2.184 4.649,0.246 1.437,2.285 0.692,1.441 2.351,-0.967 1.924,-2.791 1.279,-1.391 0.428,-4.234 1.371,-0.935 0.986,-0.341 2.342,-0.939 -0.415,-1.258 0.372,-2.846 0.655,-3.181 0.946,0.945 1.274,2.207 1.628,3.369l1.035 -1.968c4.413,-0.025 -0.435,2.033 6.387,-3.575 2.178,-1.791 4.42,-3.525 6.41,-4.853l-0.604 -11.846c-3.382,0.072 -3.554,1.619 -5.193,3.144 -0.529,0.493 0.047,-0.558 -0.521,0.629 -0.006,0.014 -0.208,1.136 -0.223,1.209l-1.412 -3.129 -0.75 1.708c-0.758,1.306 0.11,0.757 -1.281,1.13 -0.48,-0.746 -0.195,-0.442 -0.095,-1.533l0.175 -1.198c-1.484,0.794 -1.306,0.802 -2.424,2.094 -2.289,-0.537 0.199,-0.997 -2.078,-0.408 -1.218,0.315 -0.453,0.819 -2.465,0.939l1.045 -2.51c1.559,-0.11 0.994,0.016 2.439,0.236 -0.145,-1.214 -0.324,-1.338 -0.628,-2.575 0.132,0.072 0.31,0.048 0.384,0.24 0.25,0.641 1.503,0.861 2.226,0.989 -0.704,-0.729 -0.793,-0.778 -1.229,-2.107 2.101,-0.039 3.911,-0.347 5.558,-1.556 1.653,-1.214 -0.142,-0.669 1.967,-1.177l1.151 2.317c1.762,-0.116 2.169,-0.578 3.063,0.289 0.385,-3.584 -1.426,-1.238 -3.655,-1.81 4.087,-3.471 3.977,-2.995 0.594,-17.196 -0.726,-3.044 -1.528,-5.536 -2.345,-8.338 -0.457,-1.569 -4.172,-7.252 -4.073,-2.39 1.744,0.446 -0.24,-1.747 1.179,0.019 1.357,1.69 -0.447,1.599 -0.782,1.799 -3.451,2.06 -2.468,-0.279 -1.179,2.648 -1.528,0.038 -1.827,-0.678 -3.276,-0.844l-0.642 -0.046c-1.167,-0.413 -0.868,-1.692 -1.231,-2.878 -0.444,0.235 -1.455,0.795 -1.796,1.011 -0.86,0.546 -0.85,0.028 -1.161,1.237l0.015 0.75c0,0.094 0.031,0.279 0.075,0.41l0.646 -0.108c0.159,-0.04 0.824,-0.257 0.937,-0.275 2.22,-0.363 1.774,2.127 -1.334,1.556l0.403 2.598c-1.107,-0.726 -2.23,-1.583 -4.094,-0.896 -2.141,0.789 -0.524,0.358 -0.644,3.867 -1.33,0.105 -2.201,-0.235 -2.664,-0.188l-2.347 0.998c-0.941,-1 -1.543,-1.545 -2.316,-2.581 4.733,-0.43 0.816,1.503 3.378,0.832 0.859,-1.527 -1.174,-2.84 1.666,-4.729 1.443,-0.96 1.157,-1.266 2.912,-1.893 3.947,-1.41 2.772,-4.156 7.699,-4.485 0.472,-2.066 0.503,-1.159 1.137,-2.649 1.417,0.345 0.495,0.334 1.258,0.789 0.946,0.564 -1.207,0.267 1.216,0.622 -0.575,-2.827 -0.817,0.378 -0.353,-2.54l1.803 -0.658c0.132,-1.248 -2.487,-9.909 -4.335,-9.977 -0.893,-0.033 -1.3,0.588 -1.803,1.054 -0.081,0.075 -0.166,0.184 -0.246,0.261 -1.3,1.27 -4.448,4.456 -5.978,5.172 -0.464,0.218 -0.724,-0.012 -1.647,0.436 -1.386,0.672 -2.015,2.131 -2.575,3.523l2.052 2.216c-0.945,0.744 -3.32,0.398 -4.806,0.525l-2.922 -6.598c-0.552,0.753 -1.012,1.464 -1.767,2.187 -0.623,-1.103 1.724,-3.567 2.704,-5.183 0.054,-0.088 0.137,-0.247 0.226,-0.356 0.639,3.759 1.246,2.264 2.172,1.486 0.032,2.093 0.611,2.506 2.329,2.752 0.575,-2.085 0.032,-0.47 -0.018,-1.308 -0.065,-1.096 -0.08,-0.604 0.361,-1.639 0.199,-0.466 0.577,-0.529 0.509,-1.65l-0.632 -1.505c-0.036,-0.068 -0.15,-0.199 -0.18,-0.317 1.559,-1.75 0.122,-0.102 1.188,-0.843 1.277,-0.889 0.776,1.062 1.087,-1.117 0.249,-1.743 -1.646,-1.421 -1.848,-1.356 -2.801,0.89 -2.924,1.703 -4.176,4.126 -1.359,-0.575 -0.349,0.117 -1.223,-1.223 -0.138,3.192 -1.021,3.149 -4.129,2.988l0.494 2.8c-1.462,-0.994 -1.083,-1.129 -2.614,-1.655 -0.118,0.225 -0.53,0.934 -0.705,1.184 -1.74,2.494 -1.376,3.041 -1.234,3.756l0.227 0.73c-0.949,0.527 -0.528,0.226 -1.069,0.48 -0.859,0.405 -0.145,-0.044 -0.921,0.459l1.107 2.26c-3.656,-0.808 -1.979,-4.961 -6.257,-6.403 -0.521,0.799 0.144,1.639 -0.375,2.518 -0.835,1.414 -1.029,0.32 -2.808,0.217 -1.164,1.361 -1.134,2.773 -2.5,3.15 -0.822,-1.602 -0.795,-2.586 -0.011,-3.961 0.223,2.199 -0.492,0.69 1.22,1.371 0.827,-1.346 2.127,-2.081 2.666,-4.273 -2.557,0.879 -0.733,1.516 -3.379,1.81 0.341,-0.49 1.117,-1.368 0.421,-2.379l-2.698 3.56c-0.017,0.06 -0.037,0.224 -0.094,0.318 -1.29,-0.434 -1.517,-0.712 -2.808,-1.321l0.472 2.66c-0.561,0.403 -0.629,0.353 -0.862,0.526 -1.029,0.767 -3.181,2.629 -3.407,3.713 -0.096,0.462 1.086,2.299 -2.772,2.269 -0.765,-1.327 -0.785,-2.95 -2.687,-2.493 -1.137,0.272 -1.931,2.097 -3.759,0.296 0.093,0.967 0.445,2.191 1.706,2.578 0.849,0.26 -0.013,-0.545 1.278,0.158 -0.7,2.137 -0.395,0.776 -1.536,1.171 -1.261,0.435 -0.171,-0.465 -0.959,0.498 -0.454,0.553 0.099,-0.234 -0.328,0.607l-0.279 0.768c-1.1,-0.383 -0.84,-0.386 -1.912,-0.502 -3.44,-0.371 -3.15,0.894 -4.754,1.152 0.152,-2.441 0.257,-1.302 0.9,-2.406 0.468,-0.807 0.371,-0.138 0.575,-1.314 0.043,-0.246 0.016,-1.713 0.015,-2.019 1.753,0.624 1.446,0.808 2.145,-1.563l-3.031 0.916c-0.915,0.436 0.469,0.085 -0.771,0.535 0.278,-4.201 4.462,-0.111 5.009,-3.923 0.334,-2.325 -0.492,-1.201 1.328,-3.784 0.406,-0.576 1.533,-2.899 1.757,-4.014 1.756,0.495 0.846,0.406 2.576,0.879 -0.396,-0.898 -1.625,-2.965 0.371,-3.375 2.96,-0.608 -0.951,0.611 1.887,1.648 1.658,-0.966 0.856,-1.986 0.112,-3.2l4.413 -2.782c1.053,-1.041 0.123,-0.215 0.815,-1.115 0.879,-1.143 0.135,-0.588 1.285,-1.162 1.512,-0.754 1.034,0.089 2.752,-1.395 0.08,0.092 0.157,0.142 0.186,0.313l0.887 1.525c1.093,1.305 0.355,1.071 1.48,0.571 1.409,-0.627 0.02,-0.786 -0.214,-0.992 -1.069,-0.941 -0.463,0.661 -1.554,-1.588l3.293 -1.743c-0.072,-0.228 -0.373,-1.016 -0.391,-1.118 -0.157,-0.886 -0.239,-0.488 0.064,-0.909l1.815 2.104c0.664,0.766 0.561,1.366 1.467,1.78 0.04,-0.083 0.054,-0.327 0.057,-0.271l0.065 -1.238c0.04,-1.255 -0.195,-0.618 0.222,-1.839 0.668,-1.955 1.18,-1.167 1.583,-3.435 -3.895,1.459 -2.196,-0.107 -5.052,0.706 -0.673,0.192 -1.188,0.765 -1.439,1.013 -0.593,-0.837 0.009,-2.298 -0.72,-3.299l-1.463 2.972 -1.583 -0.908c-0.743,-0.362 -0.97,-0.37 -1.516,-0.723l-1.576 2.099c-0.921,0.664 -2.281,0.531 -3.51,0.527 0.79,4.333 1.248,1.055 3.361,2.07 -0.057,0.482 0.039,1.253 -2.888,1.183 -0.13,-0.004 -0.522,-0.036 -0.633,-0.046l-1.643 -2.843 -3.306 -0.074 0.044 1.789c0.217,0.018 0.353,-0.126 0.382,-0.05 0.49,1.323 -0.052,-0.595 1.358,-0.231 1.062,0.275 0.017,-0.729 0.699,0.5 0.717,1.292 0.286,0.459 0.332,1.876 -2.028,0.61 -0.955,-0.283 -2.226,0.06 -0.035,0.009 -0.793,0.374 -0.847,0.395 -1.636,0.63 -2.362,-1.303 -6.159,1.967 -1.815,1.563 -0.117,0.51 -2.984,1.024 -0.56,-1.622 -1.489,-3.23 -0.565,-5.122l0.577 0.424c0.704,0.42 0.268,0.297 0.978,0.553 1.079,0.388 1.53,0.23 2.839,0.269 -0.503,-1.105 -0.282,-0.724 -1.004,-1.808 -0.811,-1.216 -0.201,0.216 -0.909,-1.275 0.764,-0.836 1.164,-0.947 1.527,-2.615 2.75,-0.288 1.82,0.536 3.214,-1.141 -0.354,-0.881 -0.56,-0.757 -1.995,-1.409 0.926,-2.439 2.383,-1.531 4.075,-2.859 1.106,-0.868 -0.538,-0.296 1.657,-1.084 -0.346,-2.892 -1.132,-1.416 -0.193,-3.104 1.619,1.109 -0.475,-0.18 0.788,1.037 1.046,1.008 -0.563,0.496 1.295,0.916 -0.764,0.381 -1.053,0.208 -1.385,1.395 -0.283,1.008 0.278,1.894 0.726,2.37 1.268,-0.983 0.802,-0.441 0.664,-2.532l0.987 0.646c0.816,0.259 0.317,0.337 0.958,-0.071l-0.811 -1.374c-0.048,-0.087 -0.12,-0.23 -0.163,-0.312 -0.044,-0.085 -0.124,-0.257 -0.159,-0.328 -0.037,-0.071 -0.118,-0.218 -0.159,-0.334 4.363,-2.942 9.324,-4.652 13.612,-7.599 1.92,-1.319 0.434,-0.686 2.178,-0.625 0.684,0.023 0.747,0.223 1.409,0.003 2.134,-0.71 -1.512,1.135 1.019,-0.646 0.093,-0.064 0.218,-0.206 0.333,-0.303l0.691 2.941c1.495,-0.394 1.872,-1.288 1.764,-3.121l2.684 -0.181c-1.761,-2.343 0.758,-3.67 1.707,-5.024 -1.206,-3.989 -11.692,-10.388 -14.392,-13.741 -1.803,0.376 -0.432,0.793 -1.975,0.357 -3.707,-1.05 2.331,-0.507 -0.926,-0.324 -0.045,0.002 -0.758,0.419 -0.821,0.471 -0.116,-3.34 0.478,-1.433 -1.955,-2.258l0.713 -1.677 -5.262 -3.264c-0.091,-0.047 -0.215,-0.112 -0.303,-0.16 -0.084,-0.045 -0.205,-0.116 -0.285,-0.161 -0.077,-0.044 -0.199,-0.121 -0.271,-0.164 -0.652,-0.385 0.175,-0.137 -0.768,-0.477 -1.406,2.153 -0.119,0.334 0.211,2.338 -3.561,0.214 0.646,-3.578 -4.291,1.391 -0.646,0.65 -0.173,0.194 -0.818,0.628 -0.117,0.079 -0.511,0.26 -0.621,0.338 -0.08,0.056 -0.214,0.121 -0.285,0.18 -2.001,1.671 -0.04,0.571 -0.873,1.703 -1.683,2.285 -3.559,-2.117 -4.246,-3.158l3.41 -2.947 0.949 2.216c1.115,-0.319 1.591,-1.03 2.35,-1.897 0.086,-0.098 0.208,-0.246 0.31,-0.372 -2.174,-1.113 -0.988,-0.402 -1.205,-1.56 0.478,-0.007 0.704,1.981 1.704,-0.939 -0.927,-1.286 -13.181,-7.453 -15.349,-7.885l-3.282 2.632c-4.817,-0.106 -1.991,1.214 -4.689,2.481 -1.706,-1.062 -0.78,-0.538 -1.406,-2.37 -1.401,0.504 -2.655,0.776 -3.89,1.856l1.021 2.143 -2.672 1.597c-0.753,-1.509 0.847,-1.313 -0.806,-2.533 -1.377,-1.017 -0.412,-1.073 -2.092,-2.07l-1.79 1.279c0.125,0.127 0.313,0.044 0.353,0.167 0.272,0.843 1.853,-0.415 1.166,1.345 -0.403,0.124 -0.123,0.159 -0.925,0.03 -0.001,0 -0.987,-0.309 -1.618,-0.446l-0.131 1.03c-0.16,0.828 0.062,0.584 -0.337,1.267 -0.091,-0.09 -0.206,-0.376 -0.245,-0.294 -0.245,0.509 -0.632,-0.883 -1.162,-1.302l-2.803 0.882c-0.036,-0.096 0.006,-0.293 0.011,-0.246l0.093 -0.482c0.213,-0.798 0.318,0.931 0.402,-1.309 -2.061,-0.078 -13.535,2.064 -15.563,3.106 -1.732,0.89 -2.254,2.825 -4.629,2.69 -2.05,-0.116 -0.554,-0.039 -1.252,-0.42 -1.556,-0.851 1.414,0.092 -1.109,-0.771l-36.911 9.755c4.716,0.985 8.649,1.815 12.476,4.341 2.875,1.897 7.016,5.875 7.068,10.29l-13.373 3.221c1.685,3.556 8.385,7.739 9.164,10.865 -10.937,10.496 -27.804,0.105 -36.904,-8.092 -2.109,-1.9 -7.793,-6.871 -8.699,-9.661 2.676,-1.196 0.993,-0.84 3.354,0.022l-0.661 -2.253 1.027 -0.089c0.55,0.05 1.072,0.219 1.428,0.321 1.003,0.288 2.296,0.663 3.079,0.883 4.559,1.281 1.825,1.985 4.111,3.383 1.949,1.193 4.175,-0.48 3.725,-2.733 -0.623,-3.122 -4.123,-1.042 -5.634,-1.015 -5.124,0.091 -2.576,-3.122 -11.01,-0.335 -3.778,1.248 -7.681,2.764 -11.401,3.744 0.018,0.098 0.144,0.119 0.166,0.251 0.302,1.841 1.209,-0.662 0.737,2.063 -0.124,0.72 -0.824,2.626 -1.104,3.56 -4.323,14.462 -13.732,33.984 -32.151,30.962 -0.563,-3.652 3.484,-10.034 3.21,-13.929l-13.385 3.128 -0.655 -5.122c-4.623,5.632 -10.743,20.145 -13.42,28.019 -3.622,10.654 -6.242,22.474 -6.972,34.975l0.699 0.258c1.307,0.326 2.86,1.206 4.679,0.338 1.3,-0.62 1.966,0.346 3.277,1.302l5.437 -3.743c0.036,-0.011 0.174,-0.001 0.253,-0.033 -0.916,-1.996 -1.118,-0.037 -0.683,-2.077l1.974 -0.309c0.313,2.595 0.013,1.262 -0.86,2.76 1.853,-0.104 3.043,-1.127 3.805,-2.544 0.008,0.011 0.696,0.763 0.806,0.87 1.518,1.478 0.148,-0.977 1.298,1.3 -0.908,2.039 1.356,-1.444 -0.503,0.656 -1.048,1.184 -1.312,0.929 -1.61,2.558 2.206,-0.414 0.11,-0.335 2.443,-0.671 0.323,-1.53 0.097,-2.57 0.823,-3.296 1.56,1.081 0.345,0.745 1.641,2.299l-0.419 -2.267c-0.894,-2.29 0.087,-0.436 -0.661,-3.792l1.198 0.683c0.618,0.414 0.433,0.376 0.987,0.785 1.631,-1.53 1.706,-1.907 3.899,-0.808l-0.445 -2.369c0.154,0.568 0.861,1.708 1.53,2l0.902 0.117c0.981,0.041 0.074,-0.932 1.879,0.119l-0.652 -3.312c0.212,0.074 0.413,0.038 0.495,0.255 0.413,1.112 0.239,0.149 0.776,0.48 0.594,0.366 0.37,0.232 0.883,0.541 0.416,-2.49 0.257,-1.869 2.08,-2.179l1.576 -0.39c2.635,-0.395 1.616,1.683 4.793,-0.043 0.788,-0.428 -0.17,-0.141 0.785,-0.445 0.926,-0.294 1.655,-0.155 2.759,-0.124z"/>
   <path fill="#F883C9" d="M58.949 193.272l-1.977 -1.659c0.128,-1.009 0.181,-0.532 0.308,-0.872 0.98,-2.613 -0.296,-0.712 0.563,-2.739 1.34,2.539 1.738,3.245 3.997,3.316l1.956 0.471c-0.621,3.692 0.776,-0.383 -4.838,3.966 -3.737,2.894 -5.641,-0.992 -3.092,-1.434 3.861,-0.669 -0.814,-0.816 3.083,-1.049zm-0.085 58.39l12.83 -0.015c0.863,-3.363 0.275,-21.69 0.259,-26.522 0.704,-2.113 0.012,-0.517 2.063,-1.408l0.103 -36.676 -2.221 0.058c-0.603,1.354 -0.365,0.85 -0.012,2.333 -3.104,-0.315 -2.522,0.734 -5.518,0.799l0.775 2.763c-1.536,-0.607 -0.331,-0.741 -1.134,-0.578 -1.185,0.24 1.83,0.977 -1.37,0.513 -0.498,-2.549 0.064,0.55 0.224,-3.522 0.112,-2.861 2.958,0.022 4.047,-4.76 3.064,0.09 1.54,0.543 3.946,-0.588l1.222 0.981 0.039 -39.527 -28.603 -0.1 0.067 -9.788 21.877 -0.067 -0.002 -3.26 6.685 0.471 -0.039 -9.062 -2.275 -0.938c0.035,-4.73 2.108,-4.288 -11.986,-3.99 -4.46,1.299 -0.82,-0.356 -5.29,2.59 -0.508,-0.552 -0.442,-0.979 -1.19,-1.283 -1.1,-0.446 -0.686,-0.241 -2.048,0.046 0.801,1.595 0.933,1.196 1.071,3.241 -2.078,0.544 -5.325,0.783 -7.317,1.523 -1.015,0.377 -2.117,0.792 -2.588,1.704 -1.032,2.001 0.76,-1.218 0.724,2.742 -2.035,0.816 -0.368,-1.524 -1.78,1.582l-1.407 -1.293c-1.001,0.682 -0.149,-0.037 -0.8,0.717l-0.418 0.546c-0.044,0.058 -0.117,0.201 -0.188,0.293 -1.152,-1.027 -1.818,-1.873 -3.371,-0.567 0.014,0.029 1.646,0.222 1.518,4.421 -0.331,-0.434 -0.558,-0.878 -0.829,-1.165 -0.841,-0.892 -0.053,-0.34 -1.069,-0.852 -1.318,0.555 -2.402,1.267 -3.282,1.915 -0.857,-0.442 -1.094,-0.89 -1.576,-1.644l-1.313 2.075c-0.499,-0.967 -0.669,-0.651 -1.629,-1.465 -1.466,-1.241 -1.499,-2.544 -3.312,-2.518 -0.272,2.499 0.635,0.608 0.684,3.729 0.057,3.58 0.393,2.713 -3.169,1.772l-0.411 2.037 -2.402 -1.869c-0.567,2.092 1.434,0.562 -2.423,3.437l-0.784 0.633c-4.634,4.211 -2.626,2.925 -7.203,1.461 0.241,3.05 2.657,5.14 -2.058,3.725 -0.492,1.584 -0.216,1.906 -0.983,2.873 -1.433,-0.045 -3.56,-2.556 -5.223,-3.455 -0.023,3.035 0.939,2.944 1.854,5.21 -1.924,2.924 -2.14,-1.172 -0.753,8.504 0.783,5.469 3.475,20.188 6.628,24.645 0.39,0.55 0.114,-0.207 0.661,0.887l0.427 -0.733c0.217,-0.42 0.333,-0.742 0.485,-1.005 0.987,-1.704 -0.257,-0.682 1.402,-1.309l0.937 2.696c2.572,0.388 3.301,0.254 5.044,-0.912l3.396 -3.002c0.921,0.324 0.905,1.242 1.73,1.42 1.747,0.375 2.198,-0.174 2.348,-0.217 1.24,-0.35 0.362,0.086 1.047,-0.455 -0.61,-1.29 0.163,-0.162 -1.023,-0.721 -1.349,-0.634 -0.961,0.032 -1.621,-0.687 1.337,-0.909 2.678,-1.044 3.621,-2.269l0.93 -1.533c4.59,0.448 4.778,-0.806 5.126,-5.119l1.118 -0.371c0.029,-0.012 0.142,-0.056 0.204,-0.099 -0.707,-1.345 -1.013,-1.113 -1.234,-2.76 1.107,0.626 0.995,1.048 2.229,1.245 -0.511,-1.462 -0.692,-0.75 -0.41,-1.832 1.694,0.753 0.386,1.129 2.201,1.338 0.084,-1.183 0.019,-0.427 -0.1,-1.109l-0.275 -1.263c-0.027,-0.121 -0.091,-0.296 -0.115,-0.449 3.673,2.476 0.994,2.041 1.862,5.573 1.569,-0.707 0.196,-0.042 1.131,-0.645 0.167,-0.108 0.8,-0.573 0.888,-0.626 1.056,-0.633 1.201,-0.626 2.586,-0.658 -0.553,-2.767 -0.692,-2.401 1.195,-4.251l-0.039 3.577 1.45 -2.255c0.713,0.822 0.599,0.698 1.406,1.167 1.052,-0.663 1.219,-0.986 2.662,-1.429 0.007,-2.972 -0.525,0.519 -0.192,-2.406 0.744,0.732 1.492,1.416 3.059,1.088 1.681,-0.354 1.044,-1.286 0.901,-2.756 0.675,-0.457 1.305,-0.444 1.843,-1.176l1.784 -3.263c0.064,-0.092 0.132,-0.204 0.203,-0.295l1.168 -1.161c-3.838,0.735 -3.994,2.597 -6.739,3.063l-1.031 -1.997c1.424,-1.07 3.759,-3.162 5.718,-2.928 1.856,0.222 1.358,0.482 1.889,1.499 0.491,-0.607 1.417,-3.778 3.934,-1.362 0.513,0.492 1.11,1.235 0.113,1.729 -2.307,1.141 -0.307,-0.909 -1.972,-0.682l0.027 2.676c0.282,1.144 0.484,1.202 1.168,1.827 0.676,-2.147 0.846,-1.096 1.847,-2.69 0.765,0.182 0.798,0.331 1.044,0.447 1.594,0.75 -0.843,-0.04 1.329,0.656l0.61 -1.739c0.952,1.978 0.517,0.751 3.355,0.397l-1.467 2.132 2.496 -0.824c0.014,-0.05 0.068,-0.209 0.08,-0.249 0.012,-0.04 0.036,-0.173 0.083,-0.245l1.331 2.783c-2.667,0.608 -2.24,0.379 -3.206,2.662 -2.01,-0.373 -0.917,-0.923 -3.282,-1.236 -1.23,1.511 -0.151,1.334 -1.889,2.305l-0.518 0.163c-0.262,0.122 -0.661,-0.103 -0.544,0.754l0.441 1.304c-3.245,-0.76 -1.768,0.269 -4.055,-0.607 -0.043,0.132 -0.191,0.894 -0.192,0.897l-0.484 1.094c-0.048,0.101 -0.128,0.272 -0.215,0.392 -0.21,-1.277 -0.393,-1.766 -0.991,-2.546l-1.736 0.581c0.545,1.172 0.958,0.264 0.801,1.189 -0.134,0.788 -1.48,1.448 -1.842,2.507 -0.336,0.984 0.001,1.257 -0.927,1.857 -0.526,0.34 -0.909,0.307 -1.54,0.446 1.061,-3.424 1.407,-0.727 1.737,-2.565 0.212,-1.188 0.309,-0.18 -0.237,-1.032 -0.635,-0.124 -1.352,0.534 -1.79,1.224 -1.062,1.674 -0.687,1.087 -0.255,3.564 -2.474,0.144 -1.158,0.469 -3.241,1.669 -0.904,-0.925 -1.98,-2.098 -2.386,-3.043l-0.306 3.621c-0.047,-0.09 -0.161,-0.382 -0.207,-0.298l-1.661 -1.527 -1.866 0.67c-0.465,1.391 0.107,0.815 -0.913,2.851l1.544 1.493c-1.82,0.685 -0.955,-0.08 -1.715,1.377l2.127 0.417c-0.261,1.048 0.442,2.164 -2.369,0.929 -0.894,-0.392 0.71,-0.05 -1.083,-0.549 -1.066,1.245 -0.851,1.25 -2.757,1.421 -2.12,-2.617 1.17,-2.32 -3.064,-2.442 0.902,2.889 1.405,1.097 2.021,3.458 -0.482,0.446 -1.441,1.214 -2.176,1.441 -1.231,0.38 -0.746,0.086 -1.342,0.144l-5.13 4.195c0.213,1.281 0.797,2.646 0.609,4.324 -2.073,-4.172 0.201,-3.341 -4.524,-3.044l0.263 -2.992c-2.029,0.732 -2.519,1.693 -1.351,2.94 2.222,2.374 -0.9,-2.085 0.499,0.505 -1.975,2.398 -1.574,0.8 -2.684,3.868 -3.137,-1.566 -2.196,0.947 -5.979,1.952 0.309,1.373 2.155,6.609 3.43,6.273l0.742 -0.455c3.156,0.012 -1.348,1.289 2.347,1.491l-1.737 2.229c3.334,-0.022 0.664,0.646 3.541,1.274l0.288 -1.23c0.377,-1.311 -0.438,0.095 0.625,-1.332 1.422,-1.909 2.455,-2.619 4.63,-0.858 2.888,2.337 0.295,0.276 3.653,1.244 1.456,0.419 3.26,1.77 4.153,2.916 -0.066,0.113 -0.201,0.132 -0.239,0.309 -0.36,1.721 -1.318,0.113 -0.809,3.447l-0.612 0.423c-0.058,0.043 -0.213,0.158 -0.283,0.21 -1.033,0.772 -0.322,0.707 -1.287,0.932l-0.248 -0.715c-0.004,-0.042 -0.004,-0.191 -0.007,-0.237l-0.698 -2.653c-0.043,-0.332 0.274,-0.452 -0.148,-1.652 -5.123,-0.884 -1.741,1.425 -5.361,1.764 -0.019,0.001 -0.981,0.08 -1.028,0.083 -1.793,0.127 -1.077,0.185 -3.037,-0.159 -0.094,6.097 22.45,28.505 26.935,32.241l9.604 7.264c0.595,0.455 0.383,0.245 0.787,0.705l0.684 1.008z"/>
   <path fill="#F883C9" d="M198.315 203.735l-0.007 19.513 1.058 0.584c0.355,0.178 0.719,0.264 1.166,0.518l-0.027 13.253c-0.427,-0.397 -0.928,-0.954 -2.02,-0.27 1.161,1.755 1.687,1.211 1.926,3.849 -2.765,-0.933 -2.112,-2.582 -4.018,-2.657 0.077,1.248 2.226,2.901 3.03,3.971 1.333,1.774 0.432,1.21 1.28,3.525 0.458,1.247 0.481,0.081 0.657,1.205 -1.039,0.821 -0.468,-0.538 -0.832,1.769 -0.088,0.56 -0.016,2.116 -0.015,2.733l12.711 -0.022c1.151,-1.679 8.355,-6.701 10.22,-8.192 3.056,-2.446 6.356,-5.504 9.327,-8.475 18.101,-18.107 33.313,-44.037 37.699,-70.273 -4.788,0.976 -6.851,2.909 -7.156,3.007 -1.381,0.445 1.015,0.783 -0.979,-0.329 -0.015,-0.009 -0.095,-0.098 -0.148,-0.08 -0.342,0.889 -0.88,2.719 -1.008,4.028 2.393,-0.569 1.036,-1.48 2.774,-0.262 -0.393,1.03 -1.055,1.291 -2.168,1.508 -2.412,-2.053 -1.308,-2.466 -3.928,-1.225 1.258,2.002 2.261,0.883 1.722,3.105 -0.03,-0.033 -1.584,-1.04 -2.152,-1.35 -1.955,-1.068 -0.808,-0.627 -3.144,-0.231 -0.366,0.681 0.422,0.704 -0.684,1.652l-2.129 1.733c-2.725,-1.289 -0.345,-1.594 -2.746,-0.929 -0.058,0.016 -0.2,0.049 -0.258,0.07 -0.488,0.173 -0.136,-0.14 -0.761,0.348 -0.271,0.21 -0.782,1.058 -1.041,1.423l0.543 1.053c0.426,0.871 0.242,-0.62 0.612,1.359 -1.676,-0.418 -1.369,-0.08 -2.084,-1.498 -1.175,1.753 -0.498,1.368 -2.471,1.125 1.067,1.913 0.176,1.496 -1.478,2.27 -1.56,0.73 -2.221,1.063 -4.13,1.104l0.139 2.533c-3.163,-0.901 -2.878,0.832 -5.133,1.21l-1.82 -0.079c-1.874,0.106 -1.129,0.448 -2.346,1.253 -1.185,-0.469 -2.116,-1.075 -3.282,-1.252 -2.478,4.223 -5.556,3.946 -7.046,5.502 -0.6,0.626 -0.746,1.13 -1.238,1.349 -0.001,0.001 -0.008,0.645 -1.755,-0.331 -1.05,-0.588 0.023,0.834 -0.6,-0.513 -0.816,-1.765 0.815,-0.628 1.41,-3.412 -2.564,0.449 -2.095,0.847 -2.256,1.216 -0.22,0.504 -0.147,2.152 -0.22,2.904 -1.981,-1.227 -0.759,-1.856 -2.532,-1.947 0.239,2.07 1.901,1.288 2.437,5.953 -1.986,-0.9 -0.169,-0.456 -2.266,-1.216 -1.662,1.928 -0.978,1.797 -3.521,1.597l0.536 1.727 -2.172 -1.714c-1.222,0.951 -1.292,0.366 -2.444,1.687 1.09,0.711 1.311,0.556 1.212,2.23 -0.483,-0.349 -1.243,-0.731 -1.838,-1.053 -0.336,2.614 -1.489,2.228 -2.43,2.51l-0.584 0.217c-1.688,0.685 0.659,0.296 -1.592,0.717z"/>
   <path fill="#F883C9" d="M115.38 3.857c-1.046,6.858 0.035,7.563 -4.007,12.855 -7.103,9.299 -22.243,15.282 -34.395,16.65 0.026,-2.586 -0.47,-2.788 4.496,-3.959 1.702,-0.402 5.297,1.131 4.787,-1.843 -0.202,-1.177 -1.632,-2.21 -3.086,-0.632l-0.392 0.574c-0.582,0.692 -0.1,0.293 -0.718,0.771 -0.411,0.319 -2.38,1.094 -2.947,1.306 -0.301,0.112 -0.978,0.4 -1.43,0.47 -4.153,0.642 1.836,-4.497 3.047,-5.522 2.922,-2.474 1.284,0.112 3.868,-0.867 1.569,-0.594 2.014,-2.455 1.162,-3.873 -0.779,-1.295 -2.649,-1.462 -3.689,-0.49 -2.427,2.271 1.761,1.283 -4.327,6.963 -1.395,1.301 -1.533,1.997 -3.422,1.991 -0.053,-2.156 0.576,-2.668 1.548,-4.79 1.531,-3.34 1.944,-0.464 3.121,-3.519 -0.742,-2.071 -1.003,-1.985 -3.302,-1.374 -0.162,1.47 0.09,1.76 0.021,2.818 -0.137,2.12 -0.068,0.912 -0.723,2.494 -0.911,2.199 -0.445,3.272 -3.094,3.276 -0.41,-0.72 -0.263,0.055 -0.325,-1.152 -0.041,-0.787 0.006,-0.799 0.206,-1.545 0.214,-0.801 0.667,-1.882 0.934,-2.76 0.442,-1.459 1.578,-4.117 1.061,-5.248 -1.703,1.103 -1.422,2.524 -2.157,5.06 -0.577,1.986 -0.936,3.837 -2.029,5.277 -2.542,-1.829 -1.747,-0.6 -1.226,-4.102 0.673,-4.522 -0.048,-2.038 2.19,-4.737 -3.538,0.245 -2.617,3.843 -3.385,6.581l-0.27 0.734c-0.03,0.085 -0.088,0.239 -0.156,0.345 -2.495,-0.77 -0.981,-1.973 -2.344,-4.268 -0.667,0.902 0.061,1.802 -0.01,3.284 0,0 1.171,-0.875 -0.459,1.665 -1.509,-0.738 -0.2,0.078 -1.393,-1.193l-1.688 -1.674c0.83,1.757 1.349,2.176 2.08,3.655l-1.306 1.285c-2.323,-0.852 -1.63,-2.334 -4.3,-3.021 0.675,1.652 0.511,1.063 1.695,2.403 0.638,0.722 1.32,1.619 0.692,2.307 -1.632,1.79 -3.646,-1.44 -5.271,-2.279 1.274,2.039 3.094,2.055 3.459,4.377 -1.374,0.672 -1.86,0.107 -3.655,-0.51 -0.596,-0.205 -1.291,-0.487 -1.948,-0.626 -0.96,-0.204 -0.291,-0.18 -1.069,-0.117 -1.367,0.111 -0.006,-0.363 -0.886,0.313 1.351,1.721 5.804,0.926 6.939,2.818 -0.529,1.335 0.691,0.567 -1.526,1.235 -3.82,1.152 -6.111,-0.976 -7.199,-0.829 -3.172,0.427 -0.712,6.732 2.248,1.555 4.632,-0.069 6.455,-1.429 6.969,1.795 -1.983,1.07 -11.289,2.746 -14.085,3.05 -4.632,0.505 -4.262,-0.582 -6.807,2.251 -1.326,1.476 -3.117,2.914 -3.863,4.842 3.38,-2.063 7.045,-3.832 11.391,-5.279 4.796,-1.597 8.875,-2.187 13.581,-3.521 0.462,3.324 -0.294,2.342 -2.41,3.462 -1.182,0.626 -0.453,-0.365 -0.919,0.829 1.019,0.141 0.732,-0.34 1.221,-0.554 2.172,-0.955 3.075,-0.346 6.517,-1.943l0.691 -0.32c-1.439,-2.911 1.952,2.52 -0.759,-0.721 -0.62,-0.742 -0.968,-1.686 -0.758,-2.973l0.344 -1.137c0.026,-0.08 0.077,-0.229 0.139,-0.33 1.842,1.208 1.296,2.656 2.345,4.134 1.427,-0.325 3.319,-0.591 5.157,-0.689l0.938 -1.86c1.587,0.466 3.475,0.32 5.115,-0.216 4.034,-1.32 0.013,-1.648 3.829,-2.708 3.346,-0.93 7.723,-1.365 10.792,-2.333 3.323,-1.048 6.622,-1.715 9.949,-2.648 1.621,-0.454 3.616,-0.915 5.138,-1.553 3.685,-1.543 1.919,-0.44 5.011,-0.725 1.836,-3.086 1.703,-1.494 2.669,-1.718 2.348,-0.545 0.133,-0.694 3.888,-0.635 2.329,0.036 4.907,-0.559 6.772,-1.701 0.074,-0.045 0.182,-0.138 0.254,-0.177 1.181,-0.64 2.878,-0.621 4.391,-1.093 0.064,-0.02 0.199,-0.066 0.258,-0.088l0.815 -0.463c1.646,-0.517 -0.575,0.753 1.601,-0.114l6.306 -2.042c1.571,-0.597 1.663,-0.495 2.257,-2.233 0.218,-0.638 0.143,-0.599 0.296,-1.185 0.696,-2.666 2.258,-3.589 5.407,-3.621l-0.03 2.177c-0.406,0.037 -1.297,0.096 -1.582,0.174 -0.13,0.036 -0.262,0.074 -0.391,0.117l-1.294 2.414c1.691,1.362 2.606,0.753 4.989,0.542 2.622,-0.231 3.125,-0.958 4.978,-1.129 1.177,-0.109 2.723,-1.229 4.477,-1.562 1.724,-0.326 4.339,-0.263 6.253,-0.454 -0.023,-2.93 -0.949,0.464 -1.029,-3.019 1.894,1.358 2.511,2.249 4.608,1.997 3.743,-0.451 1.594,-1.167 5.651,-1.844 -0.451,-3.283 -1.04,-1.012 -2.783,-2.981 3.232,-1.626 5.007,-0.959 5.957,-1.409 -1.13,-1.994 -11.415,-3.465 -13.995,-3.888 -4.881,-0.801 -10.298,-1.695 -15.552,-1.987 -5.726,-0.318 -11.158,-0.703 -16.878,-0.111 -2.619,0.271 -1.35,0.365 -3.117,0.944 -3.226,1.056 -6.404,1.048 -10.122,2.104z"/>
   <path fill="#F883C9" d="M143.848 135.273c2.485,0.679 30.494,0.507 34.481,0.189 0.793,-1.473 0.121,-1.449 0.768,-2.965 0.096,-0.035 0.687,-0.14 0.917,-0.144l5.39 0.46c-0.05,-2.267 0.778,-8.035 -0.737,-9.275 -0.113,-0.092 -0.558,-0.316 -0.681,-0.387l-0.832 -4.238 -39.192 -0.17 -0.114 16.53z"/>
   <path fill="#F883C9" d="M89.06 122.768c-0.105,0.09 -0.323,0.003 -0.393,0.193 -0.551,1.49 -0.113,-0.057 -0.752,0.382 -0.489,0.335 -1.093,-0.241 -1.06,3.136 0.02,2.127 0.052,4.2 0.004,6.333 3.369,-0.227 4.771,-0.826 6.311,-0.315 0.633,1.497 -0.015,1.502 0.765,2.963l34.613 0.084 -0.043 -16.693 -39.36 -0.1 -0.085 4.017z"/>
   <path fill="#F883C9" d="M135.034 148.352c-0.743,3.555 -1.865,15.258 -1.095,18.552l13.35 -1.172c6.128,-0.412 4.304,2.786 6.146,-18.89 -3.278,-0.519 -16.173,0.214 -18.401,1.51zm41.752 7.451c0.803,-1.411 0.582,-1.804 1.263,-0.466 0.697,1.37 -0.142,2.213 -0.289,3.192 2.252,-0.953 0.514,-0.631 2.913,-3.603 3.019,0.926 2.927,-0.311 3.281,2.274 -4.868,-2.363 -4.198,2.435 -4.199,2.417 -0.002,-0.054 0.018,0.184 -0.02,0.263 -7.54,-2.418 0.069,5.766 -5.495,3.211 0.463,2.393 0.983,1.265 0.074,2.923 -0.029,0.054 -0.113,0.17 -0.143,0.226l-0.231 0.499c-0.492,1.05 -0.006,0.735 -1.142,1.676l-1.503 0.987c-0.785,-0.909 -0.548,-0.623 -1.174,-1.823 -0.573,-1.098 0.06,-0.399 -0.773,-1.484 -1.199,0.399 0.025,-0.257 -0.479,0.676 -1.196,2.213 -0.862,0.291 -1.626,2.51l-2.301 -1.267c-0.274,0.958 -0.238,0.666 -0.341,2.044 -1.162,-1.838 -1.231,-0.28 -3.193,0.471 0.159,-2.713 0.052,-0.046 0.721,-2.64 -4.919,0.109 -0.606,0.229 -2.436,1.358 -0.462,0.285 -0.13,0.444 -0.623,-0.299 -0.537,-0.807 -0.355,-0.683 -0.598,-1.574 1.671,-2.062 -0.717,0.755 1.236,-0.887 1.735,-1.459 0.646,-1.15 1.273,-2.663 1.055,0.389 1.975,0.833 3.2,1.047 0.648,-1.185 0.224,-0.575 0.467,-1.622 0,-0.001 -0.424,-0.624 0.702,-1.346 1.186,-0.763 1.015,-0.408 1.618,-0.064 -0.582,-2.172 0.145,0.21 -1.353,-1.978 0.094,-0.049 0.252,-0.055 0.311,-0.066 3.771,-0.701 1.845,-1.023 4.227,-0.129 -0.366,-2.304 -0.244,-1.93 0.244,-2.65 0.48,1.078 0.623,1.8 1.837,2.274 1.937,-1.319 0.601,-0.484 0.634,-1.091 0.175,-3.132 0.045,-0.415 1.35,-3.034 0.701,0.64 1.117,0.901 2.235,1.374l0.333 -0.736zm-41.752 -7.451c2.228,-1.296 15.123,-2.029 18.401,-1.51 -1.842,21.676 -0.018,18.478 -6.146,18.89l-13.35 1.172c-0.77,-3.294 0.352,-14.997 1.095,-18.552zm50.354 61.027c-0.898,-0.376 -0.654,0.206 -0.964,-0.421 -0.486,1.14 0.486,0.696 -0.831,1.802 -1.299,1.091 -2.742,2.965 -4.18,3.263 -2.964,0.611 0.612,-0.162 -2.39,-0.476 -2.027,1.994 0.08,1.371 -3.21,2.098 -0.073,0.016 -0.242,0.03 -0.345,0.09 0.099,4.28 2.162,-0.234 2.164,4.413l-1.981 0.323c-0.597,-1.167 0.288,-0.6 -0.011,-1.956l-5.457 0.559c-0.83,-1.523 -0.309,-2.035 -2.045,-2.731 -0.455,1.09 0.588,1.474 0.701,3.421l-2.734 0.498c0.155,-2.102 0.201,-1.395 0.639,-2.972l-1.773 0.748c0.116,2.342 0.196,1.032 0.635,2.1 0.621,1.505 0.507,0.768 0.618,2.694 -3.623,0.232 -3.726,1.268 -5.37,-1.932 0.539,-0.179 1.012,-0.131 1.242,-0.217l1.15 -0.585c0.113,-0.062 0.287,-0.15 0.4,-0.262 -1.856,-0.547 -3.865,-0.292 -5.182,1.244 -0.407,0.474 0.496,3.175 -1.578,3.881 -1.793,-2.679 2.12,-0.831 -1.018,-3.592 1.773,-1.655 2.359,-0.383 1.227,-2.65 0.357,0.005 1.315,0.189 1.35,0.187 1.654,-0.052 3.556,-1.435 4.644,-2.361l2.903 -2.435c2.889,-3.372 3.946,-2.196 4.738,-2.348 1.396,-0.268 1.239,-0.606 2.373,-1.892 0.969,-1.1 1.126,-1.048 1.549,-2.777 3.579,0.375 -0.491,0.39 2.774,0.768l0.558 -2.493c3.081,1.678 3.578,-0.681 5.626,-2.328 0.75,0.472 0.18,0.265 0.71,0.686 0.95,0.756 -0.11,0.413 1.166,0.763 3.148,-2.402 -0.396,-0.891 0.093,-3.229 0.278,-1.331 0.944,-0.975 1.809,-1.194l-0.014 -54.639 -98.352 -0.004 -0.18 76.475c0.174,3.146 1.839,1.691 2.161,3.227l-0.022 23.042c-0.033,1.924 -0.435,3.028 0.875,3.456 0.504,0.164 8.044,0.038 9.236,0.038l82.958 0.024c1.691,-0.291 1.272,-0.857 1.245,-3.034l-0.035 -23.526c0.719,-1.648 -1.269,1.003 0.546,-0.569 0.08,-0.069 0.471,-0.374 0.573,-0.466 0.897,-0.809 0.4,1.136 0.973,-1.336l0.036 -13.375z"/>
   <path fill="#FDFAF9" d="M185.388 209.379l0 -9.313c-0.865,0.219 -1.531,-0.137 -1.809,1.194 -0.489,2.338 3.055,0.827 -0.093,3.229 -1.276,-0.35 -0.216,-0.007 -1.166,-0.763 -0.53,-0.421 0.04,-0.214 -0.71,-0.686 -2.048,1.647 -2.545,4.006 -5.626,2.328l-0.558 2.493c-3.265,-0.378 0.805,-0.393 -2.774,-0.768 -0.423,1.729 -0.58,1.677 -1.549,2.777 -1.134,1.286 -0.977,1.624 -2.373,1.892 -0.792,0.152 -1.849,-1.024 -4.738,2.348l-2.903 2.435c-1.088,0.926 -2.99,2.309 -4.644,2.361 -0.035,0.002 -0.993,-0.182 -1.35,-0.187 1.132,2.267 0.546,0.995 -1.227,2.65 3.138,2.761 -0.775,0.913 1.018,3.592 2.074,-0.706 1.171,-3.407 1.578,-3.881 1.317,-1.536 3.326,-1.791 5.182,-1.244 -0.113,0.112 -0.287,0.2 -0.4,0.262l-1.15 0.585c-0.23,0.086 -0.703,0.038 -1.242,0.217 1.644,3.2 1.747,2.164 5.37,1.932 -0.111,-1.926 0.003,-1.189 -0.618,-2.694 -0.439,-1.068 -0.519,0.242 -0.635,-2.1l1.773 -0.748c-0.438,1.577 -0.484,0.87 -0.639,2.972l2.734 -0.498c-0.113,-1.947 -1.156,-2.331 -0.701,-3.421 1.736,0.696 1.215,1.208 2.045,2.731l5.457 -0.559c0.299,1.356 -0.586,0.789 0.011,1.956l1.981 -0.323c-0.002,-4.647 -2.065,-0.133 -2.164,-4.413 0.103,-0.06 0.272,-0.074 0.345,-0.09 3.29,-0.727 1.183,-0.104 3.21,-2.098 3.002,0.314 -0.574,1.087 2.39,0.476 1.438,-0.298 2.881,-2.172 4.18,-3.263 1.317,-1.106 0.345,-0.662 0.831,-1.802 0.31,0.627 0.066,0.045 0.964,0.421z"/>
   <path fill="#FEF5F5" d="M176.453 156.539c-1.118,-0.473 -1.534,-0.734 -2.235,-1.374 -1.305,2.619 -1.175,-0.098 -1.35,3.034 -0.033,0.607 1.303,-0.228 -0.634,1.091 -1.214,-0.474 -1.357,-1.196 -1.837,-2.274 -0.488,0.72 -0.61,0.346 -0.244,2.65 -2.382,-0.894 -0.456,-0.572 -4.227,0.129 -0.059,0.011 -0.217,0.017 -0.311,0.066 1.498,2.188 0.771,-0.194 1.353,1.978 -0.603,-0.344 -0.432,-0.699 -1.618,0.064 -1.126,0.722 -0.702,1.345 -0.702,1.346 -0.243,1.047 0.181,0.437 -0.467,1.622 -1.225,-0.214 -2.145,-0.658 -3.2,-1.047 -0.627,1.513 0.462,1.204 -1.273,2.663 -1.953,1.642 0.435,-1.175 -1.236,0.887 0.243,0.891 0.061,0.767 0.598,1.574 0.493,0.743 0.161,0.584 0.623,0.299 1.83,-1.129 -2.483,-1.249 2.436,-1.358 -0.669,2.594 -0.562,-0.073 -0.721,2.64 1.962,-0.751 2.031,-2.309 3.193,-0.471 0.103,-1.378 0.067,-1.086 0.341,-2.044l2.301 1.267c0.764,-2.219 0.43,-0.297 1.626,-2.51 0.504,-0.933 -0.72,-0.277 0.479,-0.676 0.833,1.085 0.2,0.386 0.773,1.484 0.626,1.2 0.389,0.914 1.174,1.823l1.503 -0.987c1.136,-0.941 0.65,-0.626 1.142,-1.676l0.231 -0.499c0.03,-0.056 0.114,-0.172 0.143,-0.226 0.909,-1.658 0.389,-0.53 -0.074,-2.923 5.564,2.555 -2.045,-5.629 5.495,-3.211 0.038,-0.079 0.018,-0.317 0.02,-0.263 0.001,0.018 -0.669,-4.78 4.199,-2.417 -0.354,-2.585 -0.262,-1.348 -3.281,-2.274 -2.399,2.972 -0.661,2.65 -2.913,3.603 0.147,-0.979 0.986,-1.822 0.289,-3.192 -0.681,-1.338 -0.46,-0.945 -1.263,0.466l-0.333 0.736z"/>
   <path fill="#FDF3F2" d="M74.119 187.041l-0.041 -2.001 -1.222 -0.981c-2.406,1.131 -0.882,0.678 -3.946,0.588 -1.089,4.782 -3.935,1.899 -4.047,4.76 -0.16,4.072 -0.722,0.973 -0.224,3.522 3.2,0.464 0.185,-0.273 1.37,-0.513 0.803,-0.163 -0.402,-0.029 1.134,0.578l-0.775 -2.763c2.996,-0.065 2.414,-1.114 5.518,-0.799 -0.353,-1.483 -0.591,-0.979 0.012,-2.333l2.221 -0.058z"/>
   <path fill="#FAEFF0" d="M56.972 191.613l1.977 1.659c-3.897,0.233 0.778,0.38 -3.083,1.049 -2.549,0.442 -0.645,4.328 3.092,1.434 5.614,-4.349 4.217,-0.274 4.838,-3.966l-1.956 -0.471c-2.259,-0.071 -2.657,-0.777 -3.997,-3.316 -0.859,2.027 0.417,0.126 -0.563,2.739 -0.127,0.34 -0.18,-0.137 -0.308,0.872z"/>
   <path fill="#F883C9" d="M228.255 81.072c0.601,1.45 0.157,0.543 0.747,1.202 1.604,1.789 1.632,2.076 2.776,2.469 0.868,-0.984 0.539,1.164 0.63,-1.421 0.054,-1.498 0.078,-0.058 -0.377,-1.305 1.601,0.372 0.564,0.435 2.484,0.37l2.302 -4.913c-2.001,0.124 -2.145,-0.022 -3.257,1.407 -1.035,-1.583 0.18,-0.615 -1.313,-1.239 -1.921,3.173 0.447,-0.132 -3.992,3.43z"/>
   <ellipse fill="#FEFEFE" cx="136.048" cy="137.558" rx="136.871" ry="136.544"/>
   <path fill="black" d="M185.388 200.066l0 9.313 -0.036 13.375c-0.573,2.472 -0.076,0.527 -0.973,1.336 -0.102,0.092 -0.493,0.397 -0.573,0.466 -1.815,1.572 0.173,-1.079 -0.546,0.569l0.035 23.526c0.027,2.177 0.446,2.743 -1.245,3.034l-82.958 -0.024c-1.192,0 -8.732,0.126 -9.236,-0.038 -1.31,-0.428 -0.908,-1.532 -0.875,-3.456l0.022 -23.042c-0.322,-1.536 -1.987,-0.081 -2.161,-3.227l0.18 -76.475 98.352 0.004 0.014 54.639zm-41.426 -81.323l39.192 0.17 0.832 4.238c0.123,0.071 0.568,0.295 0.681,0.387 1.515,1.24 0.687,7.008 0.737,9.275l-5.39 -0.46c-0.23,0.004 -0.821,0.109 -0.917,0.144 -0.647,1.516 0.025,1.492 -0.768,2.965 -3.987,0.318 -31.996,0.49 -34.481,-0.189l0.114 -16.53zm-54.817 0.008l39.36 0.1 0.043 16.693 -34.613 -0.084c-0.78,-1.461 -0.132,-1.466 -0.765,-2.963 -1.54,-0.511 -2.942,0.088 -6.311,0.315 0.048,-2.133 0.016,-4.206 -0.004,-6.333 -0.033,-3.377 0.571,-2.801 1.06,-3.136 0.639,-0.439 0.201,1.108 0.752,-0.382 0.07,-0.19 0.288,-0.103 0.393,-0.193l0.085 -4.017zm-43.81 -1.429c0.514,1.353 0.637,1.511 1.572,2.258 1.705,-0.54 -1.142,-0.811 5.766,-0.836 2.395,-0.009 4.779,0.017 7.168,0.035 14.094,-0.298 12.021,-0.74 11.986,3.99l2.275 0.938 0.039 9.062 -6.685 -0.471 0.002 3.26 -21.877 0.067 -0.067 9.788 28.603 0.1 -0.039 39.527 0.041 2.001 -0.103 36.676c-2.051,0.891 -1.359,-0.705 -2.063,1.408 0.016,4.832 0.604,23.159 -0.259,26.522l-12.83 0.015 -26.819 -0.023c-4.002,0.054 -5.132,-0.613 -7.58,1.546 -0.621,4.299 1.435,5.463 5.206,5.456 3.55,-0.006 7.248,0.079 10.814,0.127 -1.371,4.122 -0.504,6.336 4.208,7.716 3.217,0.942 7.893,1.969 11.455,2.072l-0.72 1.039c-1.237,1.892 -0.982,2.011 -0.877,4.146 4.376,3.386 3.079,0.781 6.888,2.094 -0.61,1.567 0.348,1.027 -5.95,0.994 -16.637,-0.089 -34.027,-0.204 -50.637,0.285 -1.212,1.986 -2.959,3.289 -0.43,5.751l6.5 1.077c1.425,0.012 7.723,-0.367 8.446,0.42 0.622,1.218 -3.17,5.407 5.458,7.652 10.818,2.816 29.883,3.783 41.036,4.191l-4.082 1.821c-0.729,4.942 3.585,3.718 6.246,4.266 3.596,0.741 6.85,0.816 10.905,0.915 7.528,0.182 14.739,0.613 22.325,1.037 -4.511,0.177 -32.54,2.598 -33.9,6.336 0.177,4.158 4.103,4.277 8.222,4.804l24.467 1.917c4.104,0.317 7.946,1.133 12.392,1.356l-0.644 0.437c-1.935,0.911 -5.829,0.748 -7.993,0.786l-19.712 0.173c-3.164,0.009 -6.639,-0.633 -7.573,2.375 -1.254,4.039 2.003,4.463 5.124,4.825 10.411,1.207 16.2,2.009 27.687,1.496 -0.591,4.746 0.154,6.803 7.544,5.878 4.191,-0.525 8.35,-2.004 11.76,-2.536 3.129,4.28 5.981,2.98 12.658,2 11.329,-1.661 7.144,-4.261 12.638,-4.486 3.944,-0.161 27.964,-0.03 27.898,-5.409 -0.045,-3.623 -12.585,-5.898 -14.839,-6.573l2.812 -0.794c3.813,-0.427 10.764,-0.972 13.962,-2.177 2.297,-0.866 2.359,-1.711 4.177,-2.381 3.727,-1.374 17.732,-2.249 12.486,-11.896 7.007,-1.156 25.801,-0.836 29.934,-2.544 1.943,-0.803 2.977,-2.905 1.605,-5.316 -1.153,-2.026 -0.937,-0.33 -0.689,-1.25 4.759,-2.176 23.18,1.687 30.669,-3.044l0.041 -2.691c-3.914,-3.005 -10.143,-2.091 -16.138,-2.091 -6.124,0.001 -12.25,-0.015 -18.374,-0.024l-0.016 -6.744c13.715,-0.823 16.446,-1.229 30.957,-0.997 0.546,-2.111 0.586,-5.058 -0.022,-7.146l-4.989 -0.072 -0.83 -2.415c3.512,-0.832 12.195,0.651 14.686,-0.71 1.964,-1.074 2.26,-3.696 1.011,-5.36 -1.329,-1.771 -4.24,-1.29 -6.48,-1.286 -10.555,0.015 -21.11,-0.01 -31.665,0.013 0.083,-0.119 0.228,-0.421 0.277,-0.336 0.053,0.092 2.591,-2.396 1.253,-5.065 -2.017,-2.429 -4.105,-1.656 -7.844,-1.652 -3.526,0.004 -7.061,-0.07 -10.584,0.061l-12.711 0.022c-0.001,-0.617 -0.073,-2.173 0.015,-2.733 0.364,-2.307 -0.207,-0.948 0.832,-1.769 -0.176,-1.124 -0.199,0.042 -0.657,-1.205 -0.848,-2.315 0.053,-1.751 -1.28,-3.525 -0.804,-1.07 -2.953,-2.723 -3.03,-3.971 1.906,0.075 1.253,1.724 4.018,2.657 -0.239,-2.638 -0.765,-2.094 -1.926,-3.849 1.092,-0.684 1.593,-0.127 2.02,0.27l0.027 -13.253c-0.447,-0.254 -0.811,-0.34 -1.166,-0.518l-1.058 -0.584 0.007 -19.513c-0.401,-3.603 -0.267,-9.823 0.22,-13.256 -0.844,-1.929 -0.547,-39.73 -0.253,-45.037l28.46 -0.101 -0.142 -9.778 -21.661 0.024 -0.071 -3.41 -6.664 0.37 0.098 -8.839 2.13 -0.939c-0.031,-5.025 -1.84,-4.028 10.716,-4.028 4.58,0 10.618,0.332 15.004,-0.119 1.101,-1.619 1.36,-4.298 1.827,-6.276 1.029,-4.358 1.663,-1.579 4.444,-2.984 1.766,-0.891 3.822,-8.281 4.241,-11.232 -4.01,0.715 -7.369,1.711 -11.709,2.449 -26.528,4.515 -61.977,3.314 -88.823,3.314 -21.063,0 -57.528,0.801 -77.928,-1.781l-22.491 -3.876c0.429,2.974 2.136,9.265 3.587,10.71 1.43,1.425 1.058,0.409 3.023,0.752 1.958,0.342 1.122,-0.402 1.806,1.499 0.392,1.088 1.049,4.859 1.206,6.125z"/>
   <path fill="#FF0009" d="M71.29 54.639c-0.241,2.012 -1.572,1.306 -1.08,3.639 0.853,4.045 7.487,0.961 3.906,-2.505 -0.832,-0.805 -0.091,0.041 -0.833,-0.638l-0.509 -0.481c-1.107,-1.371 -1.833,-6.133 -2.076,-8.212 2.034,-0.41 0.526,-0.427 2.207,0.402 -0.089,-1.391 0.101,-1.86 0.625,-2.721 1.133,0.109 1.231,0.396 2.48,1.725 4.857,5.169 10.281,11.885 13.32,18.143 4.345,8.95 6.016,20.578 -1.49,26.863 -1.917,-1.016 -3.362,-3.164 -4.954,-4.916l-4.697 -4.852c-0.048,-0.169 -0.202,-0.159 -0.356,-0.257l-3.867 13.013c-5.029,0.119 -8.423,-4.908 -10.327,-7.898 -5.859,-9.201 -2.476,-28.227 1.054,-38.092 0.403,-1.127 1.138,-1.777 1.856,-1.451 1.381,0.993 0.571,-0.704 0.813,1.713 0.086,0.869 -0.482,4.099 -1.185,5.057 -0.681,0.927 -2.119,1.017 -1.19,2.681 0.787,1.41 1.551,0.963 2.888,0.455 0.723,-3.256 -1.832,-1.799 0.007,-7.833 0.52,-1.707 0.695,-1.372 1.203,-1.684 0.906,0.799 2.366,6.498 2.205,7.849zm-25.955 62.683c-0.157,-1.266 -0.814,-5.037 -1.206,-6.125 -0.684,-1.901 0.152,-1.157 -1.806,-1.499 -1.965,-0.343 -1.593,0.673 -3.023,-0.752 -1.451,-1.445 -3.158,-7.736 -3.587,-10.71l22.491 3.876c20.4,2.582 56.865,1.781 77.928,1.781 26.846,0 62.295,1.201 88.823,-3.314 4.34,-0.738 7.699,-1.734 11.709,-2.449 -0.419,2.951 -2.475,10.341 -4.241,11.232 -2.781,1.405 -3.415,-1.374 -4.444,2.984 -0.467,1.978 -0.726,4.657 -1.827,6.276 -4.386,0.451 -10.424,0.119 -15.004,0.119 -12.556,0 -10.747,-0.997 -10.716,4.028l-2.13 0.939 -0.098 8.839 6.664 -0.37 0.071 3.41 21.661 -0.024 0.142 9.778 -28.46 0.101c-0.294,5.307 -0.591,43.108 0.253,45.037l-0.09 -1.976c1.64,-0.963 2.184,-1.483 3.221,-2.934 0.767,0.45 1.374,0.861 2.449,1.277l0.063 -0.592c0.015,-1.371 0.059,1.65 -0.004,-0.547l-0.059 -0.898c3.579,1.594 4.55,4.707 6.351,2.285 -0.626,-1.306 -0.176,-0.192 -1.733,-1.409 0.315,-4.542 -0.061,-0.302 -0.859,-3.855l4.105 0.14c-0.801,-1.328 -1.444,-1.121 -0.831,-2.161 1.065,0.992 2.075,2.015 3.15,1.65 0.482,-1.224 0.19,-0.077 -0.086,-0.809 -0.539,-1.434 -0.103,1.216 -0.457,-0.829l2.518 -0.949 0.216 -2.318 1.854 1.183c0.361,-5.366 -1.274,-3.549 5.453,-3.806 -0.613,-1.326 -0.748,-1.716 -1.584,-2.801l1.517 -1.009c0.697,1.775 -0.008,0.512 0.055,1.059 0.168,1.476 -0.593,0.399 0.492,0.983l0.938 -2.684c1.186,0.266 0.421,0.097 1.415,1.553 0.074,0.109 0.152,0.295 0.258,0.42 1.092,-1.691 1.844,-1.534 4.25,-1.554l-0.486 -2.503c2.05,0.111 2.801,0.382 4.278,-1.084 2.378,-2.362 1.168,-2.587 2.006,-3.9l1.819 1.218c0.107,-0.148 0.14,-0.374 0.153,-0.314l0.339 -0.638c0.904,-1.097 2.895,-1.854 4.722,-2.043l2.06 -2.473c1.594,-1.404 0.921,-2.918 1.262,-5.083 3.321,1.069 3.38,2.184 4.649,0.246 1.437,2.285 0.692,1.441 2.351,-0.967 1.924,-2.791 1.279,-1.391 0.428,-4.234 1.371,-0.935 0.986,-0.341 2.342,-0.939 -0.415,-1.258 0.372,-2.846 0.655,-3.181 0.946,0.945 1.274,2.207 1.628,3.369l1.035 -1.968c4.413,-0.025 -0.435,2.033 6.387,-3.575 2.178,-1.791 4.42,-3.525 6.41,-4.853l-0.604 -11.846c-3.382,0.072 -3.554,1.619 -5.193,3.144 -0.529,0.493 0.047,-0.558 -0.521,0.629 -0.006,0.014 -0.208,1.136 -0.223,1.209l-1.412 -3.129 -0.75 1.708c-0.758,1.306 0.11,0.757 -1.281,1.13 -0.48,-0.746 -0.195,-0.442 -0.095,-1.533l0.175 -1.198c-1.484,0.794 -1.306,0.802 -2.424,2.094 -2.289,-0.537 0.199,-0.997 -2.078,-0.408 -1.218,0.315 -0.453,0.819 -2.465,0.939l1.045 -2.51c1.559,-0.11 0.994,0.016 2.439,0.236 -0.145,-1.214 -0.324,-1.338 -0.628,-2.575 0.132,0.072 0.31,0.048 0.384,0.24 0.25,0.641 1.503,0.861 2.226,0.989 -0.704,-0.729 -0.793,-0.778 -1.229,-2.107 2.101,-0.039 3.911,-0.347 5.558,-1.556 1.653,-1.214 -0.142,-0.669 1.967,-1.177l1.151 2.317c1.762,-0.116 2.169,-0.578 3.063,0.289 0.385,-3.584 -1.426,-1.238 -3.655,-1.81 4.087,-3.471 3.977,-2.995 0.594,-17.196 -0.726,-3.044 -1.528,-5.536 -2.345,-8.338 -0.457,-1.569 -4.172,-7.252 -4.073,-2.39 1.744,0.446 -0.24,-1.747 1.179,0.019 1.357,1.69 -0.447,1.599 -0.782,1.799 -3.451,2.06 -2.468,-0.279 -1.179,2.648 -1.528,0.038 -1.827,-0.678 -3.276,-0.844l-0.642 -0.046c-1.167,-0.413 -0.868,-1.692 -1.231,-2.878 -0.444,0.235 -1.455,0.795 -1.796,1.011 -0.86,0.546 -0.85,0.028 -1.161,1.237l0.015 0.75c0,0.094 0.031,0.279 0.075,0.41l0.646 -0.108c0.159,-0.04 0.824,-0.257 0.937,-0.275 2.22,-0.363 1.774,2.127 -1.334,1.556l0.403 2.598c-1.107,-0.726 -2.23,-1.583 -4.094,-0.896 -2.141,0.789 -0.524,0.358 -0.644,3.867 -1.33,0.105 -2.201,-0.235 -2.664,-0.188l-2.347 0.998c-0.941,-1 -1.543,-1.545 -2.316,-2.581 4.733,-0.43 0.816,1.503 3.378,0.832 0.859,-1.527 -1.174,-2.84 1.666,-4.729 1.443,-0.96 1.157,-1.266 2.912,-1.893 3.947,-1.41 2.772,-4.156 7.699,-4.485 0.472,-2.066 0.503,-1.159 1.137,-2.649 1.417,0.345 0.495,0.334 1.258,0.789 0.946,0.564 -1.207,0.267 1.216,0.622 -0.575,-2.827 -0.817,0.378 -0.353,-2.54l1.803 -0.658c0.132,-1.248 -2.487,-9.909 -4.335,-9.977 -0.893,-0.033 -1.3,0.588 -1.803,1.054 -0.081,0.075 -0.166,0.184 -0.246,0.261 -1.3,1.27 -4.448,4.456 -5.978,5.172 -0.464,0.218 -0.724,-0.012 -1.647,0.436 -1.386,0.672 -2.015,2.131 -2.575,3.523l2.052 2.216c-0.945,0.744 -3.32,0.398 -4.806,0.525l-2.922 -6.598c-0.552,0.753 -1.012,1.464 -1.767,2.187 -0.623,-1.103 1.724,-3.567 2.704,-5.183 0.054,-0.088 0.137,-0.247 0.226,-0.356 0.639,3.759 1.246,2.264 2.172,1.486 0.032,2.093 0.611,2.506 2.329,2.752 0.575,-2.085 0.032,-0.47 -0.018,-1.308 -0.065,-1.096 -0.08,-0.604 0.361,-1.639 0.199,-0.466 0.577,-0.529 0.509,-1.65l-0.632 -1.505c-0.036,-0.068 -0.15,-0.199 -0.18,-0.317 1.559,-1.75 0.122,-0.102 1.188,-0.843 1.277,-0.889 0.776,1.062 1.087,-1.117 0.249,-1.743 -1.646,-1.421 -1.848,-1.356 -2.801,0.89 -2.924,1.703 -4.176,4.126 -1.359,-0.575 -0.349,0.117 -1.223,-1.223 -0.138,3.192 -1.021,3.149 -4.129,2.988l0.494 2.8c-1.462,-0.994 -1.083,-1.129 -2.614,-1.655 -0.118,0.225 -0.53,0.934 -0.705,1.184 -1.74,2.494 -1.376,3.041 -1.234,3.756l0.227 0.73c-0.949,0.527 -0.528,0.226 -1.069,0.48 -0.859,0.405 -0.145,-0.044 -0.921,0.459l1.107 2.26c-3.656,-0.808 -1.979,-4.961 -6.257,-6.403 -0.521,0.799 0.144,1.639 -0.375,2.518 -0.835,1.414 -1.029,0.32 -2.808,0.217 -1.164,1.361 -1.134,2.773 -2.5,3.15 -0.822,-1.602 -0.795,-2.586 -0.011,-3.961 0.223,2.199 -0.492,0.69 1.22,1.371 0.827,-1.346 2.127,-2.081 2.666,-4.273 -2.557,0.879 -0.733,1.516 -3.379,1.81 0.341,-0.49 1.117,-1.368 0.421,-2.379l-2.698 3.56c-0.017,0.06 -0.037,0.224 -0.094,0.318 -1.29,-0.434 -1.517,-0.712 -2.808,-1.321l0.472 2.66c-0.561,0.403 -0.629,0.353 -0.862,0.526 -1.029,0.767 -3.181,2.629 -3.407,3.713 -0.096,0.462 1.086,2.299 -2.772,2.269 -0.765,-1.327 -0.785,-2.95 -2.687,-2.493 -1.137,0.272 -1.931,2.097 -3.759,0.296 0.093,0.967 0.445,2.191 1.706,2.578 0.849,0.26 -0.013,-0.545 1.278,0.158 -0.7,2.137 -0.395,0.776 -1.536,1.171 -1.261,0.435 -0.171,-0.465 -0.959,0.498 -0.454,0.553 0.099,-0.234 -0.328,0.607l-0.279 0.768c-1.1,-0.383 -0.84,-0.386 -1.912,-0.502 -3.44,-0.371 -3.15,0.894 -4.754,1.152 0.152,-2.441 0.257,-1.302 0.9,-2.406 0.468,-0.807 0.371,-0.138 0.575,-1.314 0.043,-0.246 0.016,-1.713 0.015,-2.019 1.753,0.624 1.446,0.808 2.145,-1.563l-3.031 0.916c-0.915,0.436 0.469,0.085 -0.771,0.535 0.278,-4.201 4.462,-0.111 5.009,-3.923 0.334,-2.325 -0.492,-1.201 1.328,-3.784 0.406,-0.576 1.533,-2.899 1.757,-4.014 1.756,0.495 0.846,0.406 2.576,0.879 -0.396,-0.898 -1.625,-2.965 0.371,-3.375 2.96,-0.608 -0.951,0.611 1.887,1.648 1.658,-0.966 0.856,-1.986 0.112,-3.2l4.413 -2.782c1.053,-1.041 0.123,-0.215 0.815,-1.115 0.879,-1.143 0.135,-0.588 1.285,-1.162 1.512,-0.754 1.034,0.089 2.752,-1.395 0.08,0.092 0.157,0.142 0.186,0.313l0.887 1.525c1.093,1.305 0.355,1.071 1.48,0.571 1.409,-0.627 0.02,-0.786 -0.214,-0.992 -1.069,-0.941 -0.463,0.661 -1.554,-1.588l3.293 -1.743c-0.072,-0.228 -0.373,-1.016 -0.391,-1.118 -0.157,-0.886 -0.239,-0.488 0.064,-0.909l1.815 2.104c0.664,0.766 0.561,1.366 1.467,1.78 0.04,-0.083 0.054,-0.327 0.057,-0.271l0.065 -1.238c0.04,-1.255 -0.195,-0.618 0.222,-1.839 0.668,-1.955 1.18,-1.167 1.583,-3.435 -3.895,1.459 -2.196,-0.107 -5.052,0.706 -0.673,0.192 -1.188,0.765 -1.439,1.013 -0.593,-0.837 0.009,-2.298 -0.72,-3.299l-1.463 2.972 -1.583 -0.908c-0.743,-0.362 -0.97,-0.37 -1.516,-0.723l-1.576 2.099c-0.921,0.664 -2.281,0.531 -3.51,0.527 0.79,4.333 1.248,1.055 3.361,2.07 -0.057,0.482 0.039,1.253 -2.888,1.183 -0.13,-0.004 -0.522,-0.036 -0.633,-0.046l-1.643 -2.843 -3.306 -0.074 0.044 1.789c0.217,0.018 0.353,-0.126 0.382,-0.05 0.49,1.323 -0.052,-0.595 1.358,-0.231 1.062,0.275 0.017,-0.729 0.699,0.5 0.717,1.292 0.286,0.459 0.332,1.876 -2.028,0.61 -0.955,-0.283 -2.226,0.06 -0.035,0.009 -0.793,0.374 -0.847,0.395 -1.636,0.63 -2.362,-1.303 -6.159,1.967 -1.815,1.563 -0.117,0.51 -2.984,1.024 -0.56,-1.622 -1.489,-3.23 -0.565,-5.122l0.577 0.424c0.704,0.42 0.268,0.297 0.978,0.553 1.079,0.388 1.53,0.23 2.839,0.269 -0.503,-1.105 -0.282,-0.724 -1.004,-1.808 -0.811,-1.216 -0.201,0.216 -0.909,-1.275 0.764,-0.836 1.164,-0.947 1.527,-2.615 2.75,-0.288 1.82,0.536 3.214,-1.141 -0.354,-0.881 -0.56,-0.757 -1.995,-1.409 0.926,-2.439 2.383,-1.531 4.075,-2.859 1.106,-0.868 -0.538,-0.296 1.657,-1.084 -0.346,-2.892 -1.132,-1.416 -0.193,-3.104 1.619,1.109 -0.475,-0.18 0.788,1.037 1.046,1.008 -0.563,0.496 1.295,0.916 -0.764,0.381 -1.053,0.208 -1.385,1.395 -0.283,1.008 0.278,1.894 0.726,2.37 1.268,-0.983 0.802,-0.441 0.664,-2.532l0.987 0.646c0.816,0.259 0.317,0.337 0.958,-0.071l-0.811 -1.374c-0.048,-0.087 -0.12,-0.23 -0.163,-0.312 -0.044,-0.085 -0.124,-0.257 -0.159,-0.328 -0.037,-0.071 -0.118,-0.218 -0.159,-0.334 4.363,-2.942 9.324,-4.652 13.612,-7.599 1.92,-1.319 0.434,-0.686 2.178,-0.625 0.684,0.023 0.747,0.223 1.409,0.003 2.134,-0.71 -1.512,1.135 1.019,-0.646 0.093,-0.064 0.218,-0.206 0.333,-0.303l0.691 2.941c1.495,-0.394 1.872,-1.288 1.764,-3.121l2.684 -0.181c-1.761,-2.343 0.758,-3.67 1.707,-5.024 -1.206,-3.989 -11.692,-10.388 -14.392,-13.741 -1.803,0.376 -0.432,0.793 -1.975,0.357 -3.707,-1.05 2.331,-0.507 -0.926,-0.324 -0.045,0.002 -0.758,0.419 -0.821,0.471 -0.116,-3.34 0.478,-1.433 -1.955,-2.258l0.713 -1.677 -5.262 -3.264c-0.091,-0.047 -0.215,-0.112 -0.303,-0.16 -0.084,-0.045 -0.205,-0.116 -0.285,-0.161 -0.077,-0.044 -0.199,-0.121 -0.271,-0.164 -0.652,-0.385 0.175,-0.137 -0.768,-0.477 -1.406,2.153 -0.119,0.334 0.211,2.338 -3.561,0.214 0.646,-3.578 -4.291,1.391 -0.646,0.65 -0.173,0.194 -0.818,0.628 -0.117,0.079 -0.511,0.26 -0.621,0.338 -0.08,0.056 -0.214,0.121 -0.285,0.18 -2.001,1.671 -0.04,0.571 -0.873,1.703 -1.683,2.285 -3.559,-2.117 -4.246,-3.158l3.41 -2.947 0.949 2.216c1.115,-0.319 1.591,-1.03 2.35,-1.897 0.086,-0.098 0.208,-0.246 0.31,-0.372 -2.174,-1.113 -0.988,-0.402 -1.205,-1.56 0.478,-0.007 0.704,1.981 1.704,-0.939 -0.927,-1.286 -13.181,-7.453 -15.349,-7.885l-3.282 2.632c-4.817,-0.106 -1.991,1.214 -4.689,2.481 -1.706,-1.062 -0.78,-0.538 -1.406,-2.37 -1.401,0.504 -2.655,0.776 -3.89,1.856l1.021 2.143 -2.672 1.597c-0.753,-1.509 0.847,-1.313 -0.806,-2.533 -1.377,-1.017 -0.412,-1.073 -2.092,-2.07l-1.79 1.279c0.125,0.127 0.313,0.044 0.353,0.167 0.272,0.843 1.853,-0.415 1.166,1.345 -0.403,0.124 -0.123,0.159 -0.925,0.03 -0.001,0 -0.987,-0.309 -1.618,-0.446l-0.131 1.03c-0.16,0.828 0.062,0.584 -0.337,1.267 -0.091,-0.09 -0.206,-0.376 -0.245,-0.294 -0.245,0.509 -0.632,-0.883 -1.162,-1.302l-2.803 0.882c-0.036,-0.096 0.006,-0.293 0.011,-0.246l0.093 -0.482c0.213,-0.798 0.318,0.931 0.402,-1.309 -2.061,-0.078 -13.535,2.064 -15.563,3.106 -1.732,0.89 -2.254,2.825 -4.629,2.69 -2.05,-0.116 -0.554,-0.039 -1.252,-0.42 -1.556,-0.851 1.414,0.092 -1.109,-0.771l-36.911 9.755c4.716,0.985 8.649,1.815 12.476,4.341 2.875,1.897 7.016,5.875 7.068,10.29l-13.373 3.221c1.685,3.556 8.385,7.739 9.164,10.865 -10.937,10.496 -27.804,0.105 -36.904,-8.092 -2.109,-1.9 -7.793,-6.871 -8.699,-9.661 2.676,-1.196 0.993,-0.84 3.354,0.022l-0.661 -2.253 1.027 -0.089c0.55,0.05 1.072,0.219 1.428,0.321 1.003,0.288 2.296,0.663 3.079,0.883 4.559,1.281 1.825,1.985 4.111,3.383 1.949,1.193 4.175,-0.48 3.725,-2.733 -0.623,-3.122 -4.123,-1.042 -5.634,-1.015 -5.124,0.091 -2.576,-3.122 -11.01,-0.335 -3.778,1.248 -7.681,2.764 -11.401,3.744 0.018,0.098 0.144,0.119 0.166,0.251 0.302,1.841 1.209,-0.662 0.737,2.063 -0.124,0.72 -0.824,2.626 -1.104,3.56 -4.323,14.462 -13.732,33.984 -32.151,30.962 -0.563,-3.652 3.484,-10.034 3.21,-13.929l-13.385 3.128 -0.655 -5.122c-4.623,5.632 -10.743,20.145 -13.42,28.019 -3.622,10.654 -6.242,22.474 -6.972,34.975l0.699 0.258c1.307,0.326 2.86,1.206 4.679,0.338 1.3,-0.62 1.966,0.346 3.277,1.302l5.437 -3.743c0.036,-0.011 0.174,-0.001 0.253,-0.033 -0.916,-1.996 -1.118,-0.037 -0.683,-2.077l1.974 -0.309c0.313,2.595 0.013,1.262 -0.86,2.76 1.853,-0.104 3.043,-1.127 3.805,-2.544 0.008,0.011 0.696,0.763 0.806,0.87 1.518,1.478 0.148,-0.977 1.298,1.3 -0.908,2.039 1.356,-1.444 -0.503,0.656 -1.048,1.184 -1.312,0.929 -1.61,2.558 2.206,-0.414 0.11,-0.335 2.443,-0.671 0.323,-1.53 0.097,-2.57 0.823,-3.296 1.56,1.081 0.345,0.745 1.641,2.299l-0.419 -2.267c-0.894,-2.29 0.087,-0.436 -0.661,-3.792l1.198 0.683c0.618,0.414 0.433,0.376 0.987,0.785 1.631,-1.53 1.706,-1.907 3.899,-0.808l-0.445 -2.369c0.154,0.568 0.861,1.708 1.53,2l0.902 0.117c0.981,0.041 0.074,-0.932 1.879,0.119l-0.652 -3.312c0.212,0.074 0.413,0.038 0.495,0.255 0.413,1.112 0.239,0.149 0.776,0.48 0.594,0.366 0.37,0.232 0.883,0.541 0.416,-2.49 0.257,-1.869 2.08,-2.179l1.576 -0.39c2.635,-0.395 1.616,1.683 4.793,-0.043 0.788,-0.428 -0.17,-0.141 0.785,-0.445 0.926,-0.294 1.655,-0.155 2.759,-0.124z"/>
   <path fill="#FF0009" d="M58.949 193.272l-1.977 -1.659c0.128,-1.009 0.181,-0.532 0.308,-0.872 0.98,-2.613 -0.296,-0.712 0.563,-2.739 1.34,2.539 1.738,3.245 3.997,3.316l1.956 0.471c-0.621,3.692 0.776,-0.383 -4.838,3.966 -3.737,2.894 -5.641,-0.992 -3.092,-1.434 3.861,-0.669 -0.814,-0.816 3.083,-1.049zm-0.085 58.39l12.83 -0.015c0.863,-3.363 0.275,-21.69 0.259,-26.522 0.704,-2.113 0.012,-0.517 2.063,-1.408l0.103 -36.676 -2.221 0.058c-0.603,1.354 -0.365,0.85 -0.012,2.333 -3.104,-0.315 -2.522,0.734 -5.518,0.799l0.775 2.763c-1.536,-0.607 -0.331,-0.741 -1.134,-0.578 -1.185,0.24 1.83,0.977 -1.37,0.513 -0.498,-2.549 0.064,0.55 0.224,-3.522 0.112,-2.861 2.958,0.022 4.047,-4.76 3.064,0.09 1.54,0.543 3.946,-0.588l1.222 0.981 0.039 -39.527 -28.603 -0.1 0.067 -9.788 21.877 -0.067 -0.002 -3.26 6.685 0.471 -0.039 -9.062 -2.275 -0.938c0.035,-4.73 2.108,-4.288 -11.986,-3.99 -4.46,1.299 -0.82,-0.356 -5.29,2.59 -0.508,-0.552 -0.442,-0.979 -1.19,-1.283 -1.1,-0.446 -0.686,-0.241 -2.048,0.046 0.801,1.595 0.933,1.196 1.071,3.241 -2.078,0.544 -5.325,0.783 -7.317,1.523 -1.015,0.377 -2.117,0.792 -2.588,1.704 -1.032,2.001 0.76,-1.218 0.724,2.742 -2.035,0.816 -0.368,-1.524 -1.78,1.582l-1.407 -1.293c-1.001,0.682 -0.149,-0.037 -0.8,0.717l-0.418 0.546c-0.044,0.058 -0.117,0.201 -0.188,0.293 -1.152,-1.027 -1.818,-1.873 -3.371,-0.567 0.014,0.029 1.646,0.222 1.518,4.421 -0.331,-0.434 -0.558,-0.878 -0.829,-1.165 -0.841,-0.892 -0.053,-0.34 -1.069,-0.852 -1.318,0.555 -2.402,1.267 -3.282,1.915 -0.857,-0.442 -1.094,-0.89 -1.576,-1.644l-1.313 2.075c-0.499,-0.967 -0.669,-0.651 -1.629,-1.465 -1.466,-1.241 -1.499,-2.544 -3.312,-2.518 -0.272,2.499 0.635,0.608 0.684,3.729 0.057,3.58 0.393,2.713 -3.169,1.772l-0.411 2.037 -2.402 -1.869c-0.567,2.092 1.434,0.562 -2.423,3.437l-0.784 0.633c-4.634,4.211 -2.626,2.925 -7.203,1.461 0.241,3.05 2.657,5.14 -2.058,3.725 -0.492,1.584 -0.216,1.906 -0.983,2.873 -1.433,-0.045 -3.56,-2.556 -5.223,-3.455 -0.023,3.035 0.939,2.944 1.854,5.21 -1.924,2.924 -2.14,-1.172 -0.753,8.504 0.783,5.469 3.475,20.188 6.628,24.645 0.39,0.55 0.114,-0.207 0.661,0.887l0.427 -0.733c0.217,-0.42 0.333,-0.742 0.485,-1.005 0.987,-1.704 -0.257,-0.682 1.402,-1.309l0.937 2.696c2.572,0.388 3.301,0.254 5.044,-0.912l3.396 -3.002c0.921,0.324 0.905,1.242 1.73,1.42 1.747,0.375 2.198,-0.174 2.348,-0.217 1.24,-0.35 0.362,0.086 1.047,-0.455 -0.61,-1.29 0.163,-0.162 -1.023,-0.721 -1.349,-0.634 -0.961,0.032 -1.621,-0.687 1.337,-0.909 2.678,-1.044 3.621,-2.269l0.93 -1.533c4.59,0.448 4.778,-0.806 5.126,-5.119l1.118 -0.371c0.029,-0.012 0.142,-0.056 0.204,-0.099 -0.707,-1.345 -1.013,-1.113 -1.234,-2.76 1.107,0.626 0.995,1.048 2.229,1.245 -0.511,-1.462 -0.692,-0.75 -0.41,-1.832 1.694,0.753 0.386,1.129 2.201,1.338 0.084,-1.183 0.019,-0.427 -0.1,-1.109l-0.275 -1.263c-0.027,-0.121 -0.091,-0.296 -0.115,-0.449 3.673,2.476 0.994,2.041 1.862,5.573 1.569,-0.707 0.196,-0.042 1.131,-0.645 0.167,-0.108 0.8,-0.573 0.888,-0.626 1.056,-0.633 1.201,-0.626 2.586,-0.658 -0.553,-2.767 -0.692,-2.401 1.195,-4.251l-0.039 3.577 1.45 -2.255c0.713,0.822 0.599,0.698 1.406,1.167 1.052,-0.663 1.219,-0.986 2.662,-1.429 0.007,-2.972 -0.525,0.519 -0.192,-2.406 0.744,0.732 1.492,1.416 3.059,1.088 1.681,-0.354 1.044,-1.286 0.901,-2.756 0.675,-0.457 1.305,-0.444 1.843,-1.176l1.784 -3.263c0.064,-0.092 0.132,-0.204 0.203,-0.295l1.168 -1.161c-3.838,0.735 -3.994,2.597 -6.739,3.063l-1.031 -1.997c1.424,-1.07 3.759,-3.162 5.718,-2.928 1.856,0.222 1.358,0.482 1.889,1.499 0.491,-0.607 1.417,-3.778 3.934,-1.362 0.513,0.492 1.11,1.235 0.113,1.729 -2.307,1.141 -0.307,-0.909 -1.972,-0.682l0.027 2.676c0.282,1.144 0.484,1.202 1.168,1.827 0.676,-2.147 0.846,-1.096 1.847,-2.69 0.765,0.182 0.798,0.331 1.044,0.447 1.594,0.75 -0.843,-0.04 1.329,0.656l0.61 -1.739c0.952,1.978 0.517,0.751 3.355,0.397l-1.467 2.132 2.496 -0.824c0.014,-0.05 0.068,-0.209 0.08,-0.249 0.012,-0.04 0.036,-0.173 0.083,-0.245l1.331 2.783c-2.667,0.608 -2.24,0.379 -3.206,2.662 -2.01,-0.373 -0.917,-0.923 -3.282,-1.236 -1.23,1.511 -0.151,1.334 -1.889,2.305l-0.518 0.163c-0.262,0.122 -0.661,-0.103 -0.544,0.754l0.441 1.304c-3.245,-0.76 -1.768,0.269 -4.055,-0.607 -0.043,0.132 -0.191,0.894 -0.192,0.897l-0.484 1.094c-0.048,0.101 -0.128,0.272 -0.215,0.392 -0.21,-1.277 -0.393,-1.766 -0.991,-2.546l-1.736 0.581c0.545,1.172 0.958,0.264 0.801,1.189 -0.134,0.788 -1.48,1.448 -1.842,2.507 -0.336,0.984 0.001,1.257 -0.927,1.857 -0.526,0.34 -0.909,0.307 -1.54,0.446 1.061,-3.424 1.407,-0.727 1.737,-2.565 0.212,-1.188 0.309,-0.18 -0.237,-1.032 -0.635,-0.124 -1.352,0.534 -1.79,1.224 -1.062,1.674 -0.687,1.087 -0.255,3.564 -2.474,0.144 -1.158,0.469 -3.241,1.669 -0.904,-0.925 -1.98,-2.098 -2.386,-3.043l-0.306 3.621c-0.047,-0.09 -0.161,-0.382 -0.207,-0.298l-1.661 -1.527 -1.866 0.67c-0.465,1.391 0.107,0.815 -0.913,2.851l1.544 1.493c-1.82,0.685 -0.955,-0.08 -1.715,1.377l2.127 0.417c-0.261,1.048 0.442,2.164 -2.369,0.929 -0.894,-0.392 0.71,-0.05 -1.083,-0.549 -1.066,1.245 -0.851,1.25 -2.757,1.421 -2.12,-2.617 1.17,-2.32 -3.064,-2.442 0.902,2.889 1.405,1.097 2.021,3.458 -0.482,0.446 -1.441,1.214 -2.176,1.441 -1.231,0.38 -0.746,0.086 -1.342,0.144l-5.13 4.195c0.213,1.281 0.797,2.646 0.609,4.324 -2.073,-4.172 0.201,-3.341 -4.524,-3.044l0.263 -2.992c-2.029,0.732 -2.519,1.693 -1.351,2.94 2.222,2.374 -0.9,-2.085 0.499,0.505 -1.975,2.398 -1.574,0.8 -2.684,3.868 -3.137,-1.566 -2.196,0.947 -5.979,1.952 0.309,1.373 2.155,6.609 3.43,6.273l0.742 -0.455c3.156,0.012 -1.348,1.289 2.347,1.491l-1.737 2.229c3.334,-0.022 0.664,0.646 3.541,1.274l0.288 -1.23c0.377,-1.311 -0.438,0.095 0.625,-1.332 1.422,-1.909 2.455,-2.619 4.63,-0.858 2.888,2.337 0.295,0.276 3.653,1.244 1.456,0.419 3.26,1.77 4.153,2.916 -0.066,0.113 -0.201,0.132 -0.239,0.309 -0.36,1.721 -1.318,0.113 -0.809,3.447l-0.612 0.423c-0.058,0.043 -0.213,0.158 -0.283,0.21 -1.033,0.772 -0.322,0.707 -1.287,0.932l-0.248 -0.715c-0.004,-0.042 -0.004,-0.191 -0.007,-0.237l-0.698 -2.653c-0.043,-0.332 0.274,-0.452 -0.148,-1.652 -5.123,-0.884 -1.741,1.425 -5.361,1.764 -0.019,0.001 -0.981,0.08 -1.028,0.083 -1.793,0.127 -1.077,0.185 -3.037,-0.159 -0.094,6.097 22.45,28.505 26.935,32.241l9.604 7.264c0.595,0.455 0.383,0.245 0.787,0.705l0.684 1.008z"/>
   <path fill="#FF0009" d="M198.315 203.735l-0.007 19.513 1.058 0.584c0.355,0.178 0.719,0.264 1.166,0.518l-0.027 13.253c-0.427,-0.397 -0.928,-0.954 -2.02,-0.27 1.161,1.755 1.687,1.211 1.926,3.849 -2.765,-0.933 -2.112,-2.582 -4.018,-2.657 0.077,1.248 2.226,2.901 3.03,3.971 1.333,1.774 0.432,1.21 1.28,3.525 0.458,1.247 0.481,0.081 0.657,1.205 -1.039,0.821 -0.468,-0.538 -0.832,1.769 -0.088,0.56 -0.016,2.116 -0.015,2.733l12.711 -0.022c1.151,-1.679 8.355,-6.701 10.22,-8.192 3.056,-2.446 6.356,-5.504 9.327,-8.475 18.101,-18.107 33.313,-44.037 37.699,-70.273 -4.788,0.976 -6.851,2.909 -7.156,3.007 -1.381,0.445 1.015,0.783 -0.979,-0.329 -0.015,-0.009 -0.095,-0.098 -0.148,-0.08 -0.342,0.889 -0.88,2.719 -1.008,4.028 2.393,-0.569 1.036,-1.48 2.774,-0.262 -0.393,1.03 -1.055,1.291 -2.168,1.508 -2.412,-2.053 -1.308,-2.466 -3.928,-1.225 1.258,2.002 2.261,0.883 1.722,3.105 -0.03,-0.033 -1.584,-1.04 -2.152,-1.35 -1.955,-1.068 -0.808,-0.627 -3.144,-0.231 -0.366,0.681 0.422,0.704 -0.684,1.652l-2.129 1.733c-2.725,-1.289 -0.345,-1.594 -2.746,-0.929 -0.058,0.016 -0.2,0.049 -0.258,0.07 -0.488,0.173 -0.136,-0.14 -0.761,0.348 -0.271,0.21 -0.782,1.058 -1.041,1.423l0.543 1.053c0.426,0.871 0.242,-0.62 0.612,1.359 -1.676,-0.418 -1.369,-0.08 -2.084,-1.498 -1.175,1.753 -0.498,1.368 -2.471,1.125 1.067,1.913 0.176,1.496 -1.478,2.27 -1.56,0.73 -2.221,1.063 -4.13,1.104l0.139 2.533c-3.163,-0.901 -2.878,0.832 -5.133,1.21l-1.82 -0.079c-1.874,0.106 -1.129,0.448 -2.346,1.253 -1.185,-0.469 -2.116,-1.075 -3.282,-1.252 -2.478,4.223 -5.556,3.946 -7.046,5.502 -0.6,0.626 -0.746,1.13 -1.238,1.349 -0.001,0.001 -0.008,0.645 -1.755,-0.331 -1.05,-0.588 0.023,0.834 -0.6,-0.513 -0.816,-1.765 0.815,-0.628 1.41,-3.412 -2.564,0.449 -2.095,0.847 -2.256,1.216 -0.22,0.504 -0.147,2.152 -0.22,2.904 -1.981,-1.227 -0.759,-1.856 -2.532,-1.947 0.239,2.07 1.901,1.288 2.437,5.953 -1.986,-0.9 -0.169,-0.456 -2.266,-1.216 -1.662,1.928 -0.978,1.797 -3.521,1.597l0.536 1.727 -2.172 -1.714c-1.222,0.951 -1.292,0.366 -2.444,1.687 1.09,0.711 1.311,0.556 1.212,2.23 -0.483,-0.349 -1.243,-0.731 -1.838,-1.053 -0.336,2.614 -1.489,2.228 -2.43,2.51l-0.584 0.217c-1.688,0.685 0.659,0.296 -1.592,0.717z"/>
   <path fill="#FF0009" d="M115.38 3.857c-1.046,6.858 0.035,7.563 -4.007,12.855 -7.103,9.299 -22.243,15.282 -34.395,16.65 0.026,-2.586 -0.47,-2.788 4.496,-3.959 1.702,-0.402 5.297,1.131 4.787,-1.843 -0.202,-1.177 -1.632,-2.21 -3.086,-0.632l-0.392 0.574c-0.582,0.692 -0.1,0.293 -0.718,0.771 -0.411,0.319 -2.38,1.094 -2.947,1.306 -0.301,0.112 -0.978,0.4 -1.43,0.47 -4.153,0.642 1.836,-4.497 3.047,-5.522 2.922,-2.474 1.284,0.112 3.868,-0.867 1.569,-0.594 2.014,-2.455 1.162,-3.873 -0.779,-1.295 -2.649,-1.462 -3.689,-0.49 -2.427,2.271 1.761,1.283 -4.327,6.963 -1.395,1.301 -1.533,1.997 -3.422,1.991 -0.053,-2.156 0.576,-2.668 1.548,-4.79 1.531,-3.34 1.944,-0.464 3.121,-3.519 -0.742,-2.071 -1.003,-1.985 -3.302,-1.374 -0.162,1.47 0.09,1.76 0.021,2.818 -0.137,2.12 -0.068,0.912 -0.723,2.494 -0.911,2.199 -0.445,3.272 -3.094,3.276 -0.41,-0.72 -0.263,0.055 -0.325,-1.152 -0.041,-0.787 0.006,-0.799 0.206,-1.545 0.214,-0.801 0.667,-1.882 0.934,-2.76 0.442,-1.459 1.578,-4.117 1.061,-5.248 -1.703,1.103 -1.422,2.524 -2.157,5.06 -0.577,1.986 -0.936,3.837 -2.029,5.277 -2.542,-1.829 -1.747,-0.6 -1.226,-4.102 0.673,-4.522 -0.048,-2.038 2.19,-4.737 -3.538,0.245 -2.617,3.843 -3.385,6.581l-0.27 0.734c-0.03,0.085 -0.088,0.239 -0.156,0.345 -2.495,-0.77 -0.981,-1.973 -2.344,-4.268 -0.667,0.902 0.061,1.802 -0.01,3.284 0,0 1.171,-0.875 -0.459,1.665 -1.509,-0.738 -0.2,0.078 -1.393,-1.193l-1.688 -1.674c0.83,1.757 1.349,2.176 2.08,3.655l-1.306 1.285c-2.323,-0.852 -1.63,-2.334 -4.3,-3.021 0.675,1.652 0.511,1.063 1.695,2.403 0.638,0.722 1.32,1.619 0.692,2.307 -1.632,1.79 -3.646,-1.44 -5.271,-2.279 1.274,2.039 3.094,2.055 3.459,4.377 -1.374,0.672 -1.86,0.107 -3.655,-0.51 -0.596,-0.205 -1.291,-0.487 -1.948,-0.626 -0.96,-0.204 -0.291,-0.18 -1.069,-0.117 -1.367,0.111 -0.006,-0.363 -0.886,0.313 1.351,1.721 5.804,0.926 6.939,2.818 -0.529,1.335 0.691,0.567 -1.526,1.235 -3.82,1.152 -6.111,-0.976 -7.199,-0.829 -3.172,0.427 -0.712,6.732 2.248,1.555 4.632,-0.069 6.455,-1.429 6.969,1.795 -1.983,1.07 -11.289,2.746 -14.085,3.05 -4.632,0.505 -4.262,-0.582 -6.807,2.251 -1.326,1.476 -3.117,2.914 -3.863,4.842 3.38,-2.063 7.045,-3.832 11.391,-5.279 4.796,-1.597 8.875,-2.187 13.581,-3.521 0.462,3.324 -0.294,2.342 -2.41,3.462 -1.182,0.626 -0.453,-0.365 -0.919,0.829 1.019,0.141 0.732,-0.34 1.221,-0.554 2.172,-0.955 3.075,-0.346 6.517,-1.943l0.691 -0.32c-1.439,-2.911 1.952,2.52 -0.759,-0.721 -0.62,-0.742 -0.968,-1.686 -0.758,-2.973l0.344 -1.137c0.026,-0.08 0.077,-0.229 0.139,-0.33 1.842,1.208 1.296,2.656 2.345,4.134 1.427,-0.325 3.319,-0.591 5.157,-0.689l0.938 -1.86c1.587,0.466 3.475,0.32 5.115,-0.216 4.034,-1.32 0.013,-1.648 3.829,-2.708 3.346,-0.93 7.723,-1.365 10.792,-2.333 3.323,-1.048 6.622,-1.715 9.949,-2.648 1.621,-0.454 3.616,-0.915 5.138,-1.553 3.685,-1.543 1.919,-0.44 5.011,-0.725 1.836,-3.086 1.703,-1.494 2.669,-1.718 2.348,-0.545 0.133,-0.694 3.888,-0.635 2.329,0.036 4.907,-0.559 6.772,-1.701 0.074,-0.045 0.182,-0.138 0.254,-0.177 1.181,-0.64 2.878,-0.621 4.391,-1.093 0.064,-0.02 0.199,-0.066 0.258,-0.088l0.815 -0.463c1.646,-0.517 -0.575,0.753 1.601,-0.114l6.306 -2.042c1.571,-0.597 1.663,-0.495 2.257,-2.233 0.218,-0.638 0.143,-0.599 0.296,-1.185 0.696,-2.666 2.258,-3.589 5.407,-3.621l-0.03 2.177c-0.406,0.037 -1.297,0.096 -1.582,0.174 -0.13,0.036 -0.262,0.074 -0.391,0.117l-1.294 2.414c1.691,1.362 2.606,0.753 4.989,0.542 2.622,-0.231 3.125,-0.958 4.978,-1.129 1.177,-0.109 2.723,-1.229 4.477,-1.562 1.724,-0.326 4.339,-0.263 6.253,-0.454 -0.023,-2.93 -0.949,0.464 -1.029,-3.019 1.894,1.358 2.511,2.249 4.608,1.997 3.743,-0.451 1.594,-1.167 5.651,-1.844 -0.451,-3.283 -1.04,-1.012 -2.783,-2.981 3.232,-1.626 5.007,-0.959 5.957,-1.409 -1.13,-1.994 -11.415,-3.465 -13.995,-3.888 -4.881,-0.801 -10.298,-1.695 -15.552,-1.987 -5.726,-0.318 -11.158,-0.703 -16.878,-0.111 -2.619,0.271 -1.35,0.365 -3.117,0.944 -3.226,1.056 -6.404,1.048 -10.122,2.104z"/>
   <path fill="#FF0009" d="M143.848 135.273c2.485,0.679 30.494,0.507 34.481,0.189 0.793,-1.473 0.121,-1.449 0.768,-2.965 0.096,-0.035 0.687,-0.14 0.917,-0.144l5.39 0.46c-0.05,-2.267 0.778,-8.035 -0.737,-9.275 -0.113,-0.092 -0.558,-0.316 -0.681,-0.387l-0.832 -4.238 -39.192 -0.17 -0.114 16.53z"/>
   <path fill="#FF0009" d="M89.06 122.768c-0.105,0.09 -0.323,0.003 -0.393,0.193 -0.551,1.49 -0.113,-0.057 -0.752,0.382 -0.489,0.335 -1.093,-0.241 -1.06,3.136 0.02,2.127 0.052,4.2 0.004,6.333 3.369,-0.227 4.771,-0.826 6.311,-0.315 0.633,1.497 -0.015,1.502 0.765,2.963l34.613 0.084 -0.043 -16.693 -39.36 -0.1 -0.085 4.017z"/>
   <path fill="#FF0009" d="M135.034 148.352c-0.743,3.555 -1.865,15.258 -1.095,18.552l13.35 -1.172c6.128,-0.412 4.304,2.786 6.146,-18.89 -3.278,-0.519 -16.173,0.214 -18.401,1.51zm41.752 7.451c0.803,-1.411 0.582,-1.804 1.263,-0.466 0.697,1.37 -0.142,2.213 -0.289,3.192 2.252,-0.953 0.514,-0.631 2.913,-3.603 3.019,0.926 2.927,-0.311 3.281,2.274 -4.868,-2.363 -4.198,2.435 -4.199,2.417 -0.002,-0.054 0.018,0.184 -0.02,0.263 -7.54,-2.418 0.069,5.766 -5.495,3.211 0.463,2.393 0.983,1.265 0.074,2.923 -0.029,0.054 -0.113,0.17 -0.143,0.226l-0.231 0.499c-0.492,1.05 -0.006,0.735 -1.142,1.676l-1.503 0.987c-0.785,-0.909 -0.548,-0.623 -1.174,-1.823 -0.573,-1.098 0.06,-0.399 -0.773,-1.484 -1.199,0.399 0.025,-0.257 -0.479,0.676 -1.196,2.213 -0.862,0.291 -1.626,2.51l-2.301 -1.267c-0.274,0.958 -0.238,0.666 -0.341,2.044 -1.162,-1.838 -1.231,-0.28 -3.193,0.471 0.159,-2.713 0.052,-0.046 0.721,-2.64 -4.919,0.109 -0.606,0.229 -2.436,1.358 -0.462,0.285 -0.13,0.444 -0.623,-0.299 -0.537,-0.807 -0.355,-0.683 -0.598,-1.574 1.671,-2.062 -0.717,0.755 1.236,-0.887 1.735,-1.459 0.646,-1.15 1.273,-2.663 1.055,0.389 1.975,0.833 3.2,1.047 0.648,-1.185 0.224,-0.575 0.467,-1.622 0,-0.001 -0.424,-0.624 0.702,-1.346 1.186,-0.763 1.015,-0.408 1.618,-0.064 -0.582,-2.172 0.145,0.21 -1.353,-1.978 0.094,-0.049 0.252,-0.055 0.311,-0.066 3.771,-0.701 1.845,-1.023 4.227,-0.129 -0.366,-2.304 -0.244,-1.93 0.244,-2.65 0.48,1.078 0.623,1.8 1.837,2.274 1.937,-1.319 0.601,-0.484 0.634,-1.091 0.175,-3.132 0.045,-0.415 1.35,-3.034 0.701,0.64 1.117,0.901 2.235,1.374l0.333 -0.736zm-41.752 -7.451c2.228,-1.296 15.123,-2.029 18.401,-1.51 -1.842,21.676 -0.018,18.478 -6.146,18.89l-13.35 1.172c-0.77,-3.294 0.352,-14.997 1.095,-18.552zm50.354 61.027c-0.898,-0.376 -0.654,0.206 -0.964,-0.421 -0.486,1.14 0.486,0.696 -0.831,1.802 -1.299,1.091 -2.742,2.965 -4.18,3.263 -2.964,0.611 0.612,-0.162 -2.39,-0.476 -2.027,1.994 0.08,1.371 -3.21,2.098 -0.073,0.016 -0.242,0.03 -0.345,0.09 0.099,4.28 2.162,-0.234 2.164,4.413l-1.981 0.323c-0.597,-1.167 0.288,-0.6 -0.011,-1.956l-5.457 0.559c-0.83,-1.523 -0.309,-2.035 -2.045,-2.731 -0.455,1.09 0.588,1.474 0.701,3.421l-2.734 0.498c0.155,-2.102 0.201,-1.395 0.639,-2.972l-1.773 0.748c0.116,2.342 0.196,1.032 0.635,2.1 0.621,1.505 0.507,0.768 0.618,2.694 -3.623,0.232 -3.726,1.268 -5.37,-1.932 0.539,-0.179 1.012,-0.131 1.242,-0.217l1.15 -0.585c0.113,-0.062 0.287,-0.15 0.4,-0.262 -1.856,-0.547 -3.865,-0.292 -5.182,1.244 -0.407,0.474 0.496,3.175 -1.578,3.881 -1.793,-2.679 2.12,-0.831 -1.018,-3.592 1.773,-1.655 2.359,-0.383 1.227,-2.65 0.357,0.005 1.315,0.189 1.35,0.187 1.654,-0.052 3.556,-1.435 4.644,-2.361l2.903 -2.435c2.889,-3.372 3.946,-2.196 4.738,-2.348 1.396,-0.268 1.239,-0.606 2.373,-1.892 0.969,-1.1 1.126,-1.048 1.549,-2.777 3.579,0.375 -0.491,0.39 2.774,0.768l0.558 -2.493c3.081,1.678 3.578,-0.681 5.626,-2.328 0.75,0.472 0.18,0.265 0.71,0.686 0.95,0.756 -0.11,0.413 1.166,0.763 3.148,-2.402 -0.396,-0.891 0.093,-3.229 0.278,-1.331 0.944,-0.975 1.809,-1.194l-0.014 -54.639 -98.352 -0.004 -0.18 76.475c0.174,3.146 1.839,1.691 2.161,3.227l-0.022 23.042c-0.033,1.924 -0.435,3.028 0.875,3.456 0.504,0.164 8.044,0.038 9.236,0.038l82.958 0.024c1.691,-0.291 1.272,-0.857 1.245,-3.034l-0.035 -23.526c0.719,-1.648 -1.269,1.003 0.546,-0.569 0.08,-0.069 0.471,-0.374 0.573,-0.466 0.897,-0.809 0.4,1.136 0.973,-1.336l0.036 -13.375z"/>
   <path fill="#FDFAF9" d="M185.388 209.379l0 -9.313c-0.865,0.219 -1.531,-0.137 -1.809,1.194 -0.489,2.338 3.055,0.827 -0.093,3.229 -1.276,-0.35 -0.216,-0.007 -1.166,-0.763 -0.53,-0.421 0.04,-0.214 -0.71,-0.686 -2.048,1.647 -2.545,4.006 -5.626,2.328l-0.558 2.493c-3.265,-0.378 0.805,-0.393 -2.774,-0.768 -0.423,1.729 -0.58,1.677 -1.549,2.777 -1.134,1.286 -0.977,1.624 -2.373,1.892 -0.792,0.152 -1.849,-1.024 -4.738,2.348l-2.903 2.435c-1.088,0.926 -2.99,2.309 -4.644,2.361 -0.035,0.002 -0.993,-0.182 -1.35,-0.187 1.132,2.267 0.546,0.995 -1.227,2.65 3.138,2.761 -0.775,0.913 1.018,3.592 2.074,-0.706 1.171,-3.407 1.578,-3.881 1.317,-1.536 3.326,-1.791 5.182,-1.244 -0.113,0.112 -0.287,0.2 -0.4,0.262l-1.15 0.585c-0.23,0.086 -0.703,0.038 -1.242,0.217 1.644,3.2 1.747,2.164 5.37,1.932 -0.111,-1.926 0.003,-1.189 -0.618,-2.694 -0.439,-1.068 -0.519,0.242 -0.635,-2.1l1.773 -0.748c-0.438,1.577 -0.484,0.87 -0.639,2.972l2.734 -0.498c-0.113,-1.947 -1.156,-2.331 -0.701,-3.421 1.736,0.696 1.215,1.208 2.045,2.731l5.457 -0.559c0.299,1.356 -0.586,0.789 0.011,1.956l1.981 -0.323c-0.002,-4.647 -2.065,-0.133 -2.164,-4.413 0.103,-0.06 0.272,-0.074 0.345,-0.09 3.29,-0.727 1.183,-0.104 3.21,-2.098 3.002,0.314 -0.574,1.087 2.39,0.476 1.438,-0.298 2.881,-2.172 4.18,-3.263 1.317,-1.106 0.345,-0.662 0.831,-1.802 0.31,0.627 0.066,0.045 0.964,0.421z"/>
   <path fill="#FEF5F5" d="M176.453 156.539c-1.118,-0.473 -1.534,-0.734 -2.235,-1.374 -1.305,2.619 -1.175,-0.098 -1.35,3.034 -0.033,0.607 1.303,-0.228 -0.634,1.091 -1.214,-0.474 -1.357,-1.196 -1.837,-2.274 -0.488,0.72 -0.61,0.346 -0.244,2.65 -2.382,-0.894 -0.456,-0.572 -4.227,0.129 -0.059,0.011 -0.217,0.017 -0.311,0.066 1.498,2.188 0.771,-0.194 1.353,1.978 -0.603,-0.344 -0.432,-0.699 -1.618,0.064 -1.126,0.722 -0.702,1.345 -0.702,1.346 -0.243,1.047 0.181,0.437 -0.467,1.622 -1.225,-0.214 -2.145,-0.658 -3.2,-1.047 -0.627,1.513 0.462,1.204 -1.273,2.663 -1.953,1.642 0.435,-1.175 -1.236,0.887 0.243,0.891 0.061,0.767 0.598,1.574 0.493,0.743 0.161,0.584 0.623,0.299 1.83,-1.129 -2.483,-1.249 2.436,-1.358 -0.669,2.594 -0.562,-0.073 -0.721,2.64 1.962,-0.751 2.031,-2.309 3.193,-0.471 0.103,-1.378 0.067,-1.086 0.341,-2.044l2.301 1.267c0.764,-2.219 0.43,-0.297 1.626,-2.51 0.504,-0.933 -0.72,-0.277 0.479,-0.676 0.833,1.085 0.2,0.386 0.773,1.484 0.626,1.2 0.389,0.914 1.174,1.823l1.503 -0.987c1.136,-0.941 0.65,-0.626 1.142,-1.676l0.231 -0.499c0.03,-0.056 0.114,-0.172 0.143,-0.226 0.909,-1.658 0.389,-0.53 -0.074,-2.923 5.564,2.555 -2.045,-5.629 5.495,-3.211 0.038,-0.079 0.018,-0.317 0.02,-0.263 0.001,0.018 -0.669,-4.78 4.199,-2.417 -0.354,-2.585 -0.262,-1.348 -3.281,-2.274 -2.399,2.972 -0.661,2.65 -2.913,3.603 0.147,-0.979 0.986,-1.822 0.289,-3.192 -0.681,-1.338 -0.46,-0.945 -1.263,0.466l-0.333 0.736z"/>
   <path fill="#FDF3F2" d="M74.119 187.041l-0.041 -2.001 -1.222 -0.981c-2.406,1.131 -0.882,0.678 -3.946,0.588 -1.089,4.782 -3.935,1.899 -4.047,4.76 -0.16,4.072 -0.722,0.973 -0.224,3.522 3.2,0.464 0.185,-0.273 1.37,-0.513 0.803,-0.163 -0.402,-0.029 1.134,0.578l-0.775 -2.763c2.996,-0.065 2.414,-1.114 5.518,-0.799 -0.353,-1.483 -0.591,-0.979 0.012,-2.333l2.221 -0.058z"/>
   <path fill="#FAEFF0" d="M56.972 191.613l1.977 1.659c-3.897,0.233 0.778,0.38 -3.083,1.049 -2.549,0.442 -0.645,4.328 3.092,1.434 5.614,-4.349 4.217,-0.274 4.838,-3.966l-1.956 -0.471c-2.259,-0.071 -2.657,-0.777 -3.997,-3.316 -0.859,2.027 0.417,0.126 -0.563,2.739 -0.127,0.34 -0.18,-0.137 -0.308,0.872z"/>
   <path fill="#FF0009" d="M228.255 81.072c0.601,1.45 0.157,0.543 0.747,1.202 1.604,1.789 1.632,2.076 2.776,2.469 0.868,-0.984 0.539,1.164 0.63,-1.421 0.054,-1.498 0.078,-0.058 -0.377,-1.305 1.601,0.372 0.564,0.435 2.484,0.37l2.302 -4.913c-2.001,0.124 -2.145,-0.022 -3.257,1.407 -1.035,-1.583 0.18,-0.615 -1.313,-1.239 -1.921,3.173 0.447,-0.132 -3.992,3.43z"/>
  </g>
 </g>
</svg>
