<?xml version="1.0" encoding="UTF-8"?>
<!DOCTYPE svg PUBLIC "-//W3C//DTD SVG 1.1//EN" "http://www.w3.org/Graphics/SVG/1.1/DTD/svg11.dtd">
<!-- Creator: CorelDRAW 2021 (64-Bit) -->
<svg xmlns="http://www.w3.org/2000/svg" xml:space="preserve" width="1000px" height="335px" version="1.1" shape-rendering="geometricPrecision" text-rendering="geometricPrecision" image-rendering="optimizeQuality" fill-rule="evenodd" clip-rule="evenodd"
viewBox="0 0 1000 335"
 xmlns:xlink="http://www.w3.org/1999/xlink"
 xmlns:xodm="http://www.corel.com/coreldraw/odm/2003">
 <g id="Capa_x0020_1">
  <metadata id="CorelCorpID_0Corel-Layer"/>
  <ellipse fill="#FEFEFE" cx="491.401" cy="137.733" rx="137.046" ry="136.718"/>
  <path fill="black" d="M540.804 200.322l0 9.324 -0.036 13.392c-0.573,2.476 -0.076,0.528 -0.974,1.338 -0.102,0.092 -0.494,0.398 -0.574,0.467 -1.817,1.574 0.173,-1.08 -0.547,0.57l0.035 23.555c0.028,2.181 0.447,2.747 -1.247,3.039l-83.063 -0.024c-1.194,-0.001 -8.743,0.125 -9.248,-0.039 -1.312,-0.428 -0.91,-1.534 -0.876,-3.46l0.022 -23.071c-0.322,-1.538 -1.989,-0.082 -2.164,-3.231l0.181 -76.573 98.477 0.003 0.014 54.71zm-41.479 -81.427l39.242 0.17 0.833 4.244c0.123,0.07 0.569,0.294 0.682,0.387 1.517,1.241 0.688,7.016 0.738,9.287l-5.397 -0.461c-0.23,0.004 -0.822,0.109 -0.919,0.144 -0.647,1.519 0.026,1.494 -0.769,2.969 -3.991,0.318 -32.036,0.49 -34.524,-0.189l0.114 -16.551zm-54.887 0.008l39.41 0.1 0.043 16.715 -34.657 -0.085c-0.781,-1.462 -0.133,-1.468 -0.766,-2.967 -1.542,-0.511 -2.946,0.088 -6.319,0.315 0.048,-2.135 0.016,-4.211 -0.004,-6.34 -0.033,-3.381 0.571,-2.805 1.061,-3.141 0.64,-0.439 0.201,1.11 0.753,-0.382 0.07,-0.19 0.288,-0.103 0.393,-0.193l0.086 -4.022zm-43.866 -1.431c0.515,1.355 0.638,1.513 1.574,2.26 1.707,-0.54 -1.143,-0.812 5.773,-0.836 2.398,-0.009 4.786,0.017 7.178,0.035 14.112,-0.299 12.036,-0.741 12.001,3.994l2.277 0.94 0.04 9.074 -6.694 -0.472 0.002 3.265 -21.905 0.066 -0.067 9.801 28.639 0.1 -0.038 39.577 0.041 2.003 -0.104 36.724c-2.053,0.892 -1.36,-0.706 -2.065,1.41 0.016,4.837 0.605,23.188 -0.26,26.556l-12.846 0.014 -26.853 -0.023c-4.007,0.055 -5.138,-0.613 -7.59,1.549 -0.621,4.304 1.437,5.469 5.213,5.462 3.554,-0.006 7.257,0.08 10.828,0.127 -1.373,4.127 -0.505,6.344 4.213,7.726 3.221,0.944 7.903,1.972 11.47,2.076l-0.721 1.039c-1.239,1.895 -0.983,2.014 -0.878,4.151 4.382,3.391 3.083,0.783 6.897,2.097 -0.611,1.569 0.348,1.029 -5.958,0.995 -16.659,-0.088 -34.07,-0.204 -50.702,0.286 -1.213,1.988 -2.962,3.293 -0.43,5.758l6.508 1.079c1.427,0.012 7.733,-0.368 8.457,0.42 0.622,1.219 -3.174,5.414 5.465,7.662 10.831,2.819 29.921,3.788 41.088,4.196l-4.087 1.823c-0.73,4.949 3.589,3.723 6.254,4.272 3.6,0.742 6.859,0.817 10.919,0.916 7.538,0.183 14.757,0.614 22.354,1.038 -4.518,0.178 -32.583,2.602 -33.944,6.345 0.177,4.163 4.108,4.282 8.232,4.81l24.499 1.919c4.109,0.317 7.956,1.134 12.407,1.358l-0.644 0.437c-1.937,0.912 -5.837,0.749 -8.004,0.788l-19.737 0.172c-3.167,0.01 -6.647,-0.633 -7.582,2.378 -1.256,4.045 2.005,4.47 5.13,4.832 10.425,1.208 16.221,2.012 27.723,1.498 -0.592,4.752 0.154,6.812 7.553,5.886 4.197,-0.526 8.361,-2.007 11.775,-2.54 3.133,4.286 5.989,2.984 12.675,2.003 11.343,-1.664 7.153,-4.267 12.653,-4.492 3.949,-0.162 28,-0.03 27.934,-5.416 -0.045,-3.627 -12.601,-5.906 -14.858,-6.581l2.815 -0.796c3.819,-0.427 10.778,-0.972 13.981,-2.179 2.3,-0.867 2.362,-1.713 4.182,-2.384 3.732,-1.375 17.755,-2.252 12.502,-11.911 7.016,-1.158 25.834,-0.838 29.972,-2.548 1.946,-0.804 2.981,-2.908 1.607,-5.323 -1.154,-2.028 -0.938,-0.33 -0.689,-1.251 4.765,-2.178 23.209,1.689 30.708,-3.048l0.04 -2.694c-3.918,-3.009 -10.156,-2.094 -16.158,-2.094 -6.131,0.001 -12.266,-0.015 -18.397,-0.024l-0.016 -6.753c13.732,-0.824 16.467,-1.23 30.996,-0.997 0.547,-2.115 0.587,-5.065 -0.022,-7.156l-4.995 -0.072 -0.831 -2.418c3.516,-0.833 12.21,0.651 14.705,-0.711 1.966,-1.075 2.263,-3.701 1.012,-5.367 -1.331,-1.773 -4.246,-1.291 -6.488,-1.288 -10.569,0.016 -21.138,-0.01 -31.706,0.013 0.083,-0.119 0.229,-0.421 0.277,-0.336 0.054,0.092 2.595,-2.399 1.255,-5.071 -2.02,-2.432 -4.11,-1.658 -7.854,-1.655 -3.531,0.004 -7.07,-0.07 -10.597,0.062l-12.728 0.021c-0.001,-0.617 -0.073,-2.175 0.015,-2.736 0.364,-2.309 -0.207,-0.949 0.833,-1.771 -0.176,-1.125 -0.199,0.041 -0.657,-1.207 -0.85,-2.318 0.052,-1.753 -1.283,-3.529 -0.804,-1.071 -2.956,-2.727 -3.033,-3.976 1.908,0.075 1.254,1.726 4.023,2.66 -0.239,-2.642 -0.766,-2.096 -1.929,-3.854 1.094,-0.684 1.596,-0.127 2.023,0.271l0.027 -13.27c-0.448,-0.254 -0.812,-0.34 -1.167,-0.519l-1.059 -0.585 0.006 -19.537c-0.401,-3.608 -0.267,-9.836 0.221,-13.274 -0.845,-1.931 -0.548,-39.78 -0.254,-45.094l28.497 -0.102 -0.143 -9.79 -21.688 0.024 -0.072 -3.414 -6.672 0.37 0.098 -8.85 2.133 -0.941c-0.031,-5.031 -1.842,-4.032 10.73,-4.032 4.586,0 10.631,0.332 15.023,-0.12 1.102,-1.621 1.361,-4.303 1.829,-6.284 1.031,-4.363 1.665,-1.58 4.45,-2.987 1.768,-0.893 3.827,-8.292 4.247,-11.246 -4.016,0.715 -7.379,1.712 -11.725,2.451 -26.562,4.521 -62.056,3.319 -88.936,3.319 -21.09,0 -57.601,0.802 -78.028,-1.784l-22.519 -3.88c0.429,2.977 2.138,9.277 3.591,10.723 1.432,1.427 1.06,0.41 3.027,0.753 1.96,0.342 1.123,-0.402 1.809,1.501 0.392,1.089 1.049,4.865 1.207,6.133z"/>
  <path fill="#F883C9" d="M426.56 54.708c-0.241,2.015 -1.574,1.309 -1.081,3.645 0.854,4.049 7.497,0.961 3.91,-2.509 -0.833,-0.806 -0.091,0.041 -0.833,-0.639l-0.51 -0.481c-1.108,-1.373 -1.835,-6.141 -2.079,-8.223 2.037,-0.41 0.527,-0.427 2.21,0.403 -0.089,-1.393 0.102,-1.863 0.626,-2.725 1.134,0.109 1.233,0.397 2.483,1.728 4.863,5.175 10.294,11.9 13.337,18.165 4.351,8.962 6.024,20.605 -1.492,26.898 -1.92,-1.017 -3.366,-3.168 -4.96,-4.922l-4.703 -4.859c-0.048,-0.168 -0.202,-0.159 -0.356,-0.256l-3.872 13.028c-5.036,0.12 -8.435,-4.914 -10.34,-7.907 -5.867,-9.213 -2.479,-28.263 1.055,-38.141 0.404,-1.128 1.139,-1.779 1.858,-1.453 1.382,0.995 0.572,-0.705 0.814,1.715 0.087,0.87 -0.483,4.105 -1.186,5.063 -0.682,0.929 -2.122,1.019 -1.192,2.686 0.788,1.411 1.553,0.964 2.891,0.455 0.724,-3.26 -1.833,-1.801 0.007,-7.843 0.521,-1.709 0.696,-1.374 1.205,-1.686 0.907,0.8 2.37,6.506 2.208,7.858zm-25.988 62.764c-0.158,-1.268 -0.815,-5.044 -1.207,-6.133 -0.686,-1.903 0.151,-1.159 -1.809,-1.501 -1.967,-0.343 -1.595,0.674 -3.027,-0.753 -1.453,-1.446 -3.162,-7.746 -3.591,-10.723l22.519 3.88c20.427,2.586 56.938,1.784 78.028,1.784 26.88,0 62.374,1.202 88.936,-3.319 4.346,-0.739 7.709,-1.736 11.725,-2.451 -0.42,2.954 -2.479,10.353 -4.247,11.246 -2.785,1.407 -3.419,-1.376 -4.45,2.987 -0.468,1.981 -0.727,4.663 -1.829,6.284 -4.392,0.452 -10.437,0.12 -15.023,0.12 -12.572,0 -10.761,-0.999 -10.73,4.032l-2.133 0.941 -0.098 8.85 6.672 -0.37 0.072 3.414 21.688 -0.024 0.143 9.79 -28.497 0.102c-0.294,5.314 -0.591,43.163 0.254,45.094l-0.09 -1.978c1.641,-0.965 2.186,-1.485 3.224,-2.938 0.768,0.451 1.376,0.862 2.453,1.279l0.063 -0.594c0.015,-1.372 0.059,1.653 -0.004,-0.547l-0.059 -0.899c3.584,1.596 4.556,4.713 6.359,2.288 -0.627,-1.308 -0.176,-0.192 -1.736,-1.41 0.316,-4.549 -0.06,-0.303 -0.86,-3.861l4.11 0.141c-0.802,-1.331 -1.445,-1.123 -0.831,-2.164 1.066,0.993 2.078,2.018 3.153,1.652 0.484,-1.226 0.191,-0.077 -0.085,-0.811 -0.54,-1.435 -0.103,1.218 -0.458,-0.83l2.521 -0.95 0.217 -2.32 1.856 1.184c0.361,-5.373 -1.276,-3.553 5.46,-3.811 -0.614,-1.328 -0.749,-1.718 -1.586,-2.805l1.519 -1.01c0.698,1.777 -0.008,0.513 0.055,1.061 0.168,1.478 -0.594,0.4 0.493,0.984l0.939 -2.687c1.187,0.266 0.421,0.097 1.416,1.555 0.074,0.109 0.152,0.295 0.259,0.42 1.093,-1.693 1.846,-1.535 4.256,-1.556l-0.487 -2.506c2.052,0.111 2.804,0.383 4.283,-1.086 2.381,-2.364 1.169,-2.59 2.009,-3.905l1.821 1.22c0.107,-0.148 0.14,-0.375 0.153,-0.314l0.34 -0.639c0.905,-1.098 2.898,-1.856 4.728,-2.046l2.063 -2.476c1.595,-1.406 0.921,-2.922 1.263,-5.089 3.325,1.07 3.385,2.186 4.655,0.246 1.439,2.288 0.692,1.443 2.354,-0.968 1.927,-2.795 1.28,-1.393 0.429,-4.24 1.373,-0.936 0.987,-0.341 2.344,-0.94 -0.415,-1.26 0.373,-2.85 0.656,-3.185 0.948,0.946 1.276,2.209 1.63,3.373l1.037 -1.97c4.418,-0.026 -0.436,2.036 6.394,-3.58 2.182,-1.793 4.426,-3.529 6.419,-4.859l-0.605 -11.861c-3.386,0.072 -3.558,1.621 -5.199,3.148 -0.53,0.493 0.046,-0.558 -0.522,0.63 -0.006,0.014 -0.208,1.137 -0.223,1.21l-1.414 -3.132 -0.751 1.709c-0.759,1.308 0.11,0.758 -1.283,1.132 -0.481,-0.747 -0.195,-0.443 -0.095,-1.536l0.175 -1.198c-1.486,0.794 -1.308,0.802 -2.427,2.096 -2.292,-0.538 0.2,-0.998 -2.08,-0.409 -1.22,0.316 -0.454,0.82 -2.468,0.941l1.046 -2.514c1.56,-0.109 0.995,0.016 2.442,0.236 -0.146,-1.215 -0.325,-1.339 -0.629,-2.578 0.132,0.073 0.31,0.048 0.385,0.24 0.25,0.643 1.505,0.863 2.228,0.991 -0.705,-0.73 -0.794,-0.779 -1.23,-2.11 2.103,-0.039 3.916,-0.348 5.565,-1.558 1.655,-1.215 -0.142,-0.669 1.97,-1.178l1.152 2.32c1.764,-0.117 2.171,-0.579 3.067,0.289 0.385,-3.588 -1.428,-1.239 -3.66,-1.812 4.093,-3.475 3.982,-2.999 0.594,-17.218 -0.726,-3.048 -1.529,-5.543 -2.347,-8.348 -0.457,-1.571 -4.177,-7.262 -4.078,-2.394 1.746,0.447 -0.241,-1.749 1.18,0.019 1.359,1.692 -0.448,1.601 -0.783,1.802 -3.455,2.062 -2.471,-0.28 -1.18,2.651 -1.53,0.038 -1.829,-0.679 -3.28,-0.845l-0.643 -0.047c-1.169,-0.412 -0.869,-1.693 -1.233,-2.881 -0.445,0.235 -1.457,0.796 -1.798,1.012 -0.861,0.547 -0.852,0.029 -1.163,1.239l0.016 0.751c-0.001,0.094 0.03,0.279 0.075,0.411l0.646 -0.109c0.159,-0.04 0.826,-0.257 0.939,-0.275 2.222,-0.364 1.776,2.13 -1.336,1.558l0.404 2.601c-1.109,-0.727 -2.233,-1.585 -4.1,-0.897 -2.144,0.79 -0.525,0.359 -0.645,3.872 -1.331,0.105 -2.204,-0.235 -2.667,-0.188l-2.35 0.999c-0.942,-1.001 -1.545,-1.547 -2.319,-2.584 4.739,-0.431 0.817,1.505 3.382,0.833 0.86,-1.529 -1.175,-2.844 1.668,-4.736 1.445,-0.961 1.158,-1.267 2.916,-1.895 3.953,-1.411 2.776,-4.161 7.709,-4.49 0.472,-2.069 0.503,-1.161 1.138,-2.653 1.419,0.345 0.496,0.335 1.26,0.79 0.947,0.565 -1.209,0.268 1.218,0.624 -0.576,-2.832 -0.818,0.378 -0.354,-2.544l1.805 -0.659c0.133,-1.25 -2.489,-9.922 -4.34,-9.99 -0.894,-0.032 -1.302,0.589 -1.805,1.055 -0.081,0.076 -0.167,0.184 -0.246,0.262 -1.303,1.272 -4.454,4.462 -5.987,5.179 -0.464,0.218 -0.724,-0.012 -1.649,0.436 -1.387,0.673 -2.017,2.134 -2.577,3.528l2.053 2.219c-0.945,0.744 -3.323,0.398 -4.811,0.525l-2.926 -6.607c-0.553,0.754 -1.013,1.466 -1.769,2.191 -0.624,-1.105 1.725,-3.573 2.707,-5.19 0.054,-0.089 0.138,-0.247 0.226,-0.357 0.641,3.764 1.248,2.267 2.176,1.488 0.032,2.096 0.611,2.509 2.331,2.756 0.575,-2.088 0.032,-0.471 -0.018,-1.31 -0.065,-1.097 -0.08,-0.605 0.362,-1.641 0.199,-0.467 0.578,-0.53 0.509,-1.652l-0.633 -1.507c-0.036,-0.068 -0.15,-0.199 -0.18,-0.317 1.561,-1.753 0.122,-0.102 1.189,-0.845 1.279,-0.889 0.778,1.064 1.089,-1.118 0.249,-1.745 -1.648,-1.423 -1.85,-1.358 -2.804,0.892 -2.928,1.706 -4.181,4.132 -1.362,-0.576 -0.35,0.116 -1.225,-1.224 -0.139,3.195 -1.023,3.152 -4.135,2.991l0.496 2.804c-1.464,-0.995 -1.085,-1.131 -2.618,-1.658 -0.118,0.225 -0.531,0.935 -0.706,1.186 -1.743,2.497 -1.378,3.045 -1.236,3.761l0.227 0.731c-0.95,0.527 -0.528,0.226 -1.069,0.48 -0.861,0.405 -0.146,-0.044 -0.922,0.46l1.107 2.262c-3.66,-0.808 -1.98,-4.966 -6.264,-6.41 -0.523,0.8 0.144,1.64 -0.376,2.521 -0.836,1.415 -1.031,0.32 -2.811,0.217 -1.166,1.363 -1.136,2.776 -2.504,3.154 -0.823,-1.604 -0.795,-2.589 -0.011,-3.966 0.223,2.202 -0.492,0.69 1.222,1.372 0.828,-1.347 2.13,-2.083 2.669,-4.278 -2.56,0.88 -0.734,1.518 -3.383,1.813 0.341,-0.491 1.118,-1.37 0.421,-2.383l-2.701 3.566c-0.017,0.059 -0.037,0.223 -0.094,0.318 -1.291,-0.435 -1.519,-0.713 -2.812,-1.323l0.473 2.663c-0.561,0.404 -0.629,0.353 -0.863,0.527 -1.031,0.768 -3.186,2.633 -3.412,3.718 -0.096,0.462 1.088,2.301 -2.775,2.271 -0.766,-1.328 -0.786,-2.953 -2.69,-2.496 -1.139,0.273 -1.934,2.101 -3.764,0.297 0.093,0.968 0.446,2.194 1.708,2.581 0.85,0.26 -0.013,-0.546 1.28,0.158 -0.701,2.14 -0.396,0.777 -1.539,1.172 -1.262,0.436 -0.171,-0.465 -0.96,0.499 -0.454,0.554 0.099,-0.234 -0.328,0.608l-0.28 0.769c-1.101,-0.383 -0.84,-0.386 -1.914,-0.502 -3.444,-0.372 -3.154,0.895 -4.76,1.153 0.152,-2.445 0.258,-1.304 0.901,-2.409 0.469,-0.808 0.372,-0.138 0.576,-1.316 0.043,-0.247 0.016,-1.715 0.015,-2.021 1.755,0.624 1.448,0.808 2.147,-1.565l-3.034 0.917c-0.916,0.436 0.469,0.085 -0.772,0.536 0.278,-4.207 4.467,-0.111 5.015,-3.929 0.335,-2.328 -0.492,-1.202 1.33,-3.788 0.406,-0.577 1.535,-2.903 1.759,-4.02 1.758,0.496 0.847,0.407 2.58,0.88 -0.397,-0.898 -1.627,-2.968 0.371,-3.378 2.963,-0.609 -0.952,0.611 1.889,1.649 1.66,-0.967 0.857,-1.988 0.112,-3.203l4.419 -2.786c1.054,-1.042 0.123,-0.216 0.816,-1.116 0.88,-1.145 0.135,-0.59 1.287,-1.164 1.513,-0.755 1.035,0.089 2.755,-1.396 0.08,0.091 0.158,0.142 0.186,0.312l0.889 1.527c1.094,1.307 0.355,1.073 1.481,0.572 1.411,-0.628 0.02,-0.787 -0.214,-0.993 -1.07,-0.943 -0.463,0.662 -1.555,-1.59l3.297 -1.745c-0.073,-0.229 -0.374,-1.018 -0.392,-1.12 -0.157,-0.887 -0.24,-0.488 0.064,-0.91l1.817 2.107c0.666,0.766 0.562,1.368 1.469,1.782 0.04,-0.083 0.054,-0.327 0.057,-0.271l0.065 -1.24c0.04,-1.257 -0.195,-0.619 0.223,-1.841 0.669,-1.958 1.181,-1.168 1.584,-3.439 -3.899,1.46 -2.198,-0.108 -5.057,0.706 -0.675,0.192 -1.19,0.766 -1.442,1.014 -0.594,-0.837 0.01,-2.301 -0.72,-3.302l-1.466 2.975 -1.584 -0.909c-0.744,-0.363 -0.972,-0.371 -1.519,-0.724l-1.578 2.102c-0.922,0.664 -2.284,0.532 -3.514,0.528 0.791,4.338 1.249,1.055 3.366,2.072 -0.058,0.483 0.038,1.255 -2.892,1.184 -0.13,-0.003 -0.523,-0.035 -0.634,-0.045l-1.645 -2.847 -3.311 -0.074 0.045 1.792c0.217,0.017 0.354,-0.127 0.382,-0.051 0.491,1.325 -0.052,-0.596 1.36,-0.231 1.063,0.275 0.017,-0.73 0.7,0.5 0.718,1.294 0.286,0.46 0.332,1.879 -2.03,0.611 -0.955,-0.284 -2.229,0.06 -0.035,0.009 -0.793,0.374 -0.847,0.395 -1.639,0.631 -2.366,-1.304 -6.168,1.97 -1.817,1.565 -0.117,0.51 -2.987,1.025 -0.561,-1.624 -1.491,-3.234 -0.566,-5.128l0.578 0.424c0.705,0.421 0.269,0.297 0.979,0.553 1.08,0.39 1.532,0.231 2.843,0.27 -0.505,-1.106 -0.283,-0.725 -1.006,-1.81 -0.812,-1.217 -0.201,0.216 -0.91,-1.276 0.765,-0.838 1.165,-0.949 1.529,-2.619 2.754,-0.289 1.823,0.537 3.219,-1.142 -0.356,-0.883 -0.562,-0.759 -1.998,-1.411 0.927,-2.443 2.386,-1.534 4.08,-2.863 1.107,-0.869 -0.539,-0.297 1.659,-1.085 -0.346,-2.896 -1.133,-1.418 -0.193,-3.109 1.621,1.111 -0.476,-0.18 0.789,1.039 1.047,1.009 -0.564,0.496 1.296,0.918 -0.765,0.381 -1.054,0.208 -1.387,1.396 -0.282,1.009 0.279,1.896 0.728,2.373 1.269,-0.984 0.802,-0.441 0.664,-2.536l0.988 0.648c0.818,0.259 0.319,0.337 0.96,-0.072l-0.813 -1.375c-0.047,-0.088 -0.119,-0.231 -0.162,-0.313 -0.045,-0.085 -0.124,-0.257 -0.16,-0.328 -0.036,-0.072 -0.118,-0.218 -0.159,-0.335 4.369,-2.945 9.336,-4.658 13.63,-7.608 1.922,-1.321 0.434,-0.687 2.181,-0.626 0.685,0.023 0.747,0.223 1.41,0.003 2.137,-0.711 -1.514,1.136 1.021,-0.646 0.092,-0.065 0.217,-0.208 0.333,-0.304l0.692 2.944c1.497,-0.394 1.874,-1.289 1.766,-3.125l2.687 -0.181c-1.763,-2.346 0.76,-3.675 1.71,-5.03 -1.208,-3.994 -11.707,-10.401 -14.411,-13.759 -1.805,0.376 -0.432,0.795 -1.977,0.357 -3.712,-1.05 2.333,-0.506 -0.928,-0.324 -0.045,0.002 -0.759,0.42 -0.822,0.472 -0.116,-3.344 0.479,-1.435 -1.957,-2.261l0.714 -1.679 -5.269 -3.268c-0.091,-0.047 -0.215,-0.112 -0.303,-0.16 -0.084,-0.046 -0.205,-0.116 -0.286,-0.162 -0.077,-0.044 -0.199,-0.121 -0.271,-0.163 -0.652,-0.386 0.176,-0.138 -0.769,-0.479 -1.408,2.157 -0.119,0.335 0.211,2.341 -3.565,0.214 0.647,-3.582 -4.296,1.393 -0.647,0.651 -0.173,0.195 -0.819,0.63 -0.117,0.079 -0.512,0.259 -0.622,0.337 -0.08,0.056 -0.214,0.121 -0.285,0.181 -2.004,1.673 -0.04,0.572 -0.874,1.705 -1.685,2.288 -3.564,-2.12 -4.252,-3.162l3.415 -2.951 0.95 2.219c1.116,-0.319 1.593,-1.031 2.353,-1.899 0.086,-0.099 0.208,-0.247 0.31,-0.373 -2.177,-1.114 -0.989,-0.402 -1.207,-1.562 0.48,-0.007 0.706,1.984 1.706,-0.94 -0.928,-1.288 -13.197,-7.463 -15.368,-7.895l-3.286 2.635c-4.823,-0.106 -1.993,1.216 -4.695,2.484 -1.708,-1.063 -0.781,-0.538 -1.408,-2.373 -1.402,0.505 -2.658,0.777 -3.894,1.858l1.022 2.146 -2.676 1.599c-0.754,-1.51 0.848,-1.315 -0.807,-2.536 -1.379,-1.018 -0.413,-1.075 -2.095,-2.072l-1.792 1.28c0.126,0.127 0.314,0.044 0.353,0.168 0.273,0.843 1.856,-0.416 1.168,1.346 -0.403,0.125 -0.123,0.16 -0.926,0.03 -0.001,0 -0.988,-0.309 -1.62,-0.446l-0.131 1.031c-0.161,0.829 0.061,0.584 -0.338,1.268 -0.091,-0.09 -0.206,-0.376 -0.245,-0.294 -0.246,0.51 -0.633,-0.884 -1.163,-1.304l-2.808 0.883c-0.035,-0.096 0.007,-0.293 0.012,-0.245l0.093 -0.483c0.213,-0.8 0.318,0.932 0.402,-1.311 -2.063,-0.078 -13.552,2.067 -15.583,3.11 -1.733,0.891 -2.256,2.829 -4.634,2.694 -2.053,-0.117 -0.555,-0.04 -1.254,-0.422 -1.558,-0.851 1.416,0.093 -1.11,-0.771l-36.958 9.767c4.721,0.986 8.66,1.818 12.492,4.347 2.878,1.899 7.025,5.883 7.076,10.303l-13.39 3.225c1.687,3.561 8.396,7.749 9.176,10.879 -10.95,10.51 -27.84,0.105 -36.951,-8.102 -2.112,-1.902 -7.803,-6.88 -8.71,-9.674 2.679,-1.197 0.994,-0.84 3.358,0.023l-0.662 -2.256 1.028 -0.09c0.551,0.05 1.074,0.219 1.431,0.322 1.003,0.288 2.298,0.663 3.082,0.884 4.565,1.282 1.828,1.988 4.116,3.387 1.952,1.195 4.181,-0.48 3.731,-2.736 -0.624,-3.127 -4.128,-1.043 -5.642,-1.017 -5.13,0.092 -2.579,-3.125 -11.024,-0.335 -3.783,1.249 -7.691,2.768 -11.416,3.749 0.019,0.098 0.145,0.119 0.167,0.251 0.302,1.844 1.21,-0.663 0.738,2.066 -0.125,0.721 -0.826,2.629 -1.105,3.565 -4.329,14.48 -13.751,34.027 -32.193,31.001 -0.564,-3.656 3.488,-10.047 3.214,-13.946l-13.402 3.131 -0.656 -5.128c-4.628,5.639 -10.757,20.17 -13.437,28.054 -3.627,10.668 -6.25,22.503 -6.98,35.02l0.7 0.259c1.308,0.325 2.863,1.206 4.684,0.338 1.302,-0.621 1.969,0.346 3.281,1.303l5.444 -3.748c0.037,-0.01 0.175,0 0.254,-0.033 -0.917,-1.998 -1.12,-0.037 -0.684,-2.079l1.976 -0.309c0.314,2.598 0.014,1.264 -0.861,2.763 1.856,-0.104 3.048,-1.128 3.81,-2.547 0.008,0.011 0.697,0.764 0.808,0.871 1.519,1.48 0.148,-0.979 1.299,1.301 -0.91,2.042 1.358,-1.445 -0.504,0.658 -1.049,1.185 -1.314,0.929 -1.612,2.561 2.209,-0.415 0.111,-0.336 2.446,-0.672 0.323,-1.532 0.097,-2.573 0.825,-3.301 1.561,1.083 0.344,0.746 1.643,2.303l-0.42 -2.27c-0.895,-2.294 0.087,-0.437 -0.662,-3.797l1.2 0.684c0.619,0.415 0.433,0.376 0.988,0.785 1.633,-1.531 1.708,-1.909 3.904,-0.809l-0.446 -2.371c0.155,0.568 0.862,1.71 1.532,2.002l0.903 0.118c0.983,0.04 0.075,-0.934 1.882,0.119l-0.653 -3.317c0.212,0.074 0.414,0.038 0.495,0.256 0.414,1.113 0.24,0.148 0.777,0.48 0.595,0.367 0.371,0.233 0.885,0.542 0.416,-2.493 0.257,-1.871 2.082,-2.182l1.578 -0.39c2.639,-0.395 1.618,1.685 4.799,-0.043 0.789,-0.429 -0.17,-0.142 0.787,-0.446 0.926,-0.294 1.656,-0.155 2.762,-0.124z"/>
  <path fill="#F883C9" d="M414.203 193.519l-1.98 -1.661c0.129,-1.01 0.182,-0.533 0.309,-0.873 0.981,-2.617 -0.296,-0.713 0.564,-2.743 1.342,2.542 1.74,3.249 4.002,3.32l1.959 0.472c-0.623,3.696 0.777,-0.384 -4.845,3.971 -3.741,2.897 -5.648,-0.993 -3.095,-1.436 3.865,-0.67 -0.815,-0.816 3.086,-1.05zm-0.085 58.464l12.846 -0.014c0.865,-3.368 0.276,-21.719 0.26,-26.556 0.705,-2.116 0.012,-0.518 2.065,-1.41l0.104 -36.724 -2.224 0.059c-0.604,1.356 -0.365,0.851 -0.012,2.336 -3.108,-0.316 -2.525,0.735 -5.525,0.8l0.776 2.767c-1.538,-0.609 -0.331,-0.742 -1.135,-0.579 -1.187,0.24 1.832,0.978 -1.373,0.513 -0.498,-2.551 0.065,0.552 0.225,-3.526 0.112,-2.865 2.962,0.022 4.052,-4.766 3.068,0.09 1.542,0.543 3.951,-0.589l1.224 0.982 0.038 -39.577 -28.639 -0.1 0.067 -9.801 21.905 -0.066 -0.002 -3.265 6.694 0.472 -0.04 -9.074 -2.277 -0.94c0.035,-4.735 2.111,-4.293 -12.001,-3.994 -4.467,1.301 -0.821,-0.357 -5.297,2.593 -0.509,-0.552 -0.443,-0.98 -1.192,-1.284 -1.101,-0.447 -0.687,-0.242 -2.051,0.045 0.803,1.597 0.935,1.198 1.072,3.246 -2.08,0.545 -5.331,0.783 -7.325,1.525 -1.017,0.377 -2.12,0.792 -2.591,1.705 -1.034,2.004 0.76,-1.219 0.724,2.746 -2.037,0.818 -0.368,-1.526 -1.782,1.584l-1.408 -1.295c-1.004,0.684 -0.15,-0.036 -0.802,0.718l-0.418 0.548c-0.044,0.057 -0.118,0.2 -0.189,0.293 -1.154,-1.029 -1.82,-1.876 -3.375,-0.569 0.014,0.03 1.648,0.223 1.52,4.427 -0.332,-0.434 -0.558,-0.878 -0.83,-1.166 -0.842,-0.893 -0.053,-0.341 -1.07,-0.853 -1.32,0.556 -2.405,1.269 -3.287,1.918 -0.858,-0.443 -1.095,-0.892 -1.578,-1.647l-1.314 2.078c-0.5,-0.969 -0.671,-0.652 -1.632,-1.466 -1.467,-1.243 -1.501,-2.548 -3.316,-2.522 -0.272,2.502 0.636,0.609 0.685,3.733 0.057,3.586 0.394,2.717 -3.173,1.774l-0.411 2.041 -2.406 -1.872c-0.567,2.095 1.436,0.563 -2.425,3.441l-0.785 0.634c-4.641,4.217 -2.63,2.929 -7.212,1.463 0.24,3.054 2.66,5.147 -2.061,3.73 -0.493,1.586 -0.216,1.908 -0.984,2.877 -1.436,-0.046 -3.565,-2.56 -5.23,-3.46 -0.024,3.039 0.94,2.948 1.856,5.217 -1.927,2.927 -2.142,-1.173 -0.754,8.514 0.784,5.477 3.48,20.214 6.636,24.677 0.391,0.551 0.115,-0.207 0.663,0.888l0.427 -0.734c0.218,-0.421 0.333,-0.742 0.486,-1.006 0.988,-1.706 -0.257,-0.683 1.403,-1.31l0.939 2.699c2.575,0.388 3.305,0.254 5.05,-0.914l3.4 -3.005c0.923,0.324 0.906,1.244 1.733,1.421 1.748,0.376 2.2,-0.173 2.35,-0.216 1.242,-0.351 0.363,0.085 1.049,-0.456 -0.611,-1.292 0.164,-0.163 -1.025,-0.722 -1.35,-0.635 -0.961,0.032 -1.622,-0.688 1.338,-0.91 2.681,-1.046 3.625,-2.272l0.932 -1.535c4.596,0.449 4.783,-0.807 5.132,-5.126l1.119 -0.371c0.029,-0.012 0.143,-0.056 0.205,-0.099 -0.708,-1.346 -1.014,-1.114 -1.236,-2.764 1.109,0.627 0.997,1.05 2.231,1.247 -0.511,-1.463 -0.692,-0.751 -0.41,-1.834 1.697,0.754 0.387,1.13 2.205,1.34 0.083,-1.185 0.018,-0.428 -0.101,-1.111l-0.275 -1.264c-0.028,-0.121 -0.091,-0.297 -0.115,-0.45 3.677,2.479 0.994,2.044 1.864,5.58 1.571,-0.708 0.196,-0.042 1.133,-0.646 0.167,-0.108 0.8,-0.574 0.888,-0.626 1.058,-0.635 1.203,-0.627 2.59,-0.66 -0.554,-2.77 -0.693,-2.404 1.196,-4.256l-0.039 3.582 1.452 -2.258c0.714,0.823 0.6,0.699 1.408,1.168 1.053,-0.664 1.22,-0.987 2.665,-1.431 0.007,-2.975 -0.525,0.52 -0.192,-2.409 0.745,0.733 1.494,1.418 3.062,1.089 1.684,-0.353 1.046,-1.287 0.903,-2.759 0.676,-0.458 1.307,-0.445 1.846,-1.177l1.786 -3.268c0.064,-0.092 0.132,-0.204 0.203,-0.295l1.17 -1.163c-3.844,0.737 -3.999,2.601 -6.748,3.068l-1.033 -2c1.426,-1.071 3.764,-3.166 5.726,-2.932 1.858,0.222 1.359,0.483 1.891,1.501 0.492,-0.608 1.419,-3.782 3.939,-1.364 0.514,0.493 1.112,1.238 0.113,1.731 -2.309,1.143 -0.307,-0.91 -1.975,-0.682l0.028 2.68c0.283,1.144 0.485,1.203 1.169,1.828 0.677,-2.15 0.847,-1.097 1.85,-2.693 0.766,0.183 0.799,0.331 1.046,0.448 1.595,0.751 -0.845,-0.04 1.33,0.657l0.61 -1.741c0.954,1.98 0.518,0.751 3.36,0.397l-1.469 2.135 2.5 -0.826c0.013,-0.05 0.068,-0.208 0.079,-0.249 0.012,-0.04 0.037,-0.173 0.084,-0.246l1.332 2.788c-2.67,0.608 -2.243,0.379 -3.21,2.665 -2.013,-0.374 -0.918,-0.924 -3.286,-1.238 -1.232,1.513 -0.151,1.336 -1.891,2.308l-0.52 0.164c-0.261,0.122 -0.661,-0.104 -0.544,0.754l0.442 1.306c-3.25,-0.761 -1.771,0.269 -4.06,-0.607 -0.043,0.131 -0.192,0.895 -0.193,0.897l-0.485 1.096c-0.048,0.101 -0.127,0.272 -0.215,0.392 -0.21,-1.279 -0.394,-1.768 -0.991,-2.549l-1.739 0.582c0.545,1.174 0.959,0.264 0.802,1.19 -0.135,0.79 -1.482,1.45 -1.844,2.51 -0.337,0.986 0,1.259 -0.929,1.86 -0.526,0.34 -0.91,0.307 -1.541,0.447 1.062,-3.429 1.409,-0.729 1.738,-2.569 0.213,-1.189 0.31,-0.18 -0.236,-1.033 -0.636,-0.125 -1.355,0.534 -1.793,1.225 -1.064,1.676 -0.688,1.089 -0.255,3.569 -2.478,0.144 -1.159,0.469 -3.245,1.671 -0.906,-0.926 -1.983,-2.101 -2.39,-3.046l-0.306 3.625c-0.047,-0.09 -0.162,-0.382 -0.207,-0.299l-1.663 -1.528 -1.869 0.67c-0.465,1.393 0.108,0.816 -0.914,2.855l1.546 1.494c-1.822,0.687 -0.956,-0.079 -1.717,1.38l2.13 0.417c-0.262,1.049 0.443,2.167 -2.373,0.931 -0.895,-0.393 0.711,-0.05 -1.084,-0.551 -1.067,1.247 -0.852,1.253 -2.761,1.424 -2.122,-2.62 1.172,-2.323 -3.067,-2.446 0.903,2.893 1.407,1.099 2.024,3.463 -0.483,0.447 -1.443,1.216 -2.179,1.443 -1.233,0.381 -0.747,0.085 -1.344,0.144l-5.137 4.2c0.213,1.283 0.799,2.65 0.61,4.329 -2.075,-4.177 0.201,-3.345 -4.53,-3.048l0.264 -2.995c-2.032,0.733 -2.522,1.695 -1.353,2.944 2.225,2.377 -0.901,-2.088 0.5,0.505 -1.978,2.401 -1.577,0.802 -2.688,3.873 -3.141,-1.568 -2.199,0.948 -5.987,1.955 0.31,1.375 2.158,6.617 3.435,6.281l0.743 -0.455c3.16,0.011 -1.35,1.29 2.35,1.492l-1.74 2.232c3.339,-0.022 0.666,0.647 3.546,1.275l0.289 -1.231c0.377,-1.313 -0.439,0.095 0.625,-1.334 1.424,-1.912 2.458,-2.622 4.636,-0.859 2.892,2.34 0.295,0.276 3.658,1.245 1.458,0.421 3.264,1.773 4.158,2.921 -0.065,0.112 -0.201,0.131 -0.239,0.309 -0.361,1.723 -1.32,0.113 -0.81,3.451l-0.613 0.424c-0.058,0.043 -0.214,0.159 -0.283,0.21 -1.035,0.773 -0.322,0.708 -1.289,0.933l-0.248 -0.716c-0.004,-0.042 -0.004,-0.191 -0.007,-0.237l-0.699 -2.656c-0.044,-0.333 0.274,-0.453 -0.148,-1.654 -5.13,-0.885 -1.743,1.427 -5.368,1.766 -0.019,0.001 -0.982,0.08 -1.03,0.083 -1.794,0.127 -1.078,0.185 -3.041,-0.159 -0.093,6.105 22.48,28.541 26.97,32.282l9.616 7.274c0.596,0.454 0.384,0.245 0.788,0.705l0.685 1.009z"/>
  <path fill="#F883C9" d="M553.747 203.996l-0.006 19.537 1.059 0.585c0.355,0.179 0.719,0.265 1.167,0.519l-0.027 13.27c-0.427,-0.398 -0.929,-0.955 -2.023,-0.271 1.163,1.758 1.69,1.212 1.929,3.854 -2.769,-0.934 -2.115,-2.585 -4.023,-2.66 0.077,1.249 2.229,2.905 3.033,3.976 1.335,1.776 0.433,1.211 1.283,3.529 0.458,1.248 0.481,0.082 0.657,1.207 -1.04,0.822 -0.469,-0.538 -0.833,1.771 -0.088,0.561 -0.016,2.119 -0.015,2.736l12.728 -0.021c1.152,-1.682 8.365,-6.71 10.232,-8.203 3.061,-2.449 6.365,-5.511 9.339,-8.486 18.124,-18.13 33.356,-44.093 37.748,-70.362 -4.795,0.977 -6.86,2.912 -7.165,3.011 -1.383,0.445 1.015,0.783 -0.98,-0.33 -0.016,-0.009 -0.096,-0.098 -0.149,-0.08 -0.342,0.89 -0.881,2.723 -1.01,4.033 2.397,-0.57 1.038,-1.482 2.778,-0.263 -0.393,1.032 -1.056,1.293 -2.171,1.511 -2.415,-2.056 -1.309,-2.47 -3.933,-1.228 1.26,2.005 2.264,0.885 1.725,3.11 -0.031,-0.033 -1.586,-1.041 -2.155,-1.352 -1.957,-1.069 -0.81,-0.628 -3.148,-0.231 -0.366,0.682 0.423,0.705 -0.685,1.654l-2.132 1.735c-2.728,-1.291 -0.345,-1.596 -2.749,-0.93 -0.058,0.016 -0.2,0.049 -0.259,0.07 -0.488,0.174 -0.136,-0.14 -0.762,0.349 -0.271,0.21 -0.783,1.059 -1.042,1.424l0.544 1.054c0.427,0.873 0.242,-0.62 0.613,1.362 -1.679,-0.419 -1.372,-0.081 -2.087,-1.5 -1.177,1.754 -0.498,1.369 -2.474,1.126 1.068,1.915 0.176,1.498 -1.48,2.273 -1.562,0.731 -2.224,1.064 -4.135,1.105l0.138 2.536c-3.166,-0.902 -2.88,0.833 -5.139,1.212l-1.822 -0.079c-1.877,0.106 -1.13,0.449 -2.349,1.254 -1.186,-0.469 -2.119,-1.076 -3.286,-1.253 -2.481,4.229 -5.564,3.951 -7.055,5.509 -0.601,0.627 -0.747,1.132 -1.24,1.351 -0.001,0.001 -0.008,0.646 -1.757,-0.332 -1.052,-0.588 0.023,0.835 -0.601,-0.513 -0.817,-1.768 0.816,-0.629 1.412,-3.417 -2.567,0.45 -2.098,0.849 -2.259,1.217 -0.22,0.505 -0.148,2.155 -0.22,2.909 -1.984,-1.229 -0.76,-1.859 -2.535,-1.95 0.239,2.073 1.903,1.29 2.44,5.961 -1.989,-0.901 -0.17,-0.457 -2.269,-1.218 -1.665,1.93 -0.979,1.8 -3.526,1.599l0.537 1.73 -2.175 -1.717c-1.223,0.953 -1.294,0.366 -2.447,1.689 1.092,0.712 1.312,0.557 1.214,2.233 -0.484,-0.35 -1.245,-0.731 -1.84,-1.054 -0.337,2.617 -1.491,2.23 -2.434,2.513l-0.585 0.217c-1.689,0.686 0.66,0.297 -1.594,0.719z"/>
  <path fill="#F883C9" d="M470.706 3.862c-1.047,6.867 0.035,7.573 -4.012,12.871 -7.112,9.311 -22.271,15.302 -34.439,16.671 0.026,-2.589 -0.47,-2.791 4.502,-3.964 1.705,-0.402 5.304,1.133 4.793,-1.845 -0.202,-1.179 -1.634,-2.213 -3.089,-0.633l-0.394 0.575c-0.582,0.693 -0.099,0.293 -0.718,0.772 -0.412,0.319 -2.383,1.096 -2.951,1.308 -0.301,0.112 -0.979,0.401 -1.431,0.471 -4.159,0.643 1.838,-4.504 3.05,-5.53 2.926,-2.477 1.286,0.112 3.873,-0.868 1.571,-0.594 2.017,-2.458 1.163,-3.877 -0.78,-1.297 -2.652,-1.465 -3.693,-0.491 -2.43,2.273 1.763,1.284 -4.333,6.972 -1.396,1.303 -1.534,1.999 -3.426,1.993 -0.053,-2.158 0.577,-2.671 1.55,-4.796 1.533,-3.344 1.946,-0.465 3.125,-3.524 -0.743,-2.073 -1.004,-1.987 -3.306,-1.375 -0.163,1.472 0.089,1.762 0.021,2.821 -0.137,2.123 -0.068,0.914 -0.724,2.498 -0.913,2.201 -0.446,3.276 -3.098,3.28 -0.411,-0.721 -0.264,0.055 -0.326,-1.153 -0.04,-0.788 0.006,-0.801 0.206,-1.547 0.215,-0.803 0.669,-1.886 0.935,-2.764 0.444,-1.461 1.581,-4.122 1.063,-5.255 -1.705,1.105 -1.423,2.527 -2.16,5.066 -0.577,1.989 -0.936,3.842 -2.031,5.284 -2.546,-1.831 -1.749,-0.601 -1.227,-4.107 0.673,-4.528 -0.049,-2.041 2.192,-4.743 -3.542,0.245 -2.621,3.848 -3.389,6.589l-0.27 0.735c-0.031,0.085 -0.088,0.239 -0.157,0.345 -2.498,-0.771 -0.982,-1.975 -2.347,-4.272 -0.667,0.903 0.061,1.804 -0.009,3.288 0,0 1.171,-0.877 -0.461,1.667 -1.51,-0.739 -0.2,0.078 -1.394,-1.195l-1.69 -1.676c0.831,1.759 1.35,2.179 2.083,3.659l-1.308 1.287c-2.326,-0.853 -1.633,-2.337 -4.306,-3.024 0.677,1.654 0.512,1.064 1.697,2.406 0.639,0.722 1.322,1.621 0.694,2.31 -1.635,1.792 -3.651,-1.442 -5.279,-2.282 1.276,2.041 3.099,2.058 3.464,4.382 -1.376,0.673 -1.862,0.107 -3.659,-0.511 -0.597,-0.205 -1.293,-0.487 -1.951,-0.627 -0.961,-0.204 -0.292,-0.179 -1.071,-0.116 -1.368,0.111 -0.006,-0.364 -0.886,0.313 1.352,1.723 5.811,0.927 6.947,2.821 -0.529,1.337 0.692,0.568 -1.528,1.237 -3.824,1.153 -6.119,-0.977 -7.208,-0.83 -3.176,0.427 -0.713,6.74 2.251,1.557 4.638,-0.069 6.463,-1.43 6.978,1.797 -1.986,1.072 -11.304,2.75 -14.103,3.055 -4.638,0.505 -4.268,-0.584 -6.816,2.253 -1.328,1.478 -3.121,2.918 -3.868,4.848 3.384,-2.065 7.054,-3.836 11.406,-5.285 4.802,-1.6 8.886,-2.19 13.598,-3.526 0.462,3.329 -0.295,2.345 -2.413,3.466 -1.184,0.627 -0.453,-0.366 -0.92,0.831 1.02,0.141 0.733,-0.34 1.222,-0.556 2.175,-0.955 3.079,-0.345 6.526,-1.945l0.691 -0.32c-1.44,-2.914 1.955,2.523 -0.759,-0.722 -0.622,-0.743 -0.969,-1.688 -0.76,-2.977l0.345 -1.139c0.026,-0.08 0.077,-0.228 0.14,-0.33 1.843,1.21 1.297,2.66 2.347,4.14 1.429,-0.326 3.324,-0.593 5.164,-0.69l0.939 -1.863c1.589,0.467 3.479,0.321 5.122,-0.216 4.039,-1.322 0.012,-1.65 3.834,-2.712 3.35,-0.93 7.732,-1.366 10.805,-2.335 3.327,-1.049 6.631,-1.718 9.962,-2.651 1.623,-0.456 3.621,-0.917 5.145,-1.556 3.689,-1.545 1.921,-0.44 5.017,-0.725 1.838,-3.091 1.705,-1.496 2.672,-1.721 2.351,-0.546 0.134,-0.695 3.893,-0.636 2.333,0.037 4.913,-0.56 6.781,-1.703 0.074,-0.045 0.182,-0.138 0.255,-0.177 1.181,-0.641 2.881,-0.622 4.396,-1.095 0.064,-0.02 0.2,-0.066 0.258,-0.088l0.816 -0.463c1.648,-0.518 -0.576,0.754 1.603,-0.115l6.314 -2.044c1.573,-0.598 1.666,-0.495 2.26,-2.236 0.218,-0.638 0.143,-0.6 0.297,-1.186 0.697,-2.67 2.26,-3.594 5.413,-3.626l-0.029 2.18c-0.407,0.037 -1.299,0.096 -1.585,0.174 -0.13,0.036 -0.261,0.074 -0.391,0.117l-1.295 2.418c1.692,1.363 2.608,0.753 4.994,0.542 2.626,-0.231 3.13,-0.959 4.985,-1.13 1.178,-0.109 2.726,-1.231 4.482,-1.564 1.727,-0.327 4.345,-0.264 6.261,-0.455 -0.022,-2.933 -0.949,0.465 -1.03,-3.023 1.897,1.36 2.515,2.252 4.614,1.999 3.748,-0.451 1.597,-1.168 5.658,-1.845 -0.451,-3.288 -1.04,-1.014 -2.786,-2.986 3.236,-1.627 5.013,-0.96 5.965,-1.41 -1.132,-1.997 -11.43,-3.469 -14.013,-3.893 -4.888,-0.803 -10.312,-1.697 -15.572,-1.99 -5.733,-0.319 -11.173,-0.704 -16.899,-0.111 -2.623,0.272 -1.353,0.366 -3.122,0.945 -3.23,1.058 -6.412,1.049 -10.135,2.107z"/>
  <path fill="#F883C9" d="M499.211 135.446c2.488,0.679 30.533,0.507 34.524,0.189 0.795,-1.475 0.122,-1.45 0.769,-2.969 0.097,-0.035 0.689,-0.14 0.919,-0.144l5.397 0.461c-0.05,-2.271 0.779,-8.046 -0.738,-9.287 -0.113,-0.093 -0.559,-0.317 -0.682,-0.387l-0.833 -4.244 -39.242 -0.17 -0.114 16.551z"/>
  <path fill="#F883C9" d="M444.352 122.925c-0.105,0.09 -0.323,0.003 -0.393,0.193 -0.552,1.492 -0.113,-0.057 -0.753,0.382 -0.49,0.336 -1.094,-0.24 -1.061,3.141 0.02,2.129 0.052,4.205 0.004,6.34 3.373,-0.227 4.777,-0.826 6.319,-0.315 0.633,1.499 -0.015,1.505 0.766,2.967l34.657 0.085 -0.043 -16.715 -39.41 -0.1 -0.086 4.022z"/>
  <path fill="#F883C9" d="M490.386 148.542c-0.745,3.559 -1.867,15.277 -1.097,18.576l13.367 -1.175c6.136,-0.412 4.309,2.79 6.154,-18.913 -3.282,-0.52 -16.193,0.214 -18.424,1.512zm41.805 7.46c0.804,-1.413 0.583,-1.806 1.264,-0.467 0.699,1.373 -0.142,2.216 -0.289,3.197 2.255,-0.955 0.515,-0.632 2.917,-3.608 3.022,0.927 2.93,-0.311 3.285,2.277 -4.874,-2.367 -4.204,2.438 -4.204,2.42 -0.003,-0.054 0.018,0.184 -0.02,0.263 -7.55,-2.421 0.069,5.774 -5.502,3.215 0.463,2.397 0.984,1.267 0.074,2.927 -0.03,0.054 -0.114,0.17 -0.143,0.226l-0.232 0.5c-0.493,1.051 -0.005,0.736 -1.143,1.678l-1.505 0.988c-0.786,-0.91 -0.549,-0.624 -1.176,-1.825 -0.574,-1.099 0.06,-0.4 -0.774,-1.486 -1.2,0.4 0.026,-0.257 -0.479,0.677 -1.198,2.216 -0.864,0.292 -1.629,2.514l-2.303 -1.27c-0.275,0.96 -0.238,0.667 -0.341,2.047 -1.164,-1.84 -1.234,-0.28 -3.198,0.472 0.159,-2.716 0.052,-0.046 0.722,-2.644 -4.925,0.109 -0.607,0.23 -2.439,1.36 -0.462,0.285 -0.13,0.445 -0.624,-0.299 -0.538,-0.809 -0.355,-0.684 -0.599,-1.577 1.673,-2.064 -0.718,0.757 1.238,-0.887 1.737,-1.461 0.647,-1.152 1.275,-2.667 1.056,0.39 1.978,0.834 3.204,1.049 0.648,-1.187 0.224,-0.576 0.467,-1.625 0.001,-0.001 -0.424,-0.624 0.703,-1.348 1.188,-0.763 1.016,-0.408 1.62,-0.063 -0.582,-2.175 0.146,0.21 -1.355,-1.981 0.095,-0.049 0.253,-0.054 0.312,-0.066 3.776,-0.702 1.848,-1.024 4.232,-0.129 -0.366,-2.307 -0.244,-1.933 0.245,-2.653 0.481,1.079 0.623,1.802 1.839,2.276 1.94,-1.32 0.602,-0.484 0.635,-1.092 0.175,-3.136 0.044,-0.415 1.352,-3.037 0.702,0.64 1.118,0.901 2.237,1.375l0.334 -0.737zm-41.805 -7.46c2.231,-1.298 15.142,-2.032 18.424,-1.512 -1.845,21.703 -0.018,18.501 -6.154,18.913l-13.367 1.175c-0.77,-3.299 0.352,-15.017 1.097,-18.576zm50.418 61.104c-0.899,-0.376 -0.655,0.207 -0.966,-0.421 -0.486,1.141 0.487,0.696 -0.832,1.804 -1.3,1.093 -2.745,2.969 -4.185,3.267 -2.968,0.612 0.613,-0.161 -2.393,-0.476 -2.03,1.996 0.08,1.373 -3.214,2.1 -0.073,0.016 -0.242,0.031 -0.346,0.091 0.099,4.285 2.165,-0.235 2.168,4.418l-1.984 0.323c-0.598,-1.168 0.288,-0.6 -0.011,-1.958l-5.464 0.56c-0.831,-1.525 -0.309,-2.037 -2.048,-2.735 -0.455,1.092 0.589,1.476 0.703,3.426l-2.738 0.498c0.155,-2.104 0.201,-1.397 0.64,-2.976l-1.776 0.75c0.116,2.344 0.196,1.033 0.636,2.102 0.621,1.507 0.508,0.769 0.619,2.698 -3.628,0.232 -3.731,1.27 -5.377,-1.935 0.54,-0.179 1.014,-0.131 1.244,-0.217l1.151 -0.586c0.113,-0.062 0.287,-0.15 0.401,-0.263 -1.859,-0.547 -3.87,-0.291 -5.189,1.247 -0.408,0.474 0.496,3.179 -1.58,3.885 -1.795,-2.682 2.123,-0.832 -1.019,-3.596 1.775,-1.658 2.362,-0.383 1.228,-2.653 0.358,0.004 1.317,0.188 1.352,0.187 1.656,-0.053 3.561,-1.437 4.65,-2.364l2.907 -2.438c2.892,-3.377 3.95,-2.199 4.743,-2.351 1.398,-0.269 1.242,-0.608 2.376,-1.895 0.971,-1.101 1.128,-1.049 1.552,-2.781 3.583,0.376 -0.492,0.391 2.777,0.77l0.559 -2.497c3.084,1.681 3.582,-0.682 5.633,-2.331 0.751,0.473 0.181,0.266 0.71,0.687 0.952,0.757 -0.11,0.414 1.168,0.764 3.152,-2.405 -0.396,-0.892 0.094,-3.233 0.278,-1.333 0.945,-0.976 1.811,-1.195l-0.014 -54.71 -98.477 -0.003 -0.181 76.573c0.175,3.149 1.842,1.693 2.164,3.231l-0.022 23.071c-0.034,1.926 -0.436,3.032 0.876,3.46 0.505,0.164 8.054,0.038 9.248,0.039l83.063 0.024c1.694,-0.292 1.275,-0.858 1.247,-3.039l-0.035 -23.555c0.72,-1.65 -1.27,1.004 0.547,-0.57 0.08,-0.069 0.472,-0.375 0.574,-0.467 0.898,-0.81 0.401,1.138 0.974,-1.338l0.036 -13.392z"/>
  <path fill="#FDFAF9" d="M540.804 209.646l0 -9.324c-0.866,0.219 -1.533,-0.138 -1.811,1.195 -0.49,2.341 3.058,0.828 -0.094,3.233 -1.278,-0.35 -0.216,-0.007 -1.168,-0.764 -0.529,-0.421 0.041,-0.214 -0.71,-0.687 -2.051,1.649 -2.549,4.012 -5.633,2.331l-0.559 2.497c-3.269,-0.379 0.806,-0.394 -2.777,-0.77 -0.424,1.732 -0.581,1.68 -1.552,2.781 -1.134,1.287 -0.978,1.626 -2.376,1.895 -0.793,0.152 -1.851,-1.026 -4.743,2.351l-2.907 2.438c-1.089,0.927 -2.994,2.311 -4.65,2.364 -0.035,0.001 -0.994,-0.183 -1.352,-0.187 1.134,2.27 0.547,0.995 -1.228,2.653 3.142,2.764 -0.776,0.914 1.019,3.596 2.076,-0.706 1.172,-3.411 1.58,-3.885 1.319,-1.538 3.33,-1.794 5.189,-1.247 -0.114,0.113 -0.288,0.201 -0.401,0.263l-1.151 0.586c-0.23,0.086 -0.704,0.038 -1.244,0.217 1.646,3.205 1.749,2.167 5.377,1.935 -0.111,-1.929 0.002,-1.191 -0.619,-2.698 -0.44,-1.069 -0.52,0.242 -0.636,-2.102l1.776 -0.75c-0.439,1.579 -0.485,0.872 -0.64,2.976l2.738 -0.498c-0.114,-1.95 -1.158,-2.334 -0.703,-3.426 1.739,0.698 1.217,1.21 2.048,2.735l5.464 -0.56c0.299,1.358 -0.587,0.79 0.011,1.958l1.984 -0.323c-0.003,-4.653 -2.069,-0.133 -2.168,-4.418 0.104,-0.06 0.273,-0.075 0.346,-0.091 3.294,-0.727 1.184,-0.104 3.214,-2.1 3.006,0.315 -0.575,1.088 2.393,0.476 1.44,-0.298 2.885,-2.174 4.185,-3.267 1.319,-1.108 0.346,-0.663 0.832,-1.804 0.311,0.628 0.067,0.045 0.966,0.421z"/>
  <path fill="#FEF5F5" d="M531.857 156.739c-1.119,-0.474 -1.535,-0.735 -2.237,-1.375 -1.308,2.622 -1.177,-0.099 -1.352,3.037 -0.033,0.608 1.305,-0.228 -0.635,1.092 -1.216,-0.474 -1.358,-1.197 -1.839,-2.276 -0.489,0.72 -0.611,0.346 -0.245,2.653 -2.384,-0.895 -0.456,-0.573 -4.232,0.129 -0.059,0.012 -0.217,0.017 -0.312,0.066 1.501,2.191 0.773,-0.194 1.355,1.981 -0.604,-0.345 -0.432,-0.7 -1.62,0.063 -1.127,0.724 -0.702,1.347 -0.703,1.348 -0.243,1.049 0.181,0.438 -0.467,1.625 -1.226,-0.215 -2.148,-0.659 -3.204,-1.049 -0.628,1.515 0.462,1.206 -1.275,2.667 -1.956,1.644 0.435,-1.177 -1.238,0.887 0.244,0.893 0.061,0.768 0.599,1.577 0.494,0.744 0.162,0.584 0.624,0.299 1.832,-1.13 -2.486,-1.251 2.439,-1.36 -0.67,2.598 -0.563,-0.072 -0.722,2.644 1.964,-0.752 2.034,-2.312 3.198,-0.472 0.103,-1.38 0.066,-1.087 0.341,-2.047l2.303 1.27c0.765,-2.222 0.431,-0.298 1.629,-2.514 0.505,-0.934 -0.721,-0.277 0.479,-0.677 0.834,1.086 0.2,0.387 0.774,1.486 0.627,1.201 0.39,0.915 1.176,1.825l1.505 -0.988c1.138,-0.942 0.65,-0.627 1.143,-1.678l0.232 -0.5c0.029,-0.056 0.113,-0.172 0.143,-0.226 0.91,-1.66 0.389,-0.53 -0.074,-2.927 5.571,2.559 -2.048,-5.636 5.502,-3.215 0.038,-0.079 0.017,-0.317 0.02,-0.263 0,0.018 -0.67,-4.787 4.204,-2.42 -0.355,-2.588 -0.263,-1.35 -3.285,-2.277 -2.402,2.976 -0.662,2.653 -2.917,3.608 0.147,-0.981 0.988,-1.824 0.289,-3.197 -0.681,-1.339 -0.46,-0.946 -1.264,0.467l-0.334 0.737z"/>
  <path fill="#FDF3F2" d="M429.393 187.279l-0.041 -2.003 -1.224 -0.982c-2.409,1.132 -0.883,0.679 -3.951,0.589 -1.09,4.788 -3.94,1.901 -4.052,4.766 -0.16,4.078 -0.723,0.975 -0.225,3.526 3.205,0.465 0.186,-0.273 1.373,-0.513 0.804,-0.163 -0.403,-0.03 1.135,0.579l-0.776 -2.767c3,-0.065 2.417,-1.116 5.525,-0.8 -0.353,-1.485 -0.592,-0.98 0.012,-2.336l2.224 -0.059z"/>
  <path fill="#FAEFF0" d="M412.223 191.858l1.98 1.661c-3.901,0.234 0.779,0.38 -3.086,1.05 -2.553,0.443 -0.646,4.333 3.095,1.436 5.622,-4.355 4.222,-0.275 4.845,-3.971l-1.959 -0.472c-2.262,-0.071 -2.66,-0.778 -4.002,-3.32 -0.86,2.03 0.417,0.126 -0.564,2.743 -0.127,0.34 -0.18,-0.137 -0.309,0.873z"/>
  <path fill="#F883C9" d="M583.726 81.175c0.602,1.453 0.156,0.544 0.748,1.204 1.606,1.792 1.634,2.078 2.779,2.472 0.869,-0.986 0.539,1.166 0.631,-1.422 0.054,-1.5 0.078,-0.058 -0.377,-1.307 1.603,0.372 0.564,0.435 2.486,0.37l2.305 -4.919c-2.003,0.124 -2.148,-0.022 -3.26,1.409 -1.037,-1.585 0.179,-0.616 -1.315,-1.24 -1.924,3.177 0.447,-0.133 -3.997,3.433z"/>
  <path fill="#000000" fill-rule="nonzero" d="M31.097 139.455l0 -5.191 15.548 -5.19 0 10.381 31.097 0 -5.183 15.57 -5.183 0 0 36.331 10.366 0 -5.183 15.571 -5.183 0c-10.365,0 -15.548,-5.19 -15.548,-15.571l0 -10.38 -25.914 0 0 10.38c0,10.381 -5.183,15.571 -15.548,15.571l-10.366 0 5.183 -15.571 5.183 0 0 -36.331 -10.366 0 5.183 -15.57 25.914 0zm20.731 15.57l-25.914 0 0 10.38 25.914 0 0 -10.38z"/>
  <path id="_1" fill="#000000" fill-rule="nonzero" d="M93.29 176.158c1.893,-9.867 7.995,-22.071 18.29,-36.65l18.148 0c-12.347,17.271 -19.298,31.088 -20.89,41.468 0,6.926 3.449,10.38 10.366,10.38l20.73 0 -5.182 15.571 -15.548 0c-14.965,0 -23.597,-6.395 -25.914,-19.202l0 19.202 -15.548 0 0 -67.472 15.548 0 0 36.703z"/>
  <path id="_2" fill="#000000" fill-rule="nonzero" d="M165.848 165.405l41.462 0 -5.183 15.571 -36.279 0c0,6.926 3.449,10.38 10.365,10.38l31.097 0 -5.183 15.571 -25.914 0c-17.281,0 -25.913,-8.645 -25.913,-25.951l-10.366 0 5.183 -15.571 5.183 0 0 -10.38 -10.366 0 5.183 -15.57 62.193 0 -5.183 15.57 -36.279 0 0 10.38z"/>
  <path id="_3" fill="#000000" fill-rule="nonzero" d="M238.407 191.356c0,10.381 -5.184,15.571 -15.549,15.571l-10.365 0 5.182 -15.571 5.183 0 0 -36.331 -10.365 0 5.182 -15.57 31.097 0 0 -5.191 15.548 -5.19 0 10.381 36.261 0 -5.165 15.57 -5.182 0 0 36.331 10.347 0 -5.165 15.571 -5.182 0c-10.366,0 -15.548,-5.19 -15.548,-15.571l0 -36.331 -10.366 0 0 20.761 -15.548 5.19 0 -25.951 -10.365 0 0 36.331z"/>
  <polygon id="_4" fill="#000000" fill-rule="nonzero" points="326.495,191.356 326.495,206.927 310.947,206.927 310.947,191.356 310.947,139.455 326.495,139.455 "/>
  <path fill="#000000" fill-rule="nonzero" d="M665.123 165.381l0 -26.2 15.697 0 0 26.2 26.163 0 0 -26.2 15.697 0 0 26.2 10.464 0 -5.232 15.72 -5.232 0 0 20.96 -15.697 5.24 0 -26.2 -26.163 0 0 10.48c0,10.48 -5.233,15.72 -15.697,15.72l-10.465 0 5.232 -15.72 5.233 0 0 -10.48 -10.465 0 5.232 -15.72 5.233 0z"/>
  <path id="_1_0" fill="#000000" fill-rule="nonzero" d="M748.842 154.901l0 36.68 26.162 -0.054 0 -36.626 -26.162 0zm20.93 -15.72l20.93 0 0 68.12 -15.698 0 0 -0.054 -26.162 0.054c-10.465,0 -15.698,-5.24 -15.698,-15.72l0 -52.4 20.93 0 0 -5.24 15.698 -5.24 0 10.48z"/>
  <path id="_2_1" fill="#000000" fill-rule="nonzero" d="M863.956 207.301l-7.018 0c-33.699,0 -50.539,-15.72 -50.539,-47.16l0 -5.24 -10.465 0 5.233 -15.72 20.929 0 0 20.96c0,18.17 8.715,28.453 26.163,30.868l0 -51.828 15.697 0 0 68.12z"/>
  <path id="_3_2" fill="#000000" fill-rule="nonzero" d="M926.746 181.101c0,17.472 -8.733,26.2 -26.163,26.2l-31.395 0 5.233 -15.72 26.162 0c6.965,0 10.465,-3.487 10.465,-10.48l-41.86 0 0 -15.72c0,-17.455 8.715,-26.2 26.162,-26.2l31.396 0 -5.233 15.72 -26.163 0c-6.982,0 -10.464,3.506 -10.464,10.48l41.86 0 0 15.72z"/>
  <path id="_4_3" fill="#000000" fill-rule="nonzero" d="M958.14 165.381l41.86 0 -5.233 15.72 -36.627 0c0,6.993 3.482,10.48 10.465,10.48l31.395 0 -5.233 15.72 -26.162 0c-17.447,0 -26.162,-8.728 -26.162,-26.2l-10.465 0 5.232 -15.72 5.233 0 0 -10.48 -10.465 0 5.232 -15.72 62.79 0 -5.233 15.72 -36.627 0 0 10.48z"/>
  <ellipse fill="#FEFEFE" cx="491.401" cy="137.733" rx="137.046" ry="136.718"/>
  <path fill="black" d="M540.804 200.322l0 9.324 -0.036 13.392c-0.573,2.476 -0.076,0.528 -0.974,1.338 -0.102,0.092 -0.494,0.398 -0.574,0.467 -1.817,1.574 0.173,-1.08 -0.547,0.57l0.035 23.555c0.028,2.181 0.447,2.747 -1.247,3.039l-83.063 -0.024c-1.194,-0.001 -8.743,0.125 -9.248,-0.039 -1.312,-0.428 -0.91,-1.534 -0.876,-3.46l0.022 -23.071c-0.322,-1.538 -1.989,-0.082 -2.164,-3.231l0.181 -76.573 98.477 0.003 0.014 54.71zm-41.479 -81.427l39.242 0.17 0.833 4.244c0.123,0.07 0.569,0.294 0.682,0.387 1.517,1.241 0.688,7.016 0.738,9.287l-5.397 -0.461c-0.23,0.004 -0.822,0.109 -0.919,0.144 -0.647,1.519 0.026,1.494 -0.769,2.969 -3.991,0.318 -32.036,0.49 -34.524,-0.189l0.114 -16.551zm-54.887 0.008l39.41 0.1 0.043 16.715 -34.657 -0.085c-0.781,-1.462 -0.133,-1.468 -0.766,-2.967 -1.542,-0.511 -2.946,0.088 -6.319,0.315 0.048,-2.135 0.016,-4.211 -0.004,-6.34 -0.033,-3.381 0.571,-2.805 1.061,-3.141 0.64,-0.439 0.201,1.11 0.753,-0.382 0.07,-0.19 0.288,-0.103 0.393,-0.193l0.086 -4.022zm-43.866 -1.431c0.515,1.355 0.638,1.513 1.574,2.26 1.707,-0.54 -1.143,-0.812 5.773,-0.836 2.398,-0.009 4.786,0.017 7.178,0.035 14.112,-0.299 12.036,-0.741 12.001,3.994l2.277 0.94 0.04 9.074 -6.694 -0.472 0.002 3.265 -21.905 0.066 -0.067 9.801 28.639 0.1 -0.038 39.577 0.041 2.003 -0.104 36.724c-2.053,0.892 -1.36,-0.706 -2.065,1.41 0.016,4.837 0.605,23.188 -0.26,26.556l-12.846 0.014 -26.853 -0.023c-4.007,0.055 -5.138,-0.613 -7.59,1.549 -0.621,4.304 1.437,5.469 5.213,5.462 3.554,-0.006 7.257,0.08 10.828,0.127 -1.373,4.127 -0.505,6.344 4.213,7.726 3.221,0.944 7.903,1.972 11.47,2.076l-0.721 1.039c-1.239,1.895 -0.983,2.014 -0.878,4.151 4.382,3.391 3.083,0.783 6.897,2.097 -0.611,1.569 0.348,1.029 -5.958,0.995 -16.659,-0.088 -34.07,-0.204 -50.702,0.286 -1.213,1.988 -2.962,3.293 -0.43,5.758l6.508 1.079c1.427,0.012 7.733,-0.368 8.457,0.42 0.622,1.219 -3.174,5.414 5.465,7.662 10.831,2.819 29.921,3.788 41.088,4.196l-4.087 1.823c-0.73,4.949 3.589,3.723 6.254,4.272 3.6,0.742 6.859,0.817 10.919,0.916 7.538,0.183 14.757,0.614 22.354,1.038 -4.518,0.178 -32.583,2.602 -33.944,6.345 0.177,4.163 4.108,4.282 8.232,4.81l24.499 1.919c4.109,0.317 7.956,1.134 12.407,1.358l-0.644 0.437c-1.937,0.912 -5.837,0.749 -8.004,0.788l-19.737 0.172c-3.167,0.01 -6.647,-0.633 -7.582,2.378 -1.256,4.045 2.005,4.47 5.13,4.832 10.425,1.208 16.221,2.012 27.723,1.498 -0.592,4.752 0.154,6.812 7.553,5.886 4.197,-0.526 8.361,-2.007 11.775,-2.54 3.133,4.286 5.989,2.984 12.675,2.003 11.343,-1.664 7.153,-4.267 12.653,-4.492 3.949,-0.162 28,-0.03 27.934,-5.416 -0.045,-3.627 -12.601,-5.906 -14.858,-6.581l2.815 -0.796c3.819,-0.427 10.778,-0.972 13.981,-2.179 2.3,-0.867 2.362,-1.713 4.182,-2.384 3.732,-1.375 17.755,-2.252 12.502,-11.911 7.016,-1.158 25.834,-0.838 29.972,-2.548 1.946,-0.804 2.981,-2.908 1.607,-5.323 -1.154,-2.028 -0.938,-0.33 -0.689,-1.251 4.765,-2.178 23.209,1.689 30.708,-3.048l0.04 -2.694c-3.918,-3.009 -10.156,-2.094 -16.158,-2.094 -6.131,0.001 -12.266,-0.015 -18.397,-0.024l-0.016 -6.753c13.732,-0.824 16.467,-1.23 30.996,-0.997 0.547,-2.115 0.587,-5.065 -0.022,-7.156l-4.995 -0.072 -0.831 -2.418c3.516,-0.833 12.21,0.651 14.705,-0.711 1.966,-1.075 2.263,-3.701 1.012,-5.367 -1.331,-1.773 -4.246,-1.291 -6.488,-1.288 -10.569,0.016 -21.138,-0.01 -31.706,0.013 0.083,-0.119 0.229,-0.421 0.277,-0.336 0.054,0.092 2.595,-2.399 1.255,-5.071 -2.02,-2.432 -4.11,-1.658 -7.854,-1.655 -3.531,0.004 -7.07,-0.07 -10.597,0.062l-12.728 0.021c-0.001,-0.617 -0.073,-2.175 0.015,-2.736 0.364,-2.309 -0.207,-0.949 0.833,-1.771 -0.176,-1.125 -0.199,0.041 -0.657,-1.207 -0.85,-2.318 0.052,-1.753 -1.283,-3.529 -0.804,-1.071 -2.956,-2.727 -3.033,-3.976 1.908,0.075 1.254,1.726 4.023,2.66 -0.239,-2.642 -0.766,-2.096 -1.929,-3.854 1.094,-0.684 1.596,-0.127 2.023,0.271l0.027 -13.27c-0.448,-0.254 -0.812,-0.34 -1.167,-0.519l-1.059 -0.585 0.006 -19.537c-0.401,-3.608 -0.267,-9.836 0.221,-13.274 -0.845,-1.931 -0.548,-39.78 -0.254,-45.094l28.497 -0.102 -0.143 -9.79 -21.688 0.024 -0.072 -3.414 -6.672 0.37 0.098 -8.85 2.133 -0.941c-0.031,-5.031 -1.842,-4.032 10.73,-4.032 4.586,0 10.631,0.332 15.023,-0.12 1.102,-1.621 1.361,-4.303 1.829,-6.284 1.031,-4.363 1.665,-1.58 4.45,-2.987 1.768,-0.893 3.827,-8.292 4.247,-11.246 -4.016,0.715 -7.379,1.712 -11.725,2.451 -26.562,4.521 -62.056,3.319 -88.936,3.319 -21.09,0 -57.601,0.802 -78.028,-1.784l-22.519 -3.88c0.429,2.977 2.138,9.277 3.591,10.723 1.432,1.427 1.06,0.41 3.027,0.753 1.96,0.342 1.123,-0.402 1.809,1.501 0.392,1.089 1.049,4.865 1.207,6.133z"/>
  <path fill="#FF0009" d="M426.56 54.708c-0.241,2.015 -1.574,1.309 -1.081,3.645 0.854,4.049 7.497,0.961 3.91,-2.509 -0.833,-0.806 -0.091,0.041 -0.833,-0.639l-0.51 -0.481c-1.108,-1.373 -1.835,-6.141 -2.079,-8.223 2.037,-0.41 0.527,-0.427 2.21,0.403 -0.089,-1.393 0.102,-1.863 0.626,-2.725 1.134,0.109 1.233,0.397 2.483,1.728 4.863,5.175 10.294,11.9 13.337,18.165 4.351,8.962 6.024,20.605 -1.492,26.898 -1.92,-1.017 -3.366,-3.168 -4.96,-4.922l-4.703 -4.859c-0.048,-0.168 -0.202,-0.159 -0.356,-0.256l-3.872 13.028c-5.036,0.12 -8.435,-4.914 -10.34,-7.907 -5.867,-9.213 -2.479,-28.263 1.055,-38.141 0.404,-1.128 1.139,-1.779 1.858,-1.453 1.382,0.995 0.572,-0.705 0.814,1.715 0.087,0.87 -0.483,4.105 -1.186,5.063 -0.682,0.929 -2.122,1.019 -1.192,2.686 0.788,1.411 1.553,0.964 2.891,0.455 0.724,-3.26 -1.833,-1.801 0.007,-7.843 0.521,-1.709 0.696,-1.374 1.205,-1.686 0.907,0.8 2.37,6.506 2.208,7.858zm-25.988 62.764c-0.158,-1.268 -0.815,-5.044 -1.207,-6.133 -0.686,-1.903 0.151,-1.159 -1.809,-1.501 -1.967,-0.343 -1.595,0.674 -3.027,-0.753 -1.453,-1.446 -3.162,-7.746 -3.591,-10.723l22.519 3.88c20.427,2.586 56.938,1.784 78.028,1.784 26.88,0 62.374,1.202 88.936,-3.319 4.346,-0.739 7.709,-1.736 11.725,-2.451 -0.42,2.954 -2.479,10.353 -4.247,11.246 -2.785,1.407 -3.419,-1.376 -4.45,2.987 -0.468,1.981 -0.727,4.663 -1.829,6.284 -4.392,0.452 -10.437,0.12 -15.023,0.12 -12.572,0 -10.761,-0.999 -10.73,4.032l-2.133 0.941 -0.098 8.85 6.672 -0.37 0.072 3.414 21.688 -0.024 0.143 9.79 -28.497 0.102c-0.294,5.314 -0.591,43.163 0.254,45.094l-0.09 -1.978c1.641,-0.965 2.186,-1.485 3.224,-2.938 0.768,0.451 1.376,0.862 2.453,1.279l0.063 -0.594c0.015,-1.372 0.059,1.653 -0.004,-0.547l-0.059 -0.899c3.584,1.596 4.556,4.713 6.359,2.288 -0.627,-1.308 -0.176,-0.192 -1.736,-1.41 0.316,-4.549 -0.06,-0.303 -0.86,-3.861l4.11 0.141c-0.802,-1.331 -1.445,-1.123 -0.831,-2.164 1.066,0.993 2.078,2.018 3.153,1.652 0.484,-1.226 0.191,-0.077 -0.085,-0.811 -0.54,-1.435 -0.103,1.218 -0.458,-0.83l2.521 -0.95 0.217 -2.32 1.856 1.184c0.361,-5.373 -1.276,-3.553 5.46,-3.811 -0.614,-1.328 -0.749,-1.718 -1.586,-2.805l1.519 -1.01c0.698,1.777 -0.008,0.513 0.055,1.061 0.168,1.478 -0.594,0.4 0.493,0.984l0.939 -2.687c1.187,0.266 0.421,0.097 1.416,1.555 0.074,0.109 0.152,0.295 0.259,0.42 1.093,-1.693 1.846,-1.535 4.256,-1.556l-0.487 -2.506c2.052,0.111 2.804,0.383 4.283,-1.086 2.381,-2.364 1.169,-2.59 2.009,-3.905l1.821 1.22c0.107,-0.148 0.14,-0.375 0.153,-0.314l0.34 -0.639c0.905,-1.098 2.898,-1.856 4.728,-2.046l2.063 -2.476c1.595,-1.406 0.921,-2.922 1.263,-5.089 3.325,1.07 3.385,2.186 4.655,0.246 1.439,2.288 0.692,1.443 2.354,-0.968 1.927,-2.795 1.28,-1.393 0.429,-4.24 1.373,-0.936 0.987,-0.341 2.344,-0.94 -0.415,-1.26 0.373,-2.85 0.656,-3.185 0.948,0.946 1.276,2.209 1.63,3.373l1.037 -1.97c4.418,-0.026 -0.436,2.036 6.394,-3.58 2.182,-1.793 4.426,-3.529 6.419,-4.859l-0.605 -11.861c-3.386,0.072 -3.558,1.621 -5.199,3.148 -0.53,0.493 0.046,-0.558 -0.522,0.63 -0.006,0.014 -0.208,1.137 -0.223,1.21l-1.414 -3.132 -0.751 1.709c-0.759,1.308 0.11,0.758 -1.283,1.132 -0.481,-0.747 -0.195,-0.443 -0.095,-1.536l0.175 -1.198c-1.486,0.794 -1.308,0.802 -2.427,2.096 -2.292,-0.538 0.2,-0.998 -2.08,-0.409 -1.22,0.316 -0.454,0.82 -2.468,0.941l1.046 -2.514c1.56,-0.109 0.995,0.016 2.442,0.236 -0.146,-1.215 -0.325,-1.339 -0.629,-2.578 0.132,0.073 0.31,0.048 0.385,0.24 0.25,0.643 1.505,0.863 2.228,0.991 -0.705,-0.73 -0.794,-0.779 -1.23,-2.11 2.103,-0.039 3.916,-0.348 5.565,-1.558 1.655,-1.215 -0.142,-0.669 1.97,-1.178l1.152 2.32c1.764,-0.117 2.171,-0.579 3.067,0.289 0.385,-3.588 -1.428,-1.239 -3.66,-1.812 4.093,-3.475 3.982,-2.999 0.594,-17.218 -0.726,-3.048 -1.529,-5.543 -2.347,-8.348 -0.457,-1.571 -4.177,-7.262 -4.078,-2.394 1.746,0.447 -0.241,-1.749 1.18,0.019 1.359,1.692 -0.448,1.601 -0.783,1.802 -3.455,2.062 -2.471,-0.28 -1.18,2.651 -1.53,0.038 -1.829,-0.679 -3.28,-0.845l-0.643 -0.047c-1.169,-0.412 -0.869,-1.693 -1.233,-2.881 -0.445,0.235 -1.457,0.796 -1.798,1.012 -0.861,0.547 -0.852,0.029 -1.163,1.239l0.016 0.751c-0.001,0.094 0.03,0.279 0.075,0.411l0.646 -0.109c0.159,-0.04 0.826,-0.257 0.939,-0.275 2.222,-0.364 1.776,2.13 -1.336,1.558l0.404 2.601c-1.109,-0.727 -2.233,-1.585 -4.1,-0.897 -2.144,0.79 -0.525,0.359 -0.645,3.872 -1.331,0.105 -2.204,-0.235 -2.667,-0.188l-2.35 0.999c-0.942,-1.001 -1.545,-1.547 -2.319,-2.584 4.739,-0.431 0.817,1.505 3.382,0.833 0.86,-1.529 -1.175,-2.844 1.668,-4.736 1.445,-0.961 1.158,-1.267 2.916,-1.895 3.953,-1.411 2.776,-4.161 7.709,-4.49 0.472,-2.069 0.503,-1.161 1.138,-2.653 1.419,0.345 0.496,0.335 1.26,0.79 0.947,0.565 -1.209,0.268 1.218,0.624 -0.576,-2.832 -0.818,0.378 -0.354,-2.544l1.805 -0.659c0.133,-1.25 -2.489,-9.922 -4.34,-9.99 -0.894,-0.032 -1.302,0.589 -1.805,1.055 -0.081,0.076 -0.167,0.184 -0.246,0.262 -1.303,1.272 -4.454,4.462 -5.987,5.179 -0.464,0.218 -0.724,-0.012 -1.649,0.436 -1.387,0.673 -2.017,2.134 -2.577,3.528l2.053 2.219c-0.945,0.744 -3.323,0.398 -4.811,0.525l-2.926 -6.607c-0.553,0.754 -1.013,1.466 -1.769,2.191 -0.624,-1.105 1.725,-3.573 2.707,-5.19 0.054,-0.089 0.138,-0.247 0.226,-0.357 0.641,3.764 1.248,2.267 2.176,1.488 0.032,2.096 0.611,2.509 2.331,2.756 0.575,-2.088 0.032,-0.471 -0.018,-1.31 -0.065,-1.097 -0.08,-0.605 0.362,-1.641 0.199,-0.467 0.578,-0.53 0.509,-1.652l-0.633 -1.507c-0.036,-0.068 -0.15,-0.199 -0.18,-0.317 1.561,-1.753 0.122,-0.102 1.189,-0.845 1.279,-0.889 0.778,1.064 1.089,-1.118 0.249,-1.745 -1.648,-1.423 -1.85,-1.358 -2.804,0.892 -2.928,1.706 -4.181,4.132 -1.362,-0.576 -0.35,0.116 -1.225,-1.224 -0.139,3.195 -1.023,3.152 -4.135,2.991l0.496 2.804c-1.464,-0.995 -1.085,-1.131 -2.618,-1.658 -0.118,0.225 -0.531,0.935 -0.706,1.186 -1.743,2.497 -1.378,3.045 -1.236,3.761l0.227 0.731c-0.95,0.527 -0.528,0.226 -1.069,0.48 -0.861,0.405 -0.146,-0.044 -0.922,0.46l1.107 2.262c-3.66,-0.808 -1.98,-4.966 -6.264,-6.41 -0.523,0.8 0.144,1.64 -0.376,2.521 -0.836,1.415 -1.031,0.32 -2.811,0.217 -1.166,1.363 -1.136,2.776 -2.504,3.154 -0.823,-1.604 -0.795,-2.589 -0.011,-3.966 0.223,2.202 -0.492,0.69 1.222,1.372 0.828,-1.347 2.13,-2.083 2.669,-4.278 -2.56,0.88 -0.734,1.518 -3.383,1.813 0.341,-0.491 1.118,-1.37 0.421,-2.383l-2.701 3.566c-0.017,0.059 -0.037,0.223 -0.094,0.318 -1.291,-0.435 -1.519,-0.713 -2.812,-1.323l0.473 2.663c-0.561,0.404 -0.629,0.353 -0.863,0.527 -1.031,0.768 -3.186,2.633 -3.412,3.718 -0.096,0.462 1.088,2.301 -2.775,2.271 -0.766,-1.328 -0.786,-2.953 -2.69,-2.496 -1.139,0.273 -1.934,2.101 -3.764,0.297 0.093,0.968 0.446,2.194 1.708,2.581 0.85,0.26 -0.013,-0.546 1.28,0.158 -0.701,2.14 -0.396,0.777 -1.539,1.172 -1.262,0.436 -0.171,-0.465 -0.96,0.499 -0.454,0.554 0.099,-0.234 -0.328,0.608l-0.28 0.769c-1.101,-0.383 -0.84,-0.386 -1.914,-0.502 -3.444,-0.372 -3.154,0.895 -4.76,1.153 0.152,-2.445 0.258,-1.304 0.901,-2.409 0.469,-0.808 0.372,-0.138 0.576,-1.316 0.043,-0.247 0.016,-1.715 0.015,-2.021 1.755,0.624 1.448,0.808 2.147,-1.565l-3.034 0.917c-0.916,0.436 0.469,0.085 -0.772,0.536 0.278,-4.207 4.467,-0.111 5.015,-3.929 0.335,-2.328 -0.492,-1.202 1.33,-3.788 0.406,-0.577 1.535,-2.903 1.759,-4.02 1.758,0.496 0.847,0.407 2.58,0.88 -0.397,-0.898 -1.627,-2.968 0.371,-3.378 2.963,-0.609 -0.952,0.611 1.889,1.649 1.66,-0.967 0.857,-1.988 0.112,-3.203l4.419 -2.786c1.054,-1.042 0.123,-0.216 0.816,-1.116 0.88,-1.145 0.135,-0.59 1.287,-1.164 1.513,-0.755 1.035,0.089 2.755,-1.396 0.08,0.091 0.158,0.142 0.186,0.312l0.889 1.527c1.094,1.307 0.355,1.073 1.481,0.572 1.411,-0.628 0.02,-0.787 -0.214,-0.993 -1.07,-0.943 -0.463,0.662 -1.555,-1.59l3.297 -1.745c-0.073,-0.229 -0.374,-1.018 -0.392,-1.12 -0.157,-0.887 -0.24,-0.488 0.064,-0.91l1.817 2.107c0.666,0.766 0.562,1.368 1.469,1.782 0.04,-0.083 0.054,-0.327 0.057,-0.271l0.065 -1.24c0.04,-1.257 -0.195,-0.619 0.223,-1.841 0.669,-1.958 1.181,-1.168 1.584,-3.439 -3.899,1.46 -2.198,-0.108 -5.057,0.706 -0.675,0.192 -1.19,0.766 -1.442,1.014 -0.594,-0.837 0.01,-2.301 -0.72,-3.302l-1.466 2.975 -1.584 -0.909c-0.744,-0.363 -0.972,-0.371 -1.519,-0.724l-1.578 2.102c-0.922,0.664 -2.284,0.532 -3.514,0.528 0.791,4.338 1.249,1.055 3.366,2.072 -0.058,0.483 0.038,1.255 -2.892,1.184 -0.13,-0.003 -0.523,-0.035 -0.634,-0.045l-1.645 -2.847 -3.311 -0.074 0.045 1.792c0.217,0.017 0.354,-0.127 0.382,-0.051 0.491,1.325 -0.052,-0.596 1.36,-0.231 1.063,0.275 0.017,-0.73 0.7,0.5 0.718,1.294 0.286,0.46 0.332,1.879 -2.03,0.611 -0.955,-0.284 -2.229,0.06 -0.035,0.009 -0.793,0.374 -0.847,0.395 -1.639,0.631 -2.366,-1.304 -6.168,1.97 -1.817,1.565 -0.117,0.51 -2.987,1.025 -0.561,-1.624 -1.491,-3.234 -0.566,-5.128l0.578 0.424c0.705,0.421 0.269,0.297 0.979,0.553 1.08,0.39 1.532,0.231 2.843,0.27 -0.505,-1.106 -0.283,-0.725 -1.006,-1.81 -0.812,-1.217 -0.201,0.216 -0.91,-1.276 0.765,-0.838 1.165,-0.949 1.529,-2.619 2.754,-0.289 1.823,0.537 3.219,-1.142 -0.356,-0.883 -0.562,-0.759 -1.998,-1.411 0.927,-2.443 2.386,-1.534 4.08,-2.863 1.107,-0.869 -0.539,-0.297 1.659,-1.085 -0.346,-2.896 -1.133,-1.418 -0.193,-3.109 1.621,1.111 -0.476,-0.18 0.789,1.039 1.047,1.009 -0.564,0.496 1.296,0.918 -0.765,0.381 -1.054,0.208 -1.387,1.396 -0.282,1.009 0.279,1.896 0.728,2.373 1.269,-0.984 0.802,-0.441 0.664,-2.536l0.988 0.648c0.818,0.259 0.319,0.337 0.96,-0.072l-0.813 -1.375c-0.047,-0.088 -0.119,-0.231 -0.162,-0.313 -0.045,-0.085 -0.124,-0.257 -0.16,-0.328 -0.036,-0.072 -0.118,-0.218 -0.159,-0.335 4.369,-2.945 9.336,-4.658 13.63,-7.608 1.922,-1.321 0.434,-0.687 2.181,-0.626 0.685,0.023 0.747,0.223 1.41,0.003 2.137,-0.711 -1.514,1.136 1.021,-0.646 0.092,-0.065 0.217,-0.208 0.333,-0.304l0.692 2.944c1.497,-0.394 1.874,-1.289 1.766,-3.125l2.687 -0.181c-1.763,-2.346 0.76,-3.675 1.71,-5.03 -1.208,-3.994 -11.707,-10.401 -14.411,-13.759 -1.805,0.376 -0.432,0.795 -1.977,0.357 -3.712,-1.05 2.333,-0.506 -0.928,-0.324 -0.045,0.002 -0.759,0.42 -0.822,0.472 -0.116,-3.344 0.479,-1.435 -1.957,-2.261l0.714 -1.679 -5.269 -3.268c-0.091,-0.047 -0.215,-0.112 -0.303,-0.16 -0.084,-0.046 -0.205,-0.116 -0.286,-0.162 -0.077,-0.044 -0.199,-0.121 -0.271,-0.163 -0.652,-0.386 0.176,-0.138 -0.769,-0.479 -1.408,2.157 -0.119,0.335 0.211,2.341 -3.565,0.214 0.647,-3.582 -4.296,1.393 -0.647,0.651 -0.173,0.195 -0.819,0.63 -0.117,0.079 -0.512,0.259 -0.622,0.337 -0.08,0.056 -0.214,0.121 -0.285,0.181 -2.004,1.673 -0.04,0.572 -0.874,1.705 -1.685,2.288 -3.564,-2.12 -4.252,-3.162l3.415 -2.951 0.95 2.219c1.116,-0.319 1.593,-1.031 2.353,-1.899 0.086,-0.099 0.208,-0.247 0.31,-0.373 -2.177,-1.114 -0.989,-0.402 -1.207,-1.562 0.48,-0.007 0.706,1.984 1.706,-0.94 -0.928,-1.288 -13.197,-7.463 -15.368,-7.895l-3.286 2.635c-4.823,-0.106 -1.993,1.216 -4.695,2.484 -1.708,-1.063 -0.781,-0.538 -1.408,-2.373 -1.402,0.505 -2.658,0.777 -3.894,1.858l1.022 2.146 -2.676 1.599c-0.754,-1.51 0.848,-1.315 -0.807,-2.536 -1.379,-1.018 -0.413,-1.075 -2.095,-2.072l-1.792 1.28c0.126,0.127 0.314,0.044 0.353,0.168 0.273,0.843 1.856,-0.416 1.168,1.346 -0.403,0.125 -0.123,0.16 -0.926,0.03 -0.001,0 -0.988,-0.309 -1.62,-0.446l-0.131 1.031c-0.161,0.829 0.061,0.584 -0.338,1.268 -0.091,-0.09 -0.206,-0.376 -0.245,-0.294 -0.246,0.51 -0.633,-0.884 -1.163,-1.304l-2.808 0.883c-0.035,-0.096 0.007,-0.293 0.012,-0.245l0.093 -0.483c0.213,-0.8 0.318,0.932 0.402,-1.311 -2.063,-0.078 -13.552,2.067 -15.583,3.11 -1.733,0.891 -2.256,2.829 -4.634,2.694 -2.053,-0.117 -0.555,-0.04 -1.254,-0.422 -1.558,-0.851 1.416,0.093 -1.11,-0.771l-36.958 9.767c4.721,0.986 8.66,1.818 12.492,4.347 2.878,1.899 7.025,5.883 7.076,10.303l-13.39 3.225c1.687,3.561 8.396,7.749 9.176,10.879 -10.95,10.51 -27.84,0.105 -36.951,-8.102 -2.112,-1.902 -7.803,-6.88 -8.71,-9.674 2.679,-1.197 0.994,-0.84 3.358,0.023l-0.662 -2.256 1.028 -0.09c0.551,0.05 1.074,0.219 1.431,0.322 1.003,0.288 2.298,0.663 3.082,0.884 4.565,1.282 1.828,1.988 4.116,3.387 1.952,1.195 4.181,-0.48 3.731,-2.736 -0.624,-3.127 -4.128,-1.043 -5.642,-1.017 -5.13,0.092 -2.579,-3.125 -11.024,-0.335 -3.783,1.249 -7.691,2.768 -11.416,3.749 0.019,0.098 0.145,0.119 0.167,0.251 0.302,1.844 1.21,-0.663 0.738,2.066 -0.125,0.721 -0.826,2.629 -1.105,3.565 -4.329,14.48 -13.751,34.027 -32.193,31.001 -0.564,-3.656 3.488,-10.047 3.214,-13.946l-13.402 3.131 -0.656 -5.128c-4.628,5.639 -10.757,20.17 -13.437,28.054 -3.627,10.668 -6.25,22.503 -6.98,35.02l0.7 0.259c1.308,0.325 2.863,1.206 4.684,0.338 1.302,-0.621 1.969,0.346 3.281,1.303l5.444 -3.748c0.037,-0.01 0.175,0 0.254,-0.033 -0.917,-1.998 -1.12,-0.037 -0.684,-2.079l1.976 -0.309c0.314,2.598 0.014,1.264 -0.861,2.763 1.856,-0.104 3.048,-1.128 3.81,-2.547 0.008,0.011 0.697,0.764 0.808,0.871 1.519,1.48 0.148,-0.979 1.299,1.301 -0.91,2.042 1.358,-1.445 -0.504,0.658 -1.049,1.185 -1.314,0.929 -1.612,2.561 2.209,-0.415 0.111,-0.336 2.446,-0.672 0.323,-1.532 0.097,-2.573 0.825,-3.301 1.561,1.083 0.344,0.746 1.643,2.303l-0.42 -2.27c-0.895,-2.294 0.087,-0.437 -0.662,-3.797l1.2 0.684c0.619,0.415 0.433,0.376 0.988,0.785 1.633,-1.531 1.708,-1.909 3.904,-0.809l-0.446 -2.371c0.155,0.568 0.862,1.71 1.532,2.002l0.903 0.118c0.983,0.04 0.075,-0.934 1.882,0.119l-0.653 -3.317c0.212,0.074 0.414,0.038 0.495,0.256 0.414,1.113 0.24,0.148 0.777,0.48 0.595,0.367 0.371,0.233 0.885,0.542 0.416,-2.493 0.257,-1.871 2.082,-2.182l1.578 -0.39c2.639,-0.395 1.618,1.685 4.799,-0.043 0.789,-0.429 -0.17,-0.142 0.787,-0.446 0.926,-0.294 1.656,-0.155 2.762,-0.124z"/>
  <path fill="#FF0009" d="M414.203 193.519l-1.98 -1.661c0.129,-1.01 0.182,-0.533 0.309,-0.873 0.981,-2.617 -0.296,-0.713 0.564,-2.743 1.342,2.542 1.74,3.249 4.002,3.32l1.959 0.472c-0.623,3.696 0.777,-0.384 -4.845,3.971 -3.741,2.897 -5.648,-0.993 -3.095,-1.436 3.865,-0.67 -0.815,-0.816 3.086,-1.05zm-0.085 58.464l12.846 -0.014c0.865,-3.368 0.276,-21.719 0.26,-26.556 0.705,-2.116 0.012,-0.518 2.065,-1.41l0.104 -36.724 -2.224 0.059c-0.604,1.356 -0.365,0.851 -0.012,2.336 -3.108,-0.316 -2.525,0.735 -5.525,0.8l0.776 2.767c-1.538,-0.609 -0.331,-0.742 -1.135,-0.579 -1.187,0.24 1.832,0.978 -1.373,0.513 -0.498,-2.551 0.065,0.552 0.225,-3.526 0.112,-2.865 2.962,0.022 4.052,-4.766 3.068,0.09 1.542,0.543 3.951,-0.589l1.224 0.982 0.038 -39.577 -28.639 -0.1 0.067 -9.801 21.905 -0.066 -0.002 -3.265 6.694 0.472 -0.04 -9.074 -2.277 -0.94c0.035,-4.735 2.111,-4.293 -12.001,-3.994 -4.467,1.301 -0.821,-0.357 -5.297,2.593 -0.509,-0.552 -0.443,-0.98 -1.192,-1.284 -1.101,-0.447 -0.687,-0.242 -2.051,0.045 0.803,1.597 0.935,1.198 1.072,3.246 -2.08,0.545 -5.331,0.783 -7.325,1.525 -1.017,0.377 -2.12,0.792 -2.591,1.705 -1.034,2.004 0.76,-1.219 0.724,2.746 -2.037,0.818 -0.368,-1.526 -1.782,1.584l-1.408 -1.295c-1.004,0.684 -0.15,-0.036 -0.802,0.718l-0.418 0.548c-0.044,0.057 -0.118,0.2 -0.189,0.293 -1.154,-1.029 -1.82,-1.876 -3.375,-0.569 0.014,0.03 1.648,0.223 1.52,4.427 -0.332,-0.434 -0.558,-0.878 -0.83,-1.166 -0.842,-0.893 -0.053,-0.341 -1.07,-0.853 -1.32,0.556 -2.405,1.269 -3.287,1.918 -0.858,-0.443 -1.095,-0.892 -1.578,-1.647l-1.314 2.078c-0.5,-0.969 -0.671,-0.652 -1.632,-1.466 -1.467,-1.243 -1.501,-2.548 -3.316,-2.522 -0.272,2.502 0.636,0.609 0.685,3.733 0.057,3.586 0.394,2.717 -3.173,1.774l-0.411 2.041 -2.406 -1.872c-0.567,2.095 1.436,0.563 -2.425,3.441l-0.785 0.634c-4.641,4.217 -2.63,2.929 -7.212,1.463 0.24,3.054 2.66,5.147 -2.061,3.73 -0.493,1.586 -0.216,1.908 -0.984,2.877 -1.436,-0.046 -3.565,-2.56 -5.23,-3.46 -0.024,3.039 0.94,2.948 1.856,5.217 -1.927,2.927 -2.142,-1.173 -0.754,8.514 0.784,5.477 3.48,20.214 6.636,24.677 0.391,0.551 0.115,-0.207 0.663,0.888l0.427 -0.734c0.218,-0.421 0.333,-0.742 0.486,-1.006 0.988,-1.706 -0.257,-0.683 1.403,-1.31l0.939 2.699c2.575,0.388 3.305,0.254 5.05,-0.914l3.4 -3.005c0.923,0.324 0.906,1.244 1.733,1.421 1.748,0.376 2.2,-0.173 2.35,-0.216 1.242,-0.351 0.363,0.085 1.049,-0.456 -0.611,-1.292 0.164,-0.163 -1.025,-0.722 -1.35,-0.635 -0.961,0.032 -1.622,-0.688 1.338,-0.91 2.681,-1.046 3.625,-2.272l0.932 -1.535c4.596,0.449 4.783,-0.807 5.132,-5.126l1.119 -0.371c0.029,-0.012 0.143,-0.056 0.205,-0.099 -0.708,-1.346 -1.014,-1.114 -1.236,-2.764 1.109,0.627 0.997,1.05 2.231,1.247 -0.511,-1.463 -0.692,-0.751 -0.41,-1.834 1.697,0.754 0.387,1.13 2.205,1.34 0.083,-1.185 0.018,-0.428 -0.101,-1.111l-0.275 -1.264c-0.028,-0.121 -0.091,-0.297 -0.115,-0.45 3.677,2.479 0.994,2.044 1.864,5.58 1.571,-0.708 0.196,-0.042 1.133,-0.646 0.167,-0.108 0.8,-0.574 0.888,-0.626 1.058,-0.635 1.203,-0.627 2.59,-0.66 -0.554,-2.77 -0.693,-2.404 1.196,-4.256l-0.039 3.582 1.452 -2.258c0.714,0.823 0.6,0.699 1.408,1.168 1.053,-0.664 1.22,-0.987 2.665,-1.431 0.007,-2.975 -0.525,0.52 -0.192,-2.409 0.745,0.733 1.494,1.418 3.062,1.089 1.684,-0.353 1.046,-1.287 0.903,-2.759 0.676,-0.458 1.307,-0.445 1.846,-1.177l1.786 -3.268c0.064,-0.092 0.132,-0.204 0.203,-0.295l1.17 -1.163c-3.844,0.737 -3.999,2.601 -6.748,3.068l-1.033 -2c1.426,-1.071 3.764,-3.166 5.726,-2.932 1.858,0.222 1.359,0.483 1.891,1.501 0.492,-0.608 1.419,-3.782 3.939,-1.364 0.514,0.493 1.112,1.238 0.113,1.731 -2.309,1.143 -0.307,-0.91 -1.975,-0.682l0.028 2.68c0.283,1.144 0.485,1.203 1.169,1.828 0.677,-2.15 0.847,-1.097 1.85,-2.693 0.766,0.183 0.799,0.331 1.046,0.448 1.595,0.751 -0.845,-0.04 1.33,0.657l0.61 -1.741c0.954,1.98 0.518,0.751 3.36,0.397l-1.469 2.135 2.5 -0.826c0.013,-0.05 0.068,-0.208 0.079,-0.249 0.012,-0.04 0.037,-0.173 0.084,-0.246l1.332 2.788c-2.67,0.608 -2.243,0.379 -3.21,2.665 -2.013,-0.374 -0.918,-0.924 -3.286,-1.238 -1.232,1.513 -0.151,1.336 -1.891,2.308l-0.52 0.164c-0.261,0.122 -0.661,-0.104 -0.544,0.754l0.442 1.306c-3.25,-0.761 -1.771,0.269 -4.06,-0.607 -0.043,0.131 -0.192,0.895 -0.193,0.897l-0.485 1.096c-0.048,0.101 -0.127,0.272 -0.215,0.392 -0.21,-1.279 -0.394,-1.768 -0.991,-2.549l-1.739 0.582c0.545,1.174 0.959,0.264 0.802,1.19 -0.135,0.79 -1.482,1.45 -1.844,2.51 -0.337,0.986 0,1.259 -0.929,1.86 -0.526,0.34 -0.91,0.307 -1.541,0.447 1.062,-3.429 1.409,-0.729 1.738,-2.569 0.213,-1.189 0.31,-0.18 -0.236,-1.033 -0.636,-0.125 -1.355,0.534 -1.793,1.225 -1.064,1.676 -0.688,1.089 -0.255,3.569 -2.478,0.144 -1.159,0.469 -3.245,1.671 -0.906,-0.926 -1.983,-2.101 -2.39,-3.046l-0.306 3.625c-0.047,-0.09 -0.162,-0.382 -0.207,-0.299l-1.663 -1.528 -1.869 0.67c-0.465,1.393 0.108,0.816 -0.914,2.855l1.546 1.494c-1.822,0.687 -0.956,-0.079 -1.717,1.38l2.13 0.417c-0.262,1.049 0.443,2.167 -2.373,0.931 -0.895,-0.393 0.711,-0.05 -1.084,-0.551 -1.067,1.247 -0.852,1.253 -2.761,1.424 -2.122,-2.62 1.172,-2.323 -3.067,-2.446 0.903,2.893 1.407,1.099 2.024,3.463 -0.483,0.447 -1.443,1.216 -2.179,1.443 -1.233,0.381 -0.747,0.085 -1.344,0.144l-5.137 4.2c0.213,1.283 0.799,2.65 0.61,4.329 -2.075,-4.177 0.201,-3.345 -4.53,-3.048l0.264 -2.995c-2.032,0.733 -2.522,1.695 -1.353,2.944 2.225,2.377 -0.901,-2.088 0.5,0.505 -1.978,2.401 -1.577,0.802 -2.688,3.873 -3.141,-1.568 -2.199,0.948 -5.987,1.955 0.31,1.375 2.158,6.617 3.435,6.281l0.743 -0.455c3.16,0.011 -1.35,1.29 2.35,1.492l-1.74 2.232c3.339,-0.022 0.666,0.647 3.546,1.275l0.289 -1.231c0.377,-1.313 -0.439,0.095 0.625,-1.334 1.424,-1.912 2.458,-2.622 4.636,-0.859 2.892,2.34 0.295,0.276 3.658,1.245 1.458,0.421 3.264,1.773 4.158,2.921 -0.065,0.112 -0.201,0.131 -0.239,0.309 -0.361,1.723 -1.32,0.113 -0.81,3.451l-0.613 0.424c-0.058,0.043 -0.214,0.159 -0.283,0.21 -1.035,0.773 -0.322,0.708 -1.289,0.933l-0.248 -0.716c-0.004,-0.042 -0.004,-0.191 -0.007,-0.237l-0.699 -2.656c-0.044,-0.333 0.274,-0.453 -0.148,-1.654 -5.13,-0.885 -1.743,1.427 -5.368,1.766 -0.019,0.001 -0.982,0.08 -1.03,0.083 -1.794,0.127 -1.078,0.185 -3.041,-0.159 -0.093,6.105 22.48,28.541 26.97,32.282l9.616 7.274c0.596,0.454 0.384,0.245 0.788,0.705l0.685 1.009z"/>
  <path fill="#FF0009" d="M553.747 203.996l-0.006 19.537 1.059 0.585c0.355,0.179 0.719,0.265 1.167,0.519l-0.027 13.27c-0.427,-0.398 -0.929,-0.955 -2.023,-0.271 1.163,1.758 1.69,1.212 1.929,3.854 -2.769,-0.934 -2.115,-2.585 -4.023,-2.66 0.077,1.249 2.229,2.905 3.033,3.976 1.335,1.776 0.433,1.211 1.283,3.529 0.458,1.248 0.481,0.082 0.657,1.207 -1.04,0.822 -0.469,-0.538 -0.833,1.771 -0.088,0.561 -0.016,2.119 -0.015,2.736l12.728 -0.021c1.152,-1.682 8.365,-6.71 10.232,-8.203 3.061,-2.449 6.365,-5.511 9.339,-8.486 18.124,-18.13 33.356,-44.093 37.748,-70.362 -4.795,0.977 -6.86,2.912 -7.165,3.011 -1.383,0.445 1.015,0.783 -0.98,-0.33 -0.016,-0.009 -0.096,-0.098 -0.149,-0.08 -0.342,0.89 -0.881,2.723 -1.01,4.033 2.397,-0.57 1.038,-1.482 2.778,-0.263 -0.393,1.032 -1.056,1.293 -2.171,1.511 -2.415,-2.056 -1.309,-2.47 -3.933,-1.228 1.26,2.005 2.264,0.885 1.725,3.11 -0.031,-0.033 -1.586,-1.041 -2.155,-1.352 -1.957,-1.069 -0.81,-0.628 -3.148,-0.231 -0.366,0.682 0.423,0.705 -0.685,1.654l-2.132 1.735c-2.728,-1.291 -0.345,-1.596 -2.749,-0.93 -0.058,0.016 -0.2,0.049 -0.259,0.07 -0.488,0.174 -0.136,-0.14 -0.762,0.349 -0.271,0.21 -0.783,1.059 -1.042,1.424l0.544 1.054c0.427,0.873 0.242,-0.62 0.613,1.362 -1.679,-0.419 -1.372,-0.081 -2.087,-1.5 -1.177,1.754 -0.498,1.369 -2.474,1.126 1.068,1.915 0.176,1.498 -1.48,2.273 -1.562,0.731 -2.224,1.064 -4.135,1.105l0.138 2.536c-3.166,-0.902 -2.88,0.833 -5.139,1.212l-1.822 -0.079c-1.877,0.106 -1.13,0.449 -2.349,1.254 -1.186,-0.469 -2.119,-1.076 -3.286,-1.253 -2.481,4.229 -5.564,3.951 -7.055,5.509 -0.601,0.627 -0.747,1.132 -1.24,1.351 -0.001,0.001 -0.008,0.646 -1.757,-0.332 -1.052,-0.588 0.023,0.835 -0.601,-0.513 -0.817,-1.768 0.816,-0.629 1.412,-3.417 -2.567,0.45 -2.098,0.849 -2.259,1.217 -0.22,0.505 -0.148,2.155 -0.22,2.909 -1.984,-1.229 -0.76,-1.859 -2.535,-1.95 0.239,2.073 1.903,1.29 2.44,5.961 -1.989,-0.901 -0.17,-0.457 -2.269,-1.218 -1.665,1.93 -0.979,1.8 -3.526,1.599l0.537 1.73 -2.175 -1.717c-1.223,0.953 -1.294,0.366 -2.447,1.689 1.092,0.712 1.312,0.557 1.214,2.233 -0.484,-0.35 -1.245,-0.731 -1.84,-1.054 -0.337,2.617 -1.491,2.23 -2.434,2.513l-0.585 0.217c-1.689,0.686 0.66,0.297 -1.594,0.719z"/>
  <path fill="#FF0009" d="M470.706 3.862c-1.047,6.867 0.035,7.573 -4.012,12.871 -7.112,9.311 -22.271,15.302 -34.439,16.671 0.026,-2.589 -0.47,-2.791 4.502,-3.964 1.705,-0.402 5.304,1.133 4.793,-1.845 -0.202,-1.179 -1.634,-2.213 -3.089,-0.633l-0.394 0.575c-0.582,0.693 -0.099,0.293 -0.718,0.772 -0.412,0.319 -2.383,1.096 -2.951,1.308 -0.301,0.112 -0.979,0.401 -1.431,0.471 -4.159,0.643 1.838,-4.504 3.05,-5.53 2.926,-2.477 1.286,0.112 3.873,-0.868 1.571,-0.594 2.017,-2.458 1.163,-3.877 -0.78,-1.297 -2.652,-1.465 -3.693,-0.491 -2.43,2.273 1.763,1.284 -4.333,6.972 -1.396,1.303 -1.534,1.999 -3.426,1.993 -0.053,-2.158 0.577,-2.671 1.55,-4.796 1.533,-3.344 1.946,-0.465 3.125,-3.524 -0.743,-2.073 -1.004,-1.987 -3.306,-1.375 -0.163,1.472 0.089,1.762 0.021,2.821 -0.137,2.123 -0.068,0.914 -0.724,2.498 -0.913,2.201 -0.446,3.276 -3.098,3.28 -0.411,-0.721 -0.264,0.055 -0.326,-1.153 -0.04,-0.788 0.006,-0.801 0.206,-1.547 0.215,-0.803 0.669,-1.886 0.935,-2.764 0.444,-1.461 1.581,-4.122 1.063,-5.255 -1.705,1.105 -1.423,2.527 -2.16,5.066 -0.577,1.989 -0.936,3.842 -2.031,5.284 -2.546,-1.831 -1.749,-0.601 -1.227,-4.107 0.673,-4.528 -0.049,-2.041 2.192,-4.743 -3.542,0.245 -2.621,3.848 -3.389,6.589l-0.27 0.735c-0.031,0.085 -0.088,0.239 -0.157,0.345 -2.498,-0.771 -0.982,-1.975 -2.347,-4.272 -0.667,0.903 0.061,1.804 -0.009,3.288 0,0 1.171,-0.877 -0.461,1.667 -1.51,-0.739 -0.2,0.078 -1.394,-1.195l-1.69 -1.676c0.831,1.759 1.35,2.179 2.083,3.659l-1.308 1.287c-2.326,-0.853 -1.633,-2.337 -4.306,-3.024 0.677,1.654 0.512,1.064 1.697,2.406 0.639,0.722 1.322,1.621 0.694,2.31 -1.635,1.792 -3.651,-1.442 -5.279,-2.282 1.276,2.041 3.099,2.058 3.464,4.382 -1.376,0.673 -1.862,0.107 -3.659,-0.511 -0.597,-0.205 -1.293,-0.487 -1.951,-0.627 -0.961,-0.204 -0.292,-0.179 -1.071,-0.116 -1.368,0.111 -0.006,-0.364 -0.886,0.313 1.352,1.723 5.811,0.927 6.947,2.821 -0.529,1.337 0.692,0.568 -1.528,1.237 -3.824,1.153 -6.119,-0.977 -7.208,-0.83 -3.176,0.427 -0.713,6.74 2.251,1.557 4.638,-0.069 6.463,-1.43 6.978,1.797 -1.986,1.072 -11.304,2.75 -14.103,3.055 -4.638,0.505 -4.268,-0.584 -6.816,2.253 -1.328,1.478 -3.121,2.918 -3.868,4.848 3.384,-2.065 7.054,-3.836 11.406,-5.285 4.802,-1.6 8.886,-2.19 13.598,-3.526 0.462,3.329 -0.295,2.345 -2.413,3.466 -1.184,0.627 -0.453,-0.366 -0.92,0.831 1.02,0.141 0.733,-0.34 1.222,-0.556 2.175,-0.955 3.079,-0.345 6.526,-1.945l0.691 -0.32c-1.44,-2.914 1.955,2.523 -0.759,-0.722 -0.622,-0.743 -0.969,-1.688 -0.76,-2.977l0.345 -1.139c0.026,-0.08 0.077,-0.228 0.14,-0.33 1.843,1.21 1.297,2.66 2.347,4.14 1.429,-0.326 3.324,-0.593 5.164,-0.69l0.939 -1.863c1.589,0.467 3.479,0.321 5.122,-0.216 4.039,-1.322 0.012,-1.65 3.834,-2.712 3.35,-0.93 7.732,-1.366 10.805,-2.335 3.327,-1.049 6.631,-1.718 9.962,-2.651 1.623,-0.456 3.621,-0.917 5.145,-1.556 3.689,-1.545 1.921,-0.44 5.017,-0.725 1.838,-3.091 1.705,-1.496 2.672,-1.721 2.351,-0.546 0.134,-0.695 3.893,-0.636 2.333,0.037 4.913,-0.56 6.781,-1.703 0.074,-0.045 0.182,-0.138 0.255,-0.177 1.181,-0.641 2.881,-0.622 4.396,-1.095 0.064,-0.02 0.2,-0.066 0.258,-0.088l0.816 -0.463c1.648,-0.518 -0.576,0.754 1.603,-0.115l6.314 -2.044c1.573,-0.598 1.666,-0.495 2.26,-2.236 0.218,-0.638 0.143,-0.6 0.297,-1.186 0.697,-2.67 2.26,-3.594 5.413,-3.626l-0.029 2.18c-0.407,0.037 -1.299,0.096 -1.585,0.174 -0.13,0.036 -0.261,0.074 -0.391,0.117l-1.295 2.418c1.692,1.363 2.608,0.753 4.994,0.542 2.626,-0.231 3.13,-0.959 4.985,-1.13 1.178,-0.109 2.726,-1.231 4.482,-1.564 1.727,-0.327 4.345,-0.264 6.261,-0.455 -0.022,-2.933 -0.949,0.465 -1.03,-3.023 1.897,1.36 2.515,2.252 4.614,1.999 3.748,-0.451 1.597,-1.168 5.658,-1.845 -0.451,-3.288 -1.04,-1.014 -2.786,-2.986 3.236,-1.627 5.013,-0.96 5.965,-1.41 -1.132,-1.997 -11.43,-3.469 -14.013,-3.893 -4.888,-0.803 -10.312,-1.697 -15.572,-1.99 -5.733,-0.319 -11.173,-0.704 -16.899,-0.111 -2.623,0.272 -1.353,0.366 -3.122,0.945 -3.23,1.058 -6.412,1.049 -10.135,2.107z"/>
  <path fill="#FF0009" d="M499.211 135.446c2.488,0.679 30.533,0.507 34.524,0.189 0.795,-1.475 0.122,-1.45 0.769,-2.969 0.097,-0.035 0.689,-0.14 0.919,-0.144l5.397 0.461c-0.05,-2.271 0.779,-8.046 -0.738,-9.287 -0.113,-0.093 -0.559,-0.317 -0.682,-0.387l-0.833 -4.244 -39.242 -0.17 -0.114 16.551z"/>
  <path fill="#FF0009" d="M444.352 122.925c-0.105,0.09 -0.323,0.003 -0.393,0.193 -0.552,1.492 -0.113,-0.057 -0.753,0.382 -0.49,0.336 -1.094,-0.24 -1.061,3.141 0.02,2.129 0.052,4.205 0.004,6.34 3.373,-0.227 4.777,-0.826 6.319,-0.315 0.633,1.499 -0.015,1.505 0.766,2.967l34.657 0.085 -0.043 -16.715 -39.41 -0.1 -0.086 4.022z"/>
  <path fill="#FF0009" d="M490.386 148.542c-0.745,3.559 -1.867,15.277 -1.097,18.576l13.367 -1.175c6.136,-0.412 4.309,2.79 6.154,-18.913 -3.282,-0.52 -16.193,0.214 -18.424,1.512zm41.805 7.46c0.804,-1.413 0.583,-1.806 1.264,-0.467 0.699,1.373 -0.142,2.216 -0.289,3.197 2.255,-0.955 0.515,-0.632 2.917,-3.608 3.022,0.927 2.93,-0.311 3.285,2.277 -4.874,-2.367 -4.204,2.438 -4.204,2.42 -0.003,-0.054 0.018,0.184 -0.02,0.263 -7.55,-2.421 0.069,5.774 -5.502,3.215 0.463,2.397 0.984,1.267 0.074,2.927 -0.03,0.054 -0.114,0.17 -0.143,0.226l-0.232 0.5c-0.493,1.051 -0.005,0.736 -1.143,1.678l-1.505 0.988c-0.786,-0.91 -0.549,-0.624 -1.176,-1.825 -0.574,-1.099 0.06,-0.4 -0.774,-1.486 -1.2,0.4 0.026,-0.257 -0.479,0.677 -1.198,2.216 -0.864,0.292 -1.629,2.514l-2.303 -1.27c-0.275,0.96 -0.238,0.667 -0.341,2.047 -1.164,-1.84 -1.234,-0.28 -3.198,0.472 0.159,-2.716 0.052,-0.046 0.722,-2.644 -4.925,0.109 -0.607,0.23 -2.439,1.36 -0.462,0.285 -0.13,0.445 -0.624,-0.299 -0.538,-0.809 -0.355,-0.684 -0.599,-1.577 1.673,-2.064 -0.718,0.757 1.238,-0.887 1.737,-1.461 0.647,-1.152 1.275,-2.667 1.056,0.39 1.978,0.834 3.204,1.049 0.648,-1.187 0.224,-0.576 0.467,-1.625 0.001,-0.001 -0.424,-0.624 0.703,-1.348 1.188,-0.763 1.016,-0.408 1.62,-0.063 -0.582,-2.175 0.146,0.21 -1.355,-1.981 0.095,-0.049 0.253,-0.054 0.312,-0.066 3.776,-0.702 1.848,-1.024 4.232,-0.129 -0.366,-2.307 -0.244,-1.933 0.245,-2.653 0.481,1.079 0.623,1.802 1.839,2.276 1.94,-1.32 0.602,-0.484 0.635,-1.092 0.175,-3.136 0.044,-0.415 1.352,-3.037 0.702,0.64 1.118,0.901 2.237,1.375l0.334 -0.737zm-41.805 -7.46c2.231,-1.298 15.142,-2.032 18.424,-1.512 -1.845,21.703 -0.018,18.501 -6.154,18.913l-13.367 1.175c-0.77,-3.299 0.352,-15.017 1.097,-18.576zm50.418 61.104c-0.899,-0.376 -0.655,0.207 -0.966,-0.421 -0.486,1.141 0.487,0.696 -0.832,1.804 -1.3,1.093 -2.745,2.969 -4.185,3.267 -2.968,0.612 0.613,-0.161 -2.393,-0.476 -2.03,1.996 0.08,1.373 -3.214,2.1 -0.073,0.016 -0.242,0.031 -0.346,0.091 0.099,4.285 2.165,-0.235 2.168,4.418l-1.984 0.323c-0.598,-1.168 0.288,-0.6 -0.011,-1.958l-5.464 0.56c-0.831,-1.525 -0.309,-2.037 -2.048,-2.735 -0.455,1.092 0.589,1.476 0.703,3.426l-2.738 0.498c0.155,-2.104 0.201,-1.397 0.64,-2.976l-1.776 0.75c0.116,2.344 0.196,1.033 0.636,2.102 0.621,1.507 0.508,0.769 0.619,2.698 -3.628,0.232 -3.731,1.27 -5.377,-1.935 0.54,-0.179 1.014,-0.131 1.244,-0.217l1.151 -0.586c0.113,-0.062 0.287,-0.15 0.401,-0.263 -1.859,-0.547 -3.87,-0.291 -5.189,1.247 -0.408,0.474 0.496,3.179 -1.58,3.885 -1.795,-2.682 2.123,-0.832 -1.019,-3.596 1.775,-1.658 2.362,-0.383 1.228,-2.653 0.358,0.004 1.317,0.188 1.352,0.187 1.656,-0.053 3.561,-1.437 4.65,-2.364l2.907 -2.438c2.892,-3.377 3.95,-2.199 4.743,-2.351 1.398,-0.269 1.242,-0.608 2.376,-1.895 0.971,-1.101 1.128,-1.049 1.552,-2.781 3.583,0.376 -0.492,0.391 2.777,0.77l0.559 -2.497c3.084,1.681 3.582,-0.682 5.633,-2.331 0.751,0.473 0.181,0.266 0.71,0.687 0.952,0.757 -0.11,0.414 1.168,0.764 3.152,-2.405 -0.396,-0.892 0.094,-3.233 0.278,-1.333 0.945,-0.976 1.811,-1.195l-0.014 -54.71 -98.477 -0.003 -0.181 76.573c0.175,3.149 1.842,1.693 2.164,3.231l-0.022 23.071c-0.034,1.926 -0.436,3.032 0.876,3.46 0.505,0.164 8.054,0.038 9.248,0.039l83.063 0.024c1.694,-0.292 1.275,-0.858 1.247,-3.039l-0.035 -23.555c0.72,-1.65 -1.27,1.004 0.547,-0.57 0.08,-0.069 0.472,-0.375 0.574,-0.467 0.898,-0.81 0.401,1.138 0.974,-1.338l0.036 -13.392z"/>
  <path fill="#FDFAF9" d="M540.804 209.646l0 -9.324c-0.866,0.219 -1.533,-0.138 -1.811,1.195 -0.49,2.341 3.058,0.828 -0.094,3.233 -1.278,-0.35 -0.216,-0.007 -1.168,-0.764 -0.529,-0.421 0.041,-0.214 -0.71,-0.687 -2.051,1.649 -2.549,4.012 -5.633,2.331l-0.559 2.497c-3.269,-0.379 0.806,-0.394 -2.777,-0.77 -0.424,1.732 -0.581,1.68 -1.552,2.781 -1.134,1.287 -0.978,1.626 -2.376,1.895 -0.793,0.152 -1.851,-1.026 -4.743,2.351l-2.907 2.438c-1.089,0.927 -2.994,2.311 -4.65,2.364 -0.035,0.001 -0.994,-0.183 -1.352,-0.187 1.134,2.27 0.547,0.995 -1.228,2.653 3.142,2.764 -0.776,0.914 1.019,3.596 2.076,-0.706 1.172,-3.411 1.58,-3.885 1.319,-1.538 3.33,-1.794 5.189,-1.247 -0.114,0.113 -0.288,0.201 -0.401,0.263l-1.151 0.586c-0.23,0.086 -0.704,0.038 -1.244,0.217 1.646,3.205 1.749,2.167 5.377,1.935 -0.111,-1.929 0.002,-1.191 -0.619,-2.698 -0.44,-1.069 -0.52,0.242 -0.636,-2.102l1.776 -0.75c-0.439,1.579 -0.485,0.872 -0.64,2.976l2.738 -0.498c-0.114,-1.95 -1.158,-2.334 -0.703,-3.426 1.739,0.698 1.217,1.21 2.048,2.735l5.464 -0.56c0.299,1.358 -0.587,0.79 0.011,1.958l1.984 -0.323c-0.003,-4.653 -2.069,-0.133 -2.168,-4.418 0.104,-0.06 0.273,-0.075 0.346,-0.091 3.294,-0.727 1.184,-0.104 3.214,-2.1 3.006,0.315 -0.575,1.088 2.393,0.476 1.44,-0.298 2.885,-2.174 4.185,-3.267 1.319,-1.108 0.346,-0.663 0.832,-1.804 0.311,0.628 0.067,0.045 0.966,0.421z"/>
  <path fill="#FEF5F5" d="M531.857 156.739c-1.119,-0.474 -1.535,-0.735 -2.237,-1.375 -1.308,2.622 -1.177,-0.099 -1.352,3.037 -0.033,0.608 1.305,-0.228 -0.635,1.092 -1.216,-0.474 -1.358,-1.197 -1.839,-2.276 -0.489,0.72 -0.611,0.346 -0.245,2.653 -2.384,-0.895 -0.456,-0.573 -4.232,0.129 -0.059,0.012 -0.217,0.017 -0.312,0.066 1.501,2.191 0.773,-0.194 1.355,1.981 -0.604,-0.345 -0.432,-0.7 -1.62,0.063 -1.127,0.724 -0.702,1.347 -0.703,1.348 -0.243,1.049 0.181,0.438 -0.467,1.625 -1.226,-0.215 -2.148,-0.659 -3.204,-1.049 -0.628,1.515 0.462,1.206 -1.275,2.667 -1.956,1.644 0.435,-1.177 -1.238,0.887 0.244,0.893 0.061,0.768 0.599,1.577 0.494,0.744 0.162,0.584 0.624,0.299 1.832,-1.13 -2.486,-1.251 2.439,-1.36 -0.67,2.598 -0.563,-0.072 -0.722,2.644 1.964,-0.752 2.034,-2.312 3.198,-0.472 0.103,-1.38 0.066,-1.087 0.341,-2.047l2.303 1.27c0.765,-2.222 0.431,-0.298 1.629,-2.514 0.505,-0.934 -0.721,-0.277 0.479,-0.677 0.834,1.086 0.2,0.387 0.774,1.486 0.627,1.201 0.39,0.915 1.176,1.825l1.505 -0.988c1.138,-0.942 0.65,-0.627 1.143,-1.678l0.232 -0.5c0.029,-0.056 0.113,-0.172 0.143,-0.226 0.91,-1.66 0.389,-0.53 -0.074,-2.927 5.571,2.559 -2.048,-5.636 5.502,-3.215 0.038,-0.079 0.017,-0.317 0.02,-0.263 0,0.018 -0.67,-4.787 4.204,-2.42 -0.355,-2.588 -0.263,-1.35 -3.285,-2.277 -2.402,2.976 -0.662,2.653 -2.917,3.608 0.147,-0.981 0.988,-1.824 0.289,-3.197 -0.681,-1.339 -0.46,-0.946 -1.264,0.467l-0.334 0.737z"/>
  <path fill="#FDF3F2" d="M429.393 187.279l-0.041 -2.003 -1.224 -0.982c-2.409,1.132 -0.883,0.679 -3.951,0.589 -1.09,4.788 -3.94,1.901 -4.052,4.766 -0.16,4.078 -0.723,0.975 -0.225,3.526 3.205,0.465 0.186,-0.273 1.373,-0.513 0.804,-0.163 -0.403,-0.03 1.135,0.579l-0.776 -2.767c3,-0.065 2.417,-1.116 5.525,-0.8 -0.353,-1.485 -0.592,-0.98 0.012,-2.336l2.224 -0.059z"/>
  <path fill="#FAEFF0" d="M412.223 191.858l1.98 1.661c-3.901,0.234 0.779,0.38 -3.086,1.05 -2.553,0.443 -0.646,4.333 3.095,1.436 5.622,-4.355 4.222,-0.275 4.845,-3.971l-1.959 -0.472c-2.262,-0.071 -2.66,-0.778 -4.002,-3.32 -0.86,2.03 0.417,0.126 -0.564,2.743 -0.127,0.34 -0.18,-0.137 -0.309,0.873z"/>
  <path fill="#FF0009" d="M583.726 81.175c0.602,1.453 0.156,0.544 0.748,1.204 1.606,1.792 1.634,2.078 2.779,2.472 0.869,-0.986 0.539,1.166 0.631,-1.422 0.054,-1.5 0.078,-0.058 -0.377,-1.307 1.603,0.372 0.564,0.435 2.486,0.37l2.305 -4.919c-2.003,0.124 -2.148,-0.022 -3.26,1.409 -1.037,-1.585 0.179,-0.616 -1.315,-1.24 -1.924,3.177 0.447,-0.133 -3.997,3.433z"/>
  <path fill="#000000" fill-rule="nonzero" d="M31.097 139.455l0 -5.191 15.548 -5.19 0 10.381 31.097 0 -5.183 15.57 -5.183 0 0 36.331 10.366 0 -5.183 15.571 -5.183 0c-10.365,0 -15.548,-5.19 -15.548,-15.571l0 -10.38 -25.914 0 0 10.38c0,10.381 -5.183,15.571 -15.548,15.571l-10.366 0 5.183 -15.571 5.183 0 0 -36.331 -10.366 0 5.183 -15.57 25.914 0zm20.731 15.57l-25.914 0 0 10.38 25.914 0 0 -10.38z"/>
  <path id="_1_4" fill="#000000" fill-rule="nonzero" d="M93.29 176.158c1.893,-9.867 7.995,-22.071 18.29,-36.65l18.148 0c-12.347,17.271 -19.298,31.088 -20.89,41.468 0,6.926 3.449,10.38 10.366,10.38l20.73 0 -5.182 15.571 -15.548 0c-14.965,0 -23.597,-6.395 -25.914,-19.202l0 19.202 -15.548 0 0 -67.472 15.548 0 0 36.703z"/>
  <path id="_2_5" fill="#000000" fill-rule="nonzero" d="M165.848 165.405l41.462 0 -5.183 15.571 -36.279 0c0,6.926 3.449,10.38 10.365,10.38l31.097 0 -5.183 15.571 -25.914 0c-17.281,0 -25.913,-8.645 -25.913,-25.951l-10.366 0 5.183 -15.571 5.183 0 0 -10.38 -10.366 0 5.183 -15.57 62.193 0 -5.183 15.57 -36.279 0 0 10.38z"/>
  <path id="_3_6" fill="#000000" fill-rule="nonzero" d="M238.407 191.356c0,10.381 -5.184,15.571 -15.549,15.571l-10.365 0 5.182 -15.571 5.183 0 0 -36.331 -10.365 0 5.182 -15.57 31.097 0 0 -5.191 15.548 -5.19 0 10.381 36.261 0 -5.165 15.57 -5.182 0 0 36.331 10.347 0 -5.165 15.571 -5.182 0c-10.366,0 -15.548,-5.19 -15.548,-15.571l0 -36.331 -10.366 0 0 20.761 -15.548 5.19 0 -25.951 -10.365 0 0 36.331z"/>
  <polygon id="_4_7" fill="#000000" fill-rule="nonzero" points="326.495,191.356 326.495,206.927 310.947,206.927 310.947,191.356 310.947,139.455 326.495,139.455 "/>
  <path fill="#000000" fill-rule="nonzero" d="M665.123 165.381l0 -26.2 15.697 0 0 26.2 26.163 0 0 -26.2 15.697 0 0 26.2 10.464 0 -5.232 15.72 -5.232 0 0 20.96 -15.697 5.24 0 -26.2 -26.163 0 0 10.48c0,10.48 -5.233,15.72 -15.697,15.72l-10.465 0 5.232 -15.72 5.233 0 0 -10.48 -10.465 0 5.232 -15.72 5.233 0z"/>
  <path id="_1_8" fill="#000000" fill-rule="nonzero" d="M748.842 154.901l0 36.68 26.162 -0.054 0 -36.626 -26.162 0zm20.93 -15.72l20.93 0 0 68.12 -15.698 0 0 -0.054 -26.162 0.054c-10.465,0 -15.698,-5.24 -15.698,-15.72l0 -52.4 20.93 0 0 -5.24 15.698 -5.24 0 10.48z"/>
  <path id="_2_9" fill="#000000" fill-rule="nonzero" d="M863.956 207.301l-7.018 0c-33.699,0 -50.539,-15.72 -50.539,-47.16l0 -5.24 -10.465 0 5.233 -15.72 20.929 0 0 20.96c0,18.17 8.715,28.453 26.163,30.868l0 -51.828 15.697 0 0 68.12z"/>
  <path id="_3_10" fill="#000000" fill-rule="nonzero" d="M926.746 181.101c0,17.472 -8.733,26.2 -26.163,26.2l-31.395 0 5.233 -15.72 26.162 0c6.965,0 10.465,-3.487 10.465,-10.48l-41.86 0 0 -15.72c0,-17.455 8.715,-26.2 26.162,-26.2l31.396 0 -5.233 15.72 -26.163 0c-6.982,0 -10.464,3.506 -10.464,10.48l41.86 0 0 15.72z"/>
  <path id="_4_11" fill="#000000" fill-rule="nonzero" d="M958.14 165.381l41.86 0 -5.233 15.72 -36.627 0c0,6.993 3.482,10.48 10.465,10.48l31.395 0 -5.233 15.72 -26.162 0c-17.447,0 -26.162,-8.728 -26.162,-26.2l-10.465 0 5.232 -15.72 5.233 0 0 -10.48 -10.465 0 5.232 -15.72 62.79 0 -5.233 15.72 -36.627 0 0 10.48z"/>
 </g>
</svg>
