<?xml version="1.0" encoding="UTF-8"?>
<!DOCTYPE svg PUBLIC "-//W3C//DTD SVG 1.1//EN" "http://www.w3.org/Graphics/SVG/1.1/DTD/svg11.dtd">
<!-- Creator: CorelDRAW 2021 (64-Bit) -->
<svg xmlns="http://www.w3.org/2000/svg" xml:space="preserve" width="400px" height="400px" version="1.1" shape-rendering="geometricPrecision" text-rendering="geometricPrecision" image-rendering="optimizeQuality" fill-rule="evenodd" clip-rule="evenodd"
viewBox="0 0 400 400"
 xmlns:xlink="http://www.w3.org/1999/xlink"
 xmlns:xodm="http://www.corel.com/coreldraw/odm/2003">
 <g id="Capa_x0020_1">
  <metadata id="CorelCorpID_0Corel-Layer"/>
  <path fill="#ff0000" d="M117.187 267.969c0,-5.887 0.099,-8.742 5.628,-13.904 2.775,-2.591 7.241,-4.065 12.341,-4.065l129.688 0c10.492,0 17.969,7.565 17.969,14.062l0 3.907c0,7.718 -7.126,14.844 -14.844,14.844l-135.938 0c-7.984,0 -14.844,-6.86 -14.844,-14.844zm76.515 -267.969l13.778 0c14.17,0.478 28.303,2.431 42.063,5.926 17.811,4.524 36.142,12.13 51.394,21.262 14.57,8.724 22.353,14.586 34.405,25.751 10.869,10.07 13.397,12.621 23.36,25.078 25.564,31.967 39.892,73.512 41.298,115.696l0 13.778c-0.478,14.167 -2.431,28.297 -5.926,42.052 -4.527,17.815 -12.128,36.139 -21.262,51.394 -3.178,5.307 -6.125,9.877 -9.525,14.694 -1.794,2.541 -3.223,4.689 -5.293,7.206 -1.868,2.273 -3.508,4.088 -5.317,6.403 -12.473,15.964 -34.681,33.561 -52.225,43.868 -5.113,3.003 -10.316,6.005 -15.851,8.368 -11.932,5.094 -21.876,9.301 -35.685,12.753 -22.631,5.656 -33.167,5.771 -55.947,5.771 -27.523,0 -59.633,-9.623 -78.137,-18.738 -20.426,-10.062 -27.447,-15.594 -44.072,-28.585 -7.162,-5.597 -12.627,-11.955 -18.206,-17.731l-8.482 -9.486c-1.067,-1.358 -1.762,-2.423 -2.657,-3.594 -1.072,-1.4 -1.663,-1.912 -2.809,-3.441 -6.053,-8.075 -16.174,-24.672 -20.082,-33.824 -14.955,-35.031 -18.512,-52.662 -18.524,-91.431l0 -0.255c0.012,-27.511 9.629,-59.591 18.738,-78.083 5.48,-11.124 11.135,-20.766 17.975,-30.463 1.793,-2.542 3.223,-4.689 5.293,-7.206 12.294,-14.956 20.797,-23.698 36.011,-35.865 31.973,-25.569 73.507,-39.892 115.685,-41.298zm-76.515 201.562c0,-10.798 5.979,-17.968 15.625,-17.968l134.376 0c20.657,0 20.657,32.812 0,32.812l-134.376 0c-7.816,0 -15.625,-6.937 -15.625,-14.844zm0 -65.624c0,-9.511 3.507,-18.751 14.844,-18.751l135.938 0c14.266,0 20.369,19.254 9.171,28.703 -3.082,2.601 -6.944,4.11 -12.296,4.11l-129.688 0c-10.256,0 -17.969,-7.57 -17.969,-14.062z"/>
 </g>
</svg>
