<?xml version="1.0" encoding="UTF-8"?>
<!DOCTYPE svg PUBLIC "-//W3C//DTD SVG 1.1//EN" "http://www.w3.org/Graphics/SVG/1.1/DTD/svg11.dtd">
<!-- Creator: CorelDRAW 2021 (64-Bit) -->
<svg xmlns="http://www.w3.org/2000/svg" xml:space="preserve" width="400px" height="400px" version="1.1" shape-rendering="geometricPrecision" text-rendering="geometricPrecision" image-rendering="optimizeQuality" fill-rule="evenodd" clip-rule="evenodd"
viewBox="0 0 400 400"
 xmlns:xlink="http://www.w3.org/1999/xlink"
 xmlns:xodm="http://www.corel.com/coreldraw/odm/2003">
 <g id="Capa_x0020_1">
  <metadata id="CorelCorpID_0Corel-Layer"/>
  <path fill="#ff0000" d="M134.5 283.096c-23.527,0 -23.231,-32.984 0,-32.984l130.5 0c24.233,0 23.869,32.984 0.5,32.984l-131 0zm60.958 -283.096l13.577 0 0.465 0c15.692,0 31.528,3.335 46.507,7.493l6.728 2.271c0.949,0.317 1.624,0.448 2.322,0.679l17.076 6.924c6.68,2.973 13.189,6.251 19.462,10.038 10.978,6.63 21.442,14.027 31.026,22.474 4.948,4.36 9.778,8.929 14.062,13.938l6.359 7.141c3.721,3.995 7.29,9.023 10.461,13.539 7.766,11.057 13.694,21.803 19.435,34.065l1.849 4.151c0.55,1.397 1.24,2.905 1.782,4.218l5.227 15.273c0.039,0.12 0.094,0.246 0.135,0.364l0.702 2.299c1.539,6.654 3.42,12.297 4.382,19.118 0.327,2.319 0.721,2.454 0.997,5.003 0.788,7.278 1.988,13.286 1.988,21.512l0 0.828 0 5.56c-0.011,13.049 -0.175,19.043 -2.025,34.587 -0.827,6.944 -3.103,15.288 -4.978,22.022 -0.254,0.913 -0.288,1.489 -0.551,2.449l-4.536 13.463c-0.36,0.845 -0.566,1.443 -0.81,2.19l-8.158 18.343c-4.385,9.113 -9.926,17.574 -15.642,25.857 -4.941,7.159 -10.489,13.477 -16.155,19.846 -3.4,3.821 -6.781,7.512 -10.692,10.808l-7.411 6.589c-5.102,4.752 -11.18,9.025 -16.966,13.034l-22.81 13.189c-9.484,4.742 -19.339,8.943 -29.476,12.025 -2.024,0.615 -2.536,0.884 -4.659,1.34 -1.538,0.331 -3.017,0.901 -4.268,1.234l-9.769 2.23c-1.931,0.492 -2.549,0.651 -5.065,0.935 -2.316,0.261 -2.435,0.703 -5.017,0.983 -7.277,0.788 -13.287,1.988 -21.512,1.988l-21.377 0c-3.047,-0.092 -6.074,-0.263 -9.058,-0.564 -5.355,-0.541 -10.079,-1.918 -15.519,-2.482 -7.872,-0.816 -16.479,-3.473 -24.109,-5.891l-8.846 -3.153c-0.845,-0.36 -1.443,-0.566 -2.19,-0.81l-14.324 -6.177c-1.582,-0.74 -2.51,-1.256 -4.019,-1.981 -9.138,-4.397 -17.543,-9.919 -25.857,-15.643 -2.568,-1.768 -4.443,-3.212 -6.92,-5.08 -5.179,-3.905 -9.774,-8.174 -14.552,-12.448l-15.04 -15.96c-0.068,-0.077 -0.171,-0.184 -0.24,-0.26 -0.069,-0.076 -0.175,-0.179 -0.245,-0.255 -0.07,-0.075 -0.176,-0.178 -0.246,-0.254 -4.752,-5.102 -9.024,-11.18 -13.034,-16.966 -5.78,-8.34 -10.714,-17.281 -15.007,-26.493l-7.18 -16.82c-3.793,-10.577 -7.161,-21.606 -8.75,-32.75l-2.461 -15.539c-0.362,-5.216 -0.488,-10.569 -0.526,-15.932l0 -13.577 0 -0.465 0 -0.194c0.005,-4.055 0.17,-7.334 0.564,-11.241l3.383 -20.618c0.899,-3.27 1.325,-6.323 2.303,-9.697 2.977,-10.268 6.39,-20.108 10.608,-29.892 6.499,-15.076 19.295,-36.432 30.268,-48.232l23.831 -23.669c1.965,-1.834 4.408,-3.74 6.611,-5.389l33.166 -20.833 34.087 -13.414c0.88,-0.254 1.516,-0.315 2.425,-0.575 1.028,-0.295 1.071,-0.387 1.894,-0.606l14.847 -3.153c2.238,-0.32 2.51,-0.683 4.973,-1.027l10.566 -1.434c5.216,-0.362 10.569,-0.488 15.932,-0.526zm-60.958 216.435c-23.46,0 -23.476,-32.87 0,-32.87l0.5 0 130.5 0c23.471,0 23.427,32.87 0,32.87l-131 0zm-5.345 -98.961c4.702,-1.385 106.438,-0.57 123.845,-0.57 8.129,0 16.86,-1.06 22.566,2.539 5.024,3.169 8.677,9.566 7.194,17.457 -1.163,6.187 -6.206,10.657 -11.882,12.409 -4.502,1.389 -106.596,0.579 -123.878,0.579 -7.85,0 -16.718,1.024 -22.326,-2.558 -12.296,-7.855 -9.64,-25.696 4.481,-29.856zm0 0c-14.121,4.16 -16.777,22.001 -4.481,29.856 5.608,3.582 14.476,2.558 22.326,2.558 17.282,0 119.376,0.81 123.878,-0.579 5.676,-1.752 10.719,-6.222 11.882,-12.409 1.483,-7.891 -2.17,-14.288 -7.194,-17.457 -5.706,-3.599 -14.437,-2.539 -22.566,-2.539 -17.407,0 -119.143,-0.815 -123.845,0.57zm5.345 165.622l131 0c23.369,0 23.733,-32.984 -0.5,-32.984l-130.5 0c-23.231,0 -23.527,32.984 0,32.984zm0 -66.661l131 0c23.427,0 23.471,-32.87 0,-32.87l-130.5 0 -0.5 0c-23.476,0 -23.46,32.87 0,32.87z"/>
  <path fill="#FEFEFE" d="M121.478 249.797c-9.015,16.546 4.728,35.097 22.967,31.078 8.317,-1.833 15.417,-10.787 22.522,-17.892 15.642,-15.642 108.78,-107.314 111.598,-112.646 3.551,-6.723 4.07,-15.333 -0.478,-21.986 -5.799,-8.484 -14.895,-10.967 -22.311,-9.288 -8.422,1.907 -15.365,10.769 -22.722,18.126 -15.755,15.755 -108.574,107.098 -111.576,112.608z"/>
  <path fill="#FEFEFE" d="M278.522 249.797c9.015,16.546 -4.727,35.098 -22.966,31.078 -8.318,-1.833 -15.417,-10.787 -22.523,-17.892 -15.642,-15.642 -108.78,-107.314 -111.597,-112.646 -3.551,-6.722 -4.07,-15.332 0.477,-21.985 5.8,-8.485 14.895,-10.968 22.311,-9.289 8.423,1.907 15.365,10.769 22.722,18.126 15.755,15.755 108.574,107.098 111.576,112.608z"/>
 </g>
</svg>
